<svg width="125" height="20" viewBox="0 0 125 20" fill="none" xmlns="http://www.w3.org/2000/svg">
<g clip-path="url(#clip0_52_2664)">
<path d="M22.5285 8.99784L17.9054 0.981547C17.7287 0.682504 17.477 0.434701 17.1753 0.262576C16.8735 0.0904514 16.5321 -4.90843e-05 16.1848 1.99718e-08H6.93761C6.58888 7.1093e-05 6.2463 0.0918953 5.94427 0.266252C5.64225 0.440608 5.39142 0.69136 5.21696 0.993325L0.593875 9.00667C0.421316 9.30929 0.330566 9.65164 0.330566 10C0.330566 10.3484 0.421316 10.6907 0.593875 10.9933L5.21696 19.0067C5.39065 19.3093 5.64131 19.5606 5.94351 19.7351C6.24571 19.9095 6.58868 20.0009 6.93761 20H16.1838C16.5325 19.9999 16.8751 19.9081 17.1771 19.7337C17.4791 19.5594 17.73 19.3086 17.9044 19.0067L22.5275 10.9933C22.7004 10.6892 22.7913 10.3455 22.7915 9.99571C22.7916 9.64594 22.701 9.3021 22.5285 8.99784ZM11.5607 16.8748V15.5006C12.6496 15.5006 13.714 15.1777 14.6194 14.5727C15.5248 13.9678 16.2304 13.108 16.6471 12.102C17.0638 11.096 17.1728 9.98899 16.9604 8.92102C16.748 7.85306 16.2236 6.87208 15.4537 6.10212C14.6837 5.33216 13.7027 4.80781 12.6348 4.59538C11.5668 4.38295 10.4598 4.49198 9.45384 4.90868C8.44784 5.32537 7.588 6.03103 6.98305 6.9364C6.37809 7.84178 6.0552 8.90621 6.0552 9.99509C6.05213 11.1958 6.44662 12.3637 7.17711 13.3166L8.17044 12.3488C7.68793 11.6583 7.43079 10.8355 7.43428 9.99313C7.43428 9.17525 7.6768 8.37574 8.13119 7.6957C8.58558 7.01566 9.23142 6.48564 9.98704 6.17265C10.7427 5.85966 11.5741 5.77777 12.3763 5.93733C13.1784 6.09689 13.9153 6.49073 14.4936 7.06906C15.0719 7.64739 15.4658 8.38422 15.6253 9.18638C15.7849 9.98854 15.703 10.82 15.39 11.5756C15.077 12.3312 14.547 12.9771 13.867 13.4315C13.1869 13.8859 12.3874 14.1284 11.5695 14.1284V12.7542C12.1145 12.7527 12.6468 12.5896 13.0992 12.2857C13.5516 11.9818 13.9037 11.5507 14.1112 11.0467C14.3187 10.5428 14.3722 9.98868 14.2649 9.45436C14.1576 8.92004 13.8944 8.4295 13.5085 8.04469C13.1226 7.65987 12.6313 7.39806 12.0967 7.29231C11.5621 7.18656 11.0081 7.24161 10.5048 7.45053C10.0014 7.65944 9.57126 8.01283 9.26864 8.46608C8.96603 8.91932 8.80452 9.45208 8.80452 9.99706C8.80284 10.4797 8.9299 10.954 9.1726 11.3712L10.2003 10.3691C10.166 10.2494 10.1488 10.1255 10.1492 10.001C10.1492 9.72163 10.2321 9.44854 10.3873 9.21627C10.5425 8.98399 10.7631 8.80296 11.0212 8.69605C11.2793 8.58915 11.5632 8.56118 11.8372 8.61567C12.1112 8.67017 12.3629 8.8047 12.5604 9.00223C12.758 9.19977 12.8925 9.45144 12.947 9.72543C13.0015 9.99942 12.9735 10.2834 12.8666 10.5415C12.7597 10.7996 12.5787 11.0202 12.3464 11.1754C12.1141 11.3306 11.841 11.4134 11.5617 11.4134C11.4247 11.4123 11.2888 11.3891 11.1592 11.3447L7.60605 14.8115C7.57287 14.8446 7.53559 14.8733 7.49513 14.8969C7.4863 14.9058 7.46961 14.9058 7.46078 14.9136C7.43415 14.9314 7.40548 14.9459 7.37538 14.9568C7.3587 14.9656 7.34103 14.9656 7.32434 14.9735L7.2468 14.999C7.23023 14.9986 7.21378 15.0019 7.19871 15.0088C7.17318 15.0088 7.14766 15.0177 7.13 15.0177C7.10448 15.0177 7.07896 15.0088 7.05245 15.0088C7.03212 15.0096 7.01183 15.0066 6.99258 15L6.91504 14.9745C6.89835 14.9656 6.88068 14.9656 6.864 14.9578C6.83641 14.9468 6.81035 14.9323 6.78646 14.9146C6.77098 14.9081 6.75645 14.8995 6.74327 14.8891C6.71856 14.8713 6.69555 14.8513 6.67456 14.8292C6.66572 14.8204 6.64904 14.8125 6.6402 14.7949C5.53304 13.6572 4.8535 12.1716 4.71685 10.5901C4.58021 9.00848 4.99488 7.42834 5.89052 6.11767C6.78616 4.807 8.10761 3.8465 9.63073 3.39912C11.1538 2.95174 12.7848 3.04501 14.247 3.66312C15.7092 4.28123 16.9125 5.38611 17.6529 6.79035C18.3933 8.19458 18.6251 9.81169 18.309 11.3674C17.993 12.923 17.1485 14.3215 15.9189 15.3255C14.6892 16.3295 13.1501 16.8772 11.5627 16.8757L11.5607 16.8748ZM28.0939 3.5532H32.3234C36.4154 3.51001 39.4298 6.15626 39.3699 9.97448C39.4298 13.7161 36.4164 16.5332 32.3234 16.4723H28.0939V3.5532ZM32.2978 14.0931C34.9009 14.0931 36.6471 12.4666 36.6471 9.98331C36.6471 7.47448 34.9431 5.95112 32.2978 5.95112H30.7274V14.098H32.2978V14.0931ZM49.0617 16.4812H46.6304V15.5399C46.2439 15.9261 45.7825 16.2294 45.2747 16.4311C44.7668 16.6328 44.2231 16.7286 43.6769 16.7128C41.6225 16.7128 40.3289 15.5143 40.3289 13.8192C40.3289 12.073 41.7413 11.0022 43.993 11.0022H46.4243V10.5742C46.4447 10.3372 46.4114 10.0986 46.327 9.87626C46.2426 9.65387 46.1091 9.45337 45.9365 9.28965C45.7639 9.12593 45.5567 9.00321 45.3301 8.9306C45.1036 8.85799 44.8636 8.83736 44.628 8.87024C44.1266 8.88372 43.6349 9.01098 43.1899 9.24241C42.7449 9.47383 42.3583 9.80337 42.0593 10.2061L40.6852 8.5797C41.1896 7.94272 41.8347 7.43112 42.5698 7.08494C43.3049 6.73875 44.1101 6.56737 44.9225 6.58422C45.481 6.53109 46.0443 6.602 46.5721 6.79187C47.1 6.98174 47.5794 7.28588 47.9761 7.68256C48.3728 8.07923 48.6769 8.55864 48.8668 9.08652C49.0567 9.61439 49.1276 10.1777 49.0744 10.7362V16.4812H49.0617ZM46.4115 12.7395H44.3444C43.4796 12.7395 42.9918 13.0732 42.9918 13.7152C42.9918 14.3571 43.5395 14.7684 44.3787 14.7684C44.6401 14.7831 44.9018 14.7446 45.1478 14.655C45.3938 14.5654 45.619 14.4266 45.8096 14.2472C46.0003 14.0677 46.1524 13.8513 46.2567 13.6112C46.361 13.3711 46.4154 13.1122 46.4164 12.8504L46.4115 12.7395ZM56.6549 16.7128C56.1162 16.73 55.5797 16.6345 55.08 16.4325C54.5802 16.2306 54.1281 15.9265 53.7525 15.5399V20H51.1023V6.79132H53.5336V8.0055C53.898 7.53084 54.3728 7.15242 54.9168 6.90317C55.4608 6.65392 56.0575 6.54139 56.6549 6.57538C57.3005 6.58146 57.9381 6.71894 58.5288 6.97945C59.1195 7.23997 59.651 7.61806 60.0908 8.09067C60.5306 8.56328 60.8696 9.12051 61.087 9.72839C61.3045 10.3363 61.3958 10.9821 61.3556 11.6264C61.3966 12.2727 61.3059 12.9205 61.0892 13.5307C60.8724 14.1409 60.534 14.7007 60.0945 15.1763C59.655 15.6519 59.1236 16.0333 58.5323 16.2974C57.9411 16.5615 57.3024 16.7028 56.6549 16.7128ZM56.1642 8.96447C55.8223 8.9581 55.4829 9.02436 55.1685 9.15888C54.8541 9.29339 54.5719 9.4931 54.3404 9.74481C54.1089 9.99651 53.9335 10.2945 53.8257 10.619C53.7179 10.9435 53.6803 11.2872 53.7152 11.6274C53.6802 11.9684 53.7176 12.313 53.8251 12.6385C53.9327 12.964 54.1078 13.2631 54.3391 13.5161C54.5703 13.7692 54.8525 13.9705 55.167 14.1068C55.4816 14.2431 55.8214 14.3113 56.1642 14.307C56.5072 14.3084 56.8469 14.2393 57.1621 14.1039C57.4773 13.9685 57.7614 13.7698 57.9966 13.5201C58.2319 13.2705 58.4133 12.9751 58.5296 12.6524C58.646 12.3296 58.6948 11.9865 58.673 11.6441C58.6992 11.3002 58.6538 10.9546 58.5394 10.6291C58.4251 10.3037 58.2444 10.0056 58.0088 9.75367C57.7732 9.50175 57.4879 9.30151 57.1708 9.16566C56.8538 9.0298 56.512 8.96129 56.1671 8.96447H56.1642ZM68.4786 16.7128C67.9399 16.73 67.4035 16.6345 66.9037 16.4325C66.4039 16.2306 65.9518 15.9265 65.5762 15.5399V20H62.926V6.79132H65.3652V8.0055C65.7288 7.53197 66.2024 7.15425 66.7449 6.90505C67.2874 6.65585 67.8825 6.54269 68.4786 6.57538C69.1242 6.58146 69.7618 6.71894 70.3525 6.97945C70.9432 7.23997 71.4747 7.61806 71.9145 8.09067C72.3543 8.56328 72.6933 9.12051 72.9107 9.72839C73.1282 10.3363 73.2196 10.9821 73.1793 11.6264C73.2203 12.2727 73.1296 12.9205 72.9129 13.5307C72.6961 14.1409 72.3577 14.7007 71.9183 15.1763C71.4788 15.6519 70.9473 16.0333 70.3561 16.2974C69.7648 16.5615 69.1261 16.7028 68.4786 16.7128ZM67.9879 8.96447C67.646 8.9581 67.3066 9.02436 66.9922 9.15888C66.6778 9.29339 66.3956 9.4931 66.1641 9.74481C65.9326 9.99651 65.7572 10.2945 65.6494 10.619C65.5417 10.9435 65.504 11.2872 65.5389 11.6274C65.5039 11.9684 65.5413 12.313 65.6489 12.6385C65.7564 12.964 65.9315 13.2631 66.1628 13.5161C66.394 13.7692 66.6762 13.9705 66.9907 14.1068C67.3053 14.2431 67.6451 14.3113 67.9879 14.307C68.3309 14.3084 68.6706 14.2393 68.9858 14.1039C69.301 13.9685 69.5851 13.7698 69.8203 13.5201C70.0556 13.2705 70.237 12.9751 70.3533 12.6524C70.4697 12.3296 70.5185 11.9865 70.4967 11.6441C70.5237 11.3 70.4788 10.9541 70.3647 10.6283C70.2507 10.3026 70.07 10.0041 69.8343 9.75206C69.5985 9.49997 69.3129 9.29975 68.9955 9.16415C68.6781 9.02855 68.3359 8.96055 67.9908 8.96447H67.9879ZM82.7945 16.4812L79.4464 11.9179H77.5118V16.4812H74.8616V3.5532H79.7164C82.4215 3.5532 84.3738 5.2395 84.3738 7.72281C84.3876 8.48922 84.1812 9.24349 83.7792 9.8961C83.3771 10.5487 82.7962 11.0723 82.1055 11.4046L85.7696 16.4733H82.7945V16.4812ZM77.504 9.58971H79.7154C79.9709 9.61686 80.2292 9.5883 80.4725 9.50602C80.7159 9.42374 80.9386 9.28968 81.1251 9.11308C81.3117 8.93648 81.4578 8.72154 81.5533 8.48306C81.6489 8.24457 81.6916 7.98822 81.6785 7.73165C81.6866 7.47713 81.6405 7.22381 81.543 6.98856C81.4455 6.75331 81.299 6.54155 81.1132 6.36739C80.9275 6.19323 80.7067 6.06068 80.4657 5.97857C80.2246 5.89647 79.9688 5.8667 79.7154 5.89124H77.5069L77.504 9.58971ZM94.6516 16.4812H92.2203V15.5399C91.8338 15.9261 91.3725 16.2294 90.8646 16.4311C90.3567 16.6328 89.813 16.7286 89.2668 16.7128C87.2125 16.7128 85.9188 15.5143 85.9188 13.8192C85.9188 12.073 87.3312 11.0022 89.5829 11.0022H92.0142V10.5742C92.0347 10.337 92.0014 10.0983 91.9168 9.8757C91.8323 9.65315 91.6986 9.45253 91.5258 9.28878C91.353 9.12502 91.1455 9.00235 90.9187 8.92988C90.6919 8.85742 90.4517 8.83703 90.216 8.87024C89.7146 8.88372 89.2228 9.01098 88.7778 9.24241C88.3328 9.47383 87.9462 9.80337 87.6473 10.2061L86.2731 8.5797C86.7769 7.94397 87.4207 7.4332 88.1543 7.08724C88.888 6.74127 89.6916 6.56946 90.5026 6.5852C91.0611 6.53207 91.6244 6.60298 92.1522 6.79285C92.6801 6.98272 93.1595 7.28686 93.5562 7.68354C93.9529 8.08021 94.257 8.55962 94.4469 9.0875C94.6368 9.61538 94.7077 10.1787 94.6545 10.7371V16.4821L94.6516 16.4812ZM92.0014 12.7395H89.9294C89.0646 12.7395 88.5768 13.0732 88.5768 13.7152C88.5768 14.3571 89.1245 14.7684 89.9637 14.7684C90.2251 14.7831 90.4868 14.7446 90.7328 14.655C90.9788 14.5654 91.204 14.4266 91.3946 14.2472C91.5853 14.0677 91.7374 13.8513 91.8417 13.6112C91.946 13.3711 92.0004 13.1122 92.0014 12.8504V12.7395ZM106.399 1.78936V16.4723H103.967V15.2739C103.604 15.7478 103.13 16.1258 102.586 16.375C102.043 16.6242 101.448 16.7371 100.851 16.704C100.204 16.6973 99.5653 16.5589 98.9737 16.297C98.382 16.0352 97.85 15.6555 97.4101 15.1811C96.9701 14.7067 96.6315 14.1476 96.4149 13.5379C96.1984 12.9283 96.1084 12.2809 96.1504 11.6353C96.1084 10.9896 96.1984 10.3422 96.4149 9.73257C96.6315 9.12292 96.9701 8.56381 97.4101 8.08943C97.85 7.61504 98.382 7.23533 98.9737 6.97349C99.5653 6.71165 100.204 6.57319 100.851 6.56655C101.389 6.54069 101.927 6.63051 102.428 6.82997C102.928 7.02942 103.38 7.33388 103.753 7.72281V1.78936H106.399ZM101.348 8.96447C101.005 8.9631 100.665 9.03225 100.35 9.16761C100.035 9.30297 99.7505 9.50166 99.5153 9.75135C99.28 10.001 99.0986 10.2964 98.9822 10.6191C98.8659 10.9419 98.8171 11.285 98.8389 11.6274C98.8118 11.9717 98.8569 12.3179 98.9711 12.6439C99.0853 12.9698 99.2662 13.2684 99.5023 13.5205C99.7384 13.7727 100.024 13.9728 100.342 14.1082C100.66 14.2437 101.002 14.3114 101.348 14.307C101.69 14.3134 102.029 14.2471 102.343 14.1126C102.658 13.9781 102.94 13.7784 103.171 13.5267C103.403 13.275 103.578 12.977 103.686 12.6525C103.794 12.328 103.832 11.9843 103.797 11.6441C103.83 11.3034 103.792 10.9594 103.684 10.6345C103.576 10.3096 103.401 10.0111 103.17 9.75834C102.939 9.50561 102.657 9.30431 102.343 9.16754C102.029 9.03076 101.69 8.96158 101.348 8.96447ZM116.655 16.4812H114.224V15.5399C113.837 15.9261 113.376 16.2294 112.868 16.4311C112.36 16.6328 111.816 16.7286 111.27 16.7128C109.216 16.7128 107.922 15.5143 107.922 13.8192C107.922 12.073 109.335 11.0022 111.586 11.0022H114.018V10.5742C114.038 10.337 114.005 10.0983 113.92 9.8757C113.836 9.65315 113.702 9.45253 113.529 9.28878C113.356 9.12502 113.149 9.00235 112.922 8.92988C112.695 8.85742 112.455 8.83703 112.219 8.87024C111.718 8.88372 111.226 9.01098 110.781 9.24241C110.336 9.47383 109.95 9.80337 109.651 10.2061L108.276 8.5797C108.78 7.94397 109.424 7.4332 110.158 7.08724C110.891 6.74127 111.695 6.56946 112.506 6.5852C113.064 6.53207 113.628 6.60298 114.156 6.79285C114.683 6.98272 115.163 7.28686 115.56 7.68354C115.956 8.08021 116.26 8.55962 116.45 9.0875C116.64 9.61538 116.711 10.1787 116.658 10.7371V16.4821L116.655 16.4812ZM114.018 12.7395H111.946C111.082 12.7395 110.594 13.0732 110.594 13.7152C110.594 14.3571 111.142 14.7684 111.981 14.7684C112.242 14.7831 112.504 14.7446 112.75 14.655C112.996 14.5654 113.221 14.4266 113.412 14.2472C113.602 14.0677 113.754 13.8513 113.859 13.6112C113.963 13.3711 114.017 13.1122 114.018 12.8504L114.018 12.7395ZM124.66 9.11857H123.959C123.614 9.07843 123.264 9.1155 122.936 9.22707C122.607 9.33865 122.307 9.52195 122.058 9.7637C121.809 10.0054 121.616 10.2996 121.495 10.6248C121.373 10.95 121.326 11.2982 121.356 11.6441V16.4812H118.705V6.78936H121.137V7.94562C121.454 7.54357 121.858 7.21949 122.32 6.99828C122.782 6.77708 123.288 6.66465 123.8 6.66961C124.092 6.66186 124.385 6.70232 124.664 6.78936V9.11857H124.66Z" fill="white"/>
</g>
<defs>
<clipPath id="clip0_52_2664">
<rect width="125" height="20" fill="white"/>
</clipPath>
</defs>
</svg>
