<svg width="239" height="20" viewBox="0 0 239 20" fill="none" xmlns="http://www.w3.org/2000/svg">
<path d="M26.6706 5.41699H15.8356V19.5835H10.835V5.41699H0V0.416992H26.6706V5.41699V5.41699Z" fill="white"/>
<path d="M54.9959 13.5423C54.9959 16.8754 52.2873 19.5844 48.953 19.5844H34.0897C30.7562 19.5844 28.0469 16.8762 28.0469 13.5423V6.45904C28.0469 3.12598 30.7554 0.416992 34.0897 0.416992H48.953C52.2865 0.416992 54.9959 3.12515 54.9959 6.45904V13.5423V13.5423ZM49.9952 14.5835V5.41699H33.0476V14.5835H49.9952Z" fill="white"/>
<path d="M85.3637 19.5844H74.4939L64.4576 14.3758C63.068 13.647 62.0267 12.2576 61.8181 10.6256V19.5844H56.8174V0.416992H61.8181V9.237C62.0267 7.60496 63.068 6.21556 64.4576 5.48679L74.2512 0.416992H85.1211L66.5071 9.93087L85.3637 19.5844Z" fill="white"/>
<path d="M110.509 19.5844H89.6024C86.2681 19.5844 83.5596 16.8762 83.5596 13.5423V6.45904C83.5596 3.12598 86.2681 0.416992 89.6024 0.416992H110.509V5.41699H88.5603V7.50026H110.509V12.5003H88.5603V14.5835H110.509V19.5844Z" fill="white"/>
<path d="M139.89 0.41632V15C139.89 17.778 137.667 20 134.889 20C133.499 20 132.249 19.4449 131.347 18.5416L117.734 5V19.5837H112.733V5C112.733 2.22204 114.99 0 117.734 0C119.123 0 120.338 0.589995 121.276 1.49327L134.889 15.0008V0.41632H139.89Z" fill="white"/>
<path d="M175.453 19.5837H170.452V5L163.124 17.5345C162.256 18.9929 160.624 20 158.783 20C156.943 20 155.345 18.9929 154.478 17.5345L147.115 5V19.5837H142.114V5C142.114 2.22204 144.372 0 147.115 0C149.06 0 150.623 1.11102 151.56 2.67326L158.783 15L166.041 2.67326C166.944 1.11102 168.542 0 170.452 0C173.23 0 175.453 2.22204 175.453 5V19.5837V19.5837Z" fill="white"/>
<path d="M210.535 19.5837H204.179L201.471 15.9033H185.323L182.614 19.5837H176.259L189.038 2.46551C190.08 1.11102 191.573 0 193.414 0C195.22 0 196.748 1.11102 197.755 2.46551L210.535 19.5837ZM197.825 10.9024L193.379 4.79143L188.934 10.9024H197.825Z" fill="white"/>
<path d="M238.498 0.41632V15C238.498 17.778 236.276 20 233.497 20C232.108 20 230.858 19.4449 229.955 18.5416L216.342 5V19.5837H211.341V5C211.341 2.22204 213.599 0 216.342 0C217.732 0 218.947 0.589995 219.884 1.49327L233.497 15.0008V0.41632H238.498Z" fill="white"/>
</svg>
