<svg width="108" height="20" viewBox="0 0 108 20" fill="none" xmlns="http://www.w3.org/2000/svg">
<path d="M8.08885 0C3.51312 0 0 3.3853 0 7.88419C0 12.3608 3.51312 15.8129 8.08885 15.8129C12.6646 15.8129 16.1777 12.3608 16.1777 7.88419C16.1777 3.40757 12.6646 0 8.08885 0ZM8.13222 2.67261C10.908 2.67261 13.2067 4.94432 13.2067 7.88419C13.2067 10.8241 10.908 13.1403 8.13222 13.1403C5.33474 13.1403 2.97097 10.8241 2.97097 7.88419C2.97097 4.94432 5.31305 2.67261 8.13222 2.67261Z" fill="white"/>
<path d="M25.4505 3.67483C24.1494 3.67483 23.0678 4.08821 22.2607 4.84921C22.0199 5.0763 21.547 4.91538 21.547 4.57958V4.10052C21.547 3.91462 21.4003 3.76392 21.2192 3.76392H19.0556C18.8746 3.76392 18.7278 3.91462 18.7278 4.10052V19.6634C18.7278 19.8493 18.8746 20 19.0556 20H21.2192C21.4003 20 21.547 19.8493 21.547 19.6634V14.8613C21.547 14.5276 22.0108 14.368 22.2499 14.594C23.0698 15.3692 24.1637 15.7906 25.4938 15.7906C28.7901 15.7906 30.937 13.363 30.937 9.77728C30.937 6.12472 28.725 3.67483 25.4505 3.67483ZM24.8216 13.2962C22.8915 13.2962 21.547 11.8263 21.547 9.6882C21.547 7.59466 22.8915 6.10245 24.8216 6.10245C26.7299 6.10245 28.0745 7.59466 28.0745 9.6882C28.0745 11.804 26.7299 13.2962 24.8216 13.2962Z" fill="white"/>
<path d="M38.2162 3.67483C34.7464 3.67483 32.3176 6.12472 32.3176 9.75501C32.3176 13.3408 34.6814 15.7906 38.2812 15.7906C40.1973 15.7906 41.8068 15.1216 42.9477 13.9685C43.0707 13.8442 43.0677 13.6422 42.9482 13.5142L41.8772 12.3672C41.7489 12.2297 41.536 12.23 41.3968 12.3556C40.6046 13.0702 39.5976 13.4521 38.5198 13.4521C36.9678 13.4521 35.781 12.5897 35.311 11.1401C35.2447 10.9356 35.4011 10.735 35.611 10.735H43.4613C43.6338 10.735 43.7773 10.5968 43.7848 10.4198C43.9621 6.28148 42.1931 3.67483 38.2162 3.67483ZM35.5181 8.79733C35.3175 8.79733 35.1629 8.61307 35.2104 8.4129C35.5753 6.87724 36.6932 5.92428 38.2379 5.92428C39.8754 5.92428 40.9853 6.89209 41.1808 8.44877C41.2046 8.6381 41.0543 8.79733 40.8684 8.79733H35.5181Z" fill="white"/>
<path d="M53.1968 3.65256C51.8058 3.66898 50.6505 4.07279 49.8093 4.91755C49.5655 5.16234 49.0331 4.99901 49.0331 4.64886V4.10052C49.0331 3.91462 48.8863 3.76392 48.7053 3.76392H46.5416C46.3606 3.76392 46.2139 3.91462 46.2139 4.10052V15.3427C46.2139 15.5286 46.3606 15.6793 46.5416 15.6793H48.7053C48.8863 15.6793 49.0331 15.5286 49.0331 15.3427V9.82183C49.0331 7.86192 50.1607 6.41425 52.0691 6.39198C53.6738 6.39198 54.6497 7.41648 54.6497 9.08686V15.3427C54.6497 15.5286 54.7964 15.6793 54.9775 15.6793H57.1628C57.3438 15.6793 57.4906 15.5286 57.4906 15.3427V8.24054C57.4906 5.41203 55.8641 3.65256 53.1968 3.65256Z" fill="white"/>
<path d="M67.0761 0.089087H61.0932C60.9122 0.089087 60.7655 0.239788 60.7655 0.425687V15.3427C60.7655 15.5286 60.9122 15.6793 61.0932 15.6793H66.9676C71.6518 15.6793 74.9914 12.4276 74.9914 7.88419C74.9914 3.31849 71.6735 0.089087 67.0761 0.089087ZM67.1411 13.0512H63.9991C63.8181 13.0512 63.6714 12.9005 63.6714 12.7146V3.05375C63.6714 2.86785 63.8181 2.71715 63.9991 2.71715H67.0327C69.8736 2.71715 72.0205 4.85523 72.0205 7.90646C72.0205 10.9354 69.9386 13.0512 67.1411 13.0512Z" fill="white"/>
<path d="M88.306 15.4727C88.3571 15.5979 88.4763 15.6793 88.6083 15.6793H91.0141C91.2499 15.6793 91.4085 15.4312 91.3148 15.209L85.0277 0.291976C84.9758 0.168812 84.8576 0.089087 84.727 0.089087H82.142C82.0119 0.089087 81.8941 0.168125 81.8419 0.290494L75.4718 15.2075C75.3768 15.4299 75.5354 15.6793 75.7719 15.6793H78.0666C78.1987 15.6793 78.3179 15.5979 78.3689 15.4727L79.5449 12.5896C79.596 12.4645 79.7151 12.3831 79.8472 12.3831H86.8277C86.9598 12.3831 87.079 12.4645 87.13 12.5896L88.306 15.4727ZM81.164 9.82183C80.9296 9.82183 80.7709 9.57631 80.8621 9.35442L83.0547 4.01527C83.1677 3.74002 83.5479 3.74115 83.6594 4.01707L85.8167 9.35622C85.9063 9.57787 85.7477 9.82183 85.514 9.82183H81.164Z" fill="white"/>
<path d="M102.802 15.5376C102.863 15.6265 102.963 15.6793 103.069 15.6793H105.754C106.02 15.6793 106.175 15.3695 106.02 15.1468L95.6245 0.229785C95.563 0.141478 95.4638 0.089087 95.358 0.089087H92.7565C92.4903 0.089087 92.3351 0.397673 92.4892 0.620552L102.802 15.5376Z" fill="white"/>
<path d="M92.1456 15.1473C91.9907 15.3701 92.1457 15.6795 92.4123 15.6795H95.0099C95.1167 15.6795 95.2167 15.6261 95.2781 15.5364L105.465 0.644357C105.618 0.421319 105.463 0.114258 105.197 0.114258H102.767C102.661 0.114258 102.562 0.166769 102.5 0.255245L92.1456 15.1473Z" fill="white" fill-opacity="0.8"/>
<path d="M106.977 2.47874C107.21 2.91711 107.026 3.02951 106.833 3.02951H104.573C104.386 3.02951 104.105 2.97253 103.979 2.75412L102.622 0.663069C102.415 0.320246 102.472 0.112305 102.798 0.112305H105.128C105.335 0.112305 105.506 0.207845 105.613 0.387687L106.977 2.47874Z" fill="white"/>
<path d="M102.801 15.5608C102.863 15.6497 102.962 15.7025 103.069 15.7025H105.753C106.02 15.7025 106.175 15.3928 106.02 15.17L95.6241 0.253002C95.5626 0.164696 95.4633 0.112305 95.3576 0.112305H92.7561C92.4899 0.112305 92.3347 0.42089 92.4888 0.64377L102.801 15.5608Z" fill="white"/>
</svg>
