<svg width="74" height="21" viewBox="0 0 74 21" fill="none" xmlns="http://www.w3.org/2000/svg">
<path d="M11.179 9.57195L3.50903 13.382L11.179 17.0565V20.019L0.0066385 14.6681L0 11.7499L7.7735 7.89024L0.0066385 4.17143V1.20898L11.179 6.55989V9.57195Z" fill="white"/>
<path d="M0.00634766 1.20965L2.95908 0L14.1314 5.35091L11.1787 6.56056L0.00634766 1.20965Z" fill="white" fill-opacity="0.8"/>
<path d="M11.1792 9.5723L14.1319 8.36265V5.35059L11.1792 6.56024V9.5723Z" fill="white" fill-opacity="0.8"/>
<path d="M11.1792 17.0565V11.1343L14.1319 9.76367V18.8093L11.1792 20.0189V17.0565Z" fill="white" fill-opacity="0.8"/>
<g clip-path="url(#clip0_52_2777)">
<path d="M24.7135 13.8311H29.6826V15.2331H22.1426L27.2196 6.7594H22.9635V5.35742H29.7905L24.7135 13.8311Z" fill="white"/>
<path d="M33.0516 5.35742V15.2331H31.4961V5.35742H33.0516Z" fill="white"/>
<path d="M37.0927 5.35742V13.8311H40.1388V15.2331H35.5371V5.35742H37.0927Z" fill="white"/>
<path d="M43.1849 5.35742V13.8311H46.2311V15.2331H41.6294V5.35742H43.1849Z" fill="white"/>
<path d="M49.2548 5.35742V15.2331H47.6992V5.35742H49.2548Z" fill="white"/>
<path d="M62.2832 15.4187H60.3172L59.4963 14.6146C58.6537 15.1507 57.6383 15.4187 56.6229 15.4187C55.2834 15.4187 53.9655 14.9444 52.9717 14.0785C51.8267 13.1508 51.2002 11.7694 51.2434 10.3468C51.2002 8.94484 51.8051 7.5841 52.8853 6.61509C53.9007 5.68731 55.2402 5.17188 56.6445 5.17188C57.9407 5.17188 59.1938 5.62546 60.166 6.45015C61.419 7.46039 62.0456 8.7799 62.0456 10.4087C62.0456 11.6869 61.5055 12.9034 60.5765 13.8105L62.2832 15.4187ZM57.9839 11.3158L59.4747 12.7591C60.1444 12.0993 60.4901 11.2127 60.4685 10.3056C60.4901 9.31595 60.1012 8.34694 59.3666 7.64595C57.8544 6.22336 55.3914 6.22336 53.8791 7.64595C53.1662 8.36756 52.7773 9.33657 52.7989 10.3468C52.7773 11.3364 53.1877 12.2849 53.9223 12.9652C54.6137 13.625 55.5642 14.0167 56.5581 14.0167C57.2062 14.0373 57.8327 13.8724 58.3945 13.5837L55.9748 11.3158H57.9839Z" fill="white"/>
<path d="M70.0842 12.8419H65.6554L64.5103 15.2335H62.8252L67.9454 4.73926L72.8713 15.2335H71.1645L70.0842 12.8419ZM69.4577 11.4399L67.9238 8.07926L66.3035 11.4399H69.4577Z" fill="white"/>
</g>
<defs>
<clipPath id="clip0_52_2777">
<rect width="51" height="11" fill="white" transform="translate(22.1318 4.50977)"/>
</clipPath>
</defs>
</svg>
