<svg width="155" height="21" viewBox="0 0 155 21" fill="none" xmlns="http://www.w3.org/2000/svg">
<path d="M62.6534 4.09609C62.5404 4.09609 62.4487 4.00444 62.4487 3.8914V1.73399C62.4487 1.62094 62.5404 1.5293 62.6534 1.5293H78.5004C78.6134 1.5293 78.7051 1.62094 78.7051 1.73399V3.8914C78.7051 4.00444 78.6134 4.09609 78.5004 4.09609H72.3761C72.2631 4.09609 72.1714 4.18773 72.1714 4.30078V17.5032C72.1714 17.6162 72.0798 17.7078 71.9667 17.7078H69.0315C68.9185 17.7078 68.8268 17.6162 68.8268 17.5032V4.30077C68.8268 4.18773 68.7352 4.09609 68.6221 4.09609H62.6534Z" fill="white"/>
<path d="M135.93 1.73301C135.93 1.61996 136.022 1.52832 136.135 1.52832H149.726C149.839 1.52832 149.931 1.61996 149.931 1.73301V4.04598C149.931 4.15903 149.839 4.25067 149.726 4.25067H139.557C139.444 4.25067 139.353 4.34232 139.353 4.45536V7.70172C139.353 7.81476 139.444 7.9064 139.557 7.9064H148.948C149.061 7.9064 149.153 7.99805 149.153 8.11109V10.4241C149.153 10.5371 149.061 10.6288 148.948 10.6288H139.557C139.444 10.6288 139.353 10.7204 139.353 10.8334V14.702C139.353 14.8151 139.444 14.9067 139.557 14.9067H149.726C149.839 14.9067 149.931 14.9984 149.931 15.1114V17.5022C149.931 17.6152 149.839 17.7069 149.726 17.7069H136.135C136.022 17.7069 135.93 17.6152 135.93 17.5022V1.73301Z" fill="white"/>
<path d="M92.4503 4.09494H84.1876C84.0746 4.09494 83.9829 4.18658 83.9829 4.29963V17.502C83.9829 17.6151 83.8913 17.7067 83.7782 17.7067H80.7652C80.6522 17.7067 80.5605 17.6151 80.5605 17.502V1.73284C80.5605 1.61979 80.6522 1.52815 80.7652 1.52815H92.2169C92.2169 1.52815 97.5839 1.21702 97.8172 5.65057C97.9416 8.63478 95.7303 9.73063 94.8377 10.0503C94.6836 10.1055 94.6318 10.3137 94.7502 10.4266L101.022 16.4065C101.1 16.4814 101.107 16.6046 101.036 16.6873L99.5541 18.4289C99.4778 18.5185 99.3435 18.5271 99.2585 18.4458C98.2458 17.4772 92.5866 12.0638 91.6574 11.1577C90.6362 10.1619 90.2959 9.93679 90.2959 9.0126C90.2959 8.49787 91.3613 8.60627 91.3613 8.60627C91.3613 8.60627 94.7837 8.60627 94.7837 6.3506C94.8615 4.17272 92.4503 4.09494 92.4503 4.09494Z" fill="white"/>
<path d="M126.441 1.52832C125.033 1.52832 118.405 1.52832 117.155 1.52832C117.042 1.52832 116.951 1.61996 116.951 1.73301V17.58C116.951 17.693 117.04 17.7847 117.154 17.7847C117.962 17.7847 121.11 17.7847 125.118 17.7847C129.785 17.7847 133.752 16.0735 133.752 9.69538C133.752 1.99501 127.996 1.52832 126.441 1.52832ZM125.74 14.9845C123.349 14.9845 121.226 14.9845 120.577 14.9845C120.464 14.9845 120.374 14.8929 120.374 14.7798V4.2998C120.374 4.18675 120.464 4.09511 120.577 4.09511C121.236 4.09511 123.407 4.09511 125.74 4.09511C128.541 4.09511 130.33 5.8063 130.33 9.6176C130.33 12.8844 128.618 14.9845 125.74 14.9845Z" fill="white"/>
<path d="M108.37 1.65358C108.338 1.57768 108.264 1.52832 108.182 1.52832H105.103C105.024 1.52832 104.951 1.57417 104.918 1.64597L99.5921 12.982C99.5541 13.0628 99.5729 13.1589 99.6385 13.2195L101.659 15.0851C101.758 15.1759 101.915 15.1494 101.979 15.0313L102.737 13.6147C102.773 13.5482 102.842 13.5067 102.918 13.5067H109.895C109.976 13.5067 110.05 13.5549 110.082 13.6295L111.842 17.6618C111.875 17.7364 111.948 17.7847 112.03 17.7847H114.854C115.001 17.7847 115.1 17.6355 115.043 17.5005L108.37 1.65358ZM103.885 11.1773C103.737 11.1754 103.64 11.0231 103.701 10.8887L106.653 4.31927C106.672 4.27753 106.714 4.25067 106.759 4.25067C106.808 4.25067 106.851 4.28061 106.868 4.32585L109.378 10.97C109.429 11.105 109.328 11.249 109.184 11.2471L103.885 11.1773Z" fill="white"/>
<path d="M17.2436 2.84971C17.2474 2.8498 17.2488 2.84668 17.2488 2.84285V0.909167C17.2488 0.905398 17.2458 0.902344 17.242 0.902344C17.102 0.902344 14.8343 0.902344 13.1381 0.902344C8.79897 0.902344 5.06885 3.29925 5.06885 7.41894C5.06885 11.5386 5.06885 10.0406 5.06885 13.0367C5.06885 16.0328 6.89585 18.4297 12.3768 18.4297C17.8578 18.4297 15.6502 18.4297 19.0758 18.4297C22.5015 18.4297 23.9478 15.6583 23.9478 13.7108C23.9478 12.1757 23.9478 9.2138 23.9478 9.07209C23.9478 9.06832 23.9448 9.06682 23.941 9.06682H15.2003C15.1965 9.06682 15.1935 9.06987 15.1935 9.07364V11.0824C15.1935 11.0862 15.1965 11.0892 15.2003 11.0892H16.4876H21.8856C21.8894 11.0892 21.8925 11.0916 21.8925 11.0953C21.8925 11.1947 21.8925 12.4902 21.8925 13.7857C21.8925 15.134 20.979 16.4823 18.8475 16.4823C16.716 16.4823 13.8232 16.4823 12.5291 16.4823C10.7021 16.4823 7.0481 16.1826 7.0481 13.1116C7.0481 10.0406 7.0481 11.1641 7.0481 8.09307C7.0481 5.02203 8.79897 2.77493 12.7575 2.77493C13.976 2.77493 17.0985 2.84638 17.2436 2.84971Z" fill="white" stroke="white" stroke-width="0.682295" stroke-miterlimit="10"/>
<path d="M33.7122 9.46931L32.3225 10.8368C32.3197 10.8395 32.3198 10.844 32.3227 10.8466L41.6324 19.2587C41.6351 19.2612 41.6393 19.2611 41.6419 19.2585L43.0317 17.891C43.0345 17.8883 43.0344 17.8839 43.0315 17.8813L33.7218 9.46912C33.7191 9.46666 33.7149 9.46675 33.7122 9.46931Z" fill="white" stroke="white" stroke-width="0.682295" stroke-miterlimit="10"/>
<path d="M23.9412 6.595C23.9449 6.595 23.948 6.5921 23.948 6.58833C23.948 6.51899 23.948 5.92441 23.948 5.54636C23.948 4.19809 24.8615 2.84983 26.993 2.84983C27.9194 2.84983 30.4714 2.84983 31.1981 2.84983C32.9133 2.84983 37.5646 2.67877 37.5646 5.66153C37.5646 5.82945 37.5646 5.77182 37.5646 5.97562C37.5646 8.22272 36.2151 8.99869 32.2566 8.99869C31.9363 8.99869 31.5307 9.01834 31.475 9.02112C31.4713 9.0213 31.4687 9.02441 31.4688 9.02812L31.4953 9.88971C31.4953 9.8904 31.4952 9.89041 31.4955 9.89106C31.5028 9.91197 31.8878 10.9907 33.094 10.9907C36.4021 10.9907 39.62 10.0134 39.62 6.14201C39.62 5.61769 39.62 5.88026 39.62 5.54636C39.62 1.64087 37.1543 0.902344 32.5662 0.902344C30.6868 0.902344 28.3821 0.902344 26.8407 0.902344C23.339 0.902344 21.9688 3.67377 21.9688 5.62126C21.9688 6.08983 21.9688 6.52977 21.9688 6.58839C21.9688 6.59216 21.9718 6.595 21.9756 6.595H23.9412Z" fill="white" stroke="white" stroke-width="0.682295" stroke-miterlimit="10"/>
<path d="M50.8058 8.8035L49.416 10.171C49.4133 10.1736 49.4133 10.1779 49.416 10.1806L58.578 19.1956C58.5807 19.1982 58.5851 19.1982 58.5878 19.1956L59.9776 17.8281C59.9803 17.8255 59.9803 17.8212 59.9776 17.8185L50.8155 8.8035C50.8128 8.80086 50.8085 8.80086 50.8058 8.8035Z" fill="white" stroke="white" stroke-width="0.682295" stroke-miterlimit="10"/>
<path d="M48.5172 12.3752L47.1274 11.0077C47.1247 11.0051 47.1204 11.0051 47.1177 11.0077L43.377 14.6884C43.3743 14.6911 43.3743 14.6954 43.377 14.698L44.7668 16.0655C44.7694 16.0681 44.7738 16.0681 44.7765 16.0655L48.5172 12.3848C48.5199 12.3821 48.5199 12.3779 48.5172 12.3752Z" fill="white" stroke="white" stroke-width="0.682295" stroke-miterlimit="10"/>
<path d="M43.7413 1.83572L42.3515 3.20322C42.3489 3.20587 42.3489 3.21015 42.3515 3.21279L47.0924 7.87755C47.0951 7.8802 47.0994 7.8802 47.1021 7.87755L48.4919 6.51005C48.4946 6.50741 48.4946 6.50313 48.4919 6.50048L43.7511 1.83572C43.7484 1.83308 43.744 1.83308 43.7413 1.83572Z" fill="white" stroke="white" stroke-width="0.682295" stroke-miterlimit="10"/>
<path d="M56.9327 4.10666L55.5429 2.73916C55.5403 2.73652 55.5359 2.73652 55.5332 2.73916L48.7068 9.45604C48.7041 9.45869 48.7041 9.46297 48.7068 9.46561L50.0966 10.8331C50.0993 10.8358 50.1036 10.8358 50.1063 10.8331L56.9327 4.11623C56.9354 4.11359 56.9354 4.1093 56.9327 4.10666Z" fill="white" stroke="white" stroke-width="0.682295" stroke-miterlimit="10"/>
<path d="M55.4087 2.50814L57.5414 4.59554C57.5449 4.59893 57.5507 4.59773 57.5525 4.59325L59.2849 0.351082C59.2872 0.34547 59.2816 0.339879 59.276 0.3422L55.023 2.10442C55.0185 2.10627 55.0174 2.11207 55.0208 2.11552L55.4087 2.50814Z" fill="white" stroke="white" stroke-width="0.682295" stroke-miterlimit="10"/>
</svg>
