<svg width="137" height="20" viewBox="0 0 137 20" fill="none" xmlns="http://www.w3.org/2000/svg">
<path d="M7.77793 14.8996C6.29741 14.8996 4.96286 14.5817 3.78123 13.9459C2.59264 13.3102 1.66124 12.4325 0.987012 11.306C0.326687 10.1657 0 8.87341 0 7.44287C0 6.00542 0.326687 4.72692 0.987012 3.60046C1.66124 2.474 2.59264 1.59632 3.78123 0.960528C4.96981 0.324733 6.30436 0.00683594 7.77793 0.00683594C9.27235 0.00683594 10.6208 0.324733 11.8024 0.960528C12.991 1.59632 13.9085 2.474 14.5689 3.60046C15.2431 4.72692 15.5837 6.00542 15.5837 7.44287C15.5837 8.88032 15.2431 10.1657 14.5689 11.3129C13.9085 12.4394 12.991 13.3171 11.8024 13.9529C10.6208 14.5887 9.2793 14.8996 7.77793 14.8996ZM7.77793 11.9902C9.03602 11.9902 10.0786 11.5755 10.8988 10.7393C11.719 9.90312 12.1291 8.8043 12.1291 7.44287C12.1291 6.08144 11.719 4.98262 10.8988 4.14641C10.0786 3.31021 9.03602 2.89556 7.77793 2.89556C6.51984 2.89556 5.47722 3.31021 4.65703 4.14641C3.85074 4.98262 3.45454 6.08144 3.45454 7.44287C3.45454 8.8043 3.85769 9.90312 4.65703 10.7393C5.47722 11.5686 6.51984 11.9902 7.77793 11.9902Z" fill="white"/>
<path d="M26.5666 0.00683594C27.9916 0.00683594 29.2636 0.317823 30.3757 0.932885C31.5087 1.54795 32.3914 2.41871 33.0309 3.54517C33.6704 4.67164 33.9901 5.97087 33.9901 7.44287C33.9901 8.91487 33.6704 10.221 33.0309 11.3682C32.3914 12.4947 31.5087 13.3654 30.3757 13.9805C29.2636 14.5956 27.9916 14.9065 26.5666 14.9065C25.0236 14.9065 23.7307 14.5057 22.6881 13.7041C22.3823 13.4691 21.8818 13.6695 21.8818 14.0496V19.5852C21.8818 19.8132 21.6941 19.9998 21.4648 19.9998H18.8721C18.6427 19.9998 18.4551 19.8132 18.4551 19.5852V0.580433C18.4551 0.352377 18.6427 0.165785 18.8721 0.165785H21.298C21.5273 0.165785 21.715 0.352377 21.715 0.580433V0.905242C21.715 1.29225 22.2363 1.49266 22.5421 1.25078C22.9175 0.953617 23.3345 0.704828 23.7933 0.518236C24.6413 0.179606 25.5588 0.00683594 26.5666 0.00683594ZM26.1844 11.9902C27.4424 11.9902 28.4781 11.5755 29.2775 10.7393C30.0976 9.90312 30.5077 8.8043 30.5077 7.44287C30.5077 6.08144 30.0976 4.98262 29.2775 4.14641C28.4712 3.3102 27.4424 2.89556 26.1844 2.89556C25.3642 2.89556 24.6204 3.08906 23.9671 3.46915C23.3067 3.83543 22.7924 4.36065 22.4031 5.05173C22.0139 5.74281 21.8262 6.53756 21.8262 7.44978C21.8262 8.3551 22.0208 9.15675 22.4031 9.84783C22.7854 10.5389 23.3067 11.071 23.9671 11.4581C24.6204 11.8036 25.3572 11.9902 26.1844 11.9902Z" fill="white"/>
<path d="M51.6715 7.51889C51.6715 7.67784 51.6645 7.89207 51.6437 8.14777C51.6298 8.36201 51.449 8.52787 51.2336 8.52787H40.6406C40.3764 8.52787 40.1818 8.76284 40.2583 9.01163C40.5155 9.86166 40.9951 10.5527 41.704 11.0849C42.5659 11.6999 43.6225 12.0109 44.8806 12.0109C46.3263 12.0109 47.5358 11.5894 48.5228 10.7393C48.7035 10.5804 48.9885 10.5873 49.1483 10.7739L50.4551 12.2666C50.5871 12.4187 50.5941 12.6467 50.4551 12.7988C49.8365 13.4484 49.0858 13.9529 48.1961 14.3053C47.1882 14.7061 46.0622 14.9065 44.7971 14.9065C43.1915 14.9065 41.7736 14.5887 40.5502 13.9529C39.3269 13.3171 38.3746 12.4394 37.7004 11.3129C37.0401 10.1657 36.7134 8.88032 36.7134 7.44287C36.7134 6.02615 37.0331 4.75456 37.6726 3.6281C38.3329 2.48091 39.2365 1.59632 40.3834 0.960528C41.5372 0.324733 42.8301 0.00683594 44.2758 0.00683594C45.7007 0.00683594 46.9727 0.324733 48.0849 0.960528C49.2178 1.57559 50.0936 2.46017 50.7123 3.60046C51.3517 4.72692 51.6715 6.03307 51.6715 7.51889ZM44.2758 2.7297C43.1776 2.7297 42.2462 3.0545 41.4816 3.71103C40.8491 4.25008 40.4251 4.94807 40.2096 5.7981C40.1471 6.04689 40.3417 6.26803 40.5989 6.26803H47.9389C48.1891 6.26803 48.3907 6.04689 48.3281 5.7981C48.1266 4.95498 47.7095 4.25699 47.077 3.70412C46.3263 3.0545 45.388 2.7297 44.2758 2.7297Z" fill="white"/>
<path d="M63.2662 0.00683594C65.1081 0.00683594 66.5886 0.545879 67.7077 1.61706C68.8198 2.68823 69.3759 4.27772 69.3759 6.38552V14.3053C69.3759 14.5334 69.1882 14.72 68.9589 14.72H66.3662C66.1368 14.72 65.9492 14.5334 65.9492 14.3053V6.81399C65.9492 5.5424 65.6503 4.58871 65.0456 3.95291C64.4408 3.29638 63.5859 2.97157 62.4738 2.97157C61.2157 2.97157 60.2148 3.35167 59.4849 4.11877C58.7551 4.85823 58.3867 5.94322 58.3867 7.35994V14.2984C58.3867 14.5265 58.199 14.713 57.9697 14.713H55.377C55.1476 14.713 54.96 14.5265 54.96 14.2984V0.580433C54.96 0.352377 55.1476 0.165785 55.377 0.165785H57.8028C58.0322 0.165785 58.2199 0.352377 58.2199 0.580433V0.905242C58.2199 1.29225 58.7342 1.49266 59.047 1.25769C59.4363 0.960528 59.8742 0.711739 60.3607 0.518236C61.2226 0.179606 62.1888 0.00683594 63.2662 0.00683594Z" fill="white"/>
<path d="M101.252 0.00683594C103.407 0.00683594 105.054 0.525147 106.18 1.56177C107.334 2.57766 107.904 4.11877 107.904 6.19201V14.3053C107.904 14.5334 107.717 14.72 107.487 14.72H105.082C104.853 14.72 104.672 14.5403 104.672 14.3122C104.672 13.9045 104.06 13.6902 103.727 13.9252C103.47 14.1118 103.178 14.2777 102.865 14.4159C102.1 14.7407 101.169 14.9065 100.071 14.9065C98.9724 14.9065 98.0132 14.7269 97.193 14.3606C96.3728 13.9805 95.7333 13.4622 95.2746 12.8057C94.8367 12.1353 94.6143 11.382 94.6143 10.5458C94.6143 9.23968 95.1008 8.19615 96.067 7.41523C97.054 6.61357 98.5971 6.21966 100.696 6.21966H104.255C104.373 6.21966 104.477 6.12291 104.477 5.99851C104.477 4.98262 104.165 4.2017 103.546 3.65575C102.941 3.10979 102.038 2.84027 100.835 2.84027C100.015 2.84027 99.2018 2.96466 98.3955 3.22036C97.7977 3.41387 97.2625 3.66957 96.8038 3.98055C96.5883 4.12568 96.2755 4.07039 96.1573 3.83543L95.2259 2.11463C95.1286 1.93495 95.1773 1.71381 95.3441 1.59632C96.0531 1.11257 96.8802 0.739382 97.8255 0.46986C98.9029 0.158874 100.043 0.00683594 101.252 0.00683594ZM100.78 12.4256C101.642 12.4256 102.399 12.2321 103.053 11.852C103.706 11.465 104.172 10.9259 104.45 10.2348C104.47 10.1865 104.477 10.1381 104.477 10.0897V8.89414C104.477 8.66608 104.29 8.47949 104.06 8.47949H100.946C98.9724 8.47949 97.9854 9.1222 97.9854 10.4145C97.9854 11.0296 98.2356 11.5203 98.7222 11.8865C99.2226 12.2459 99.9038 12.4256 100.78 12.4256Z" fill="white"/>
<path d="M115.014 0.877784C115.014 1.29243 115.633 1.49976 115.952 1.23715C116.891 0.476957 118.17 0.0692192 119.803 0.00702192C120.032 0.000111111 120.22 0.186703 120.22 0.41476V2.7437C120.22 3.00631 119.984 3.19982 119.72 3.17217C119.615 3.16526 119.518 3.15835 119.421 3.15835C118.086 3.15835 117.044 3.54536 116.3 4.32628C115.549 5.08647 115.174 6.19911 115.174 7.65038V14.2917C115.174 14.5197 114.986 14.7063 114.757 14.7063H112.164C111.935 14.7063 111.747 14.5197 111.747 14.2917V0.580619C111.747 0.352563 111.935 0.165971 112.164 0.165971H114.59C114.819 0.165971 115.007 0.352563 115.007 0.580619V0.877784H115.014Z" fill="white"/>
<path d="M136.999 7.51889C136.999 7.67784 136.992 7.89207 136.971 8.14777C136.957 8.36201 136.777 8.52787 136.561 8.52787H125.968C125.704 8.52787 125.509 8.76284 125.586 9.01163C125.843 9.86166 126.323 10.5527 127.032 11.0849C127.887 11.6999 128.95 12.0109 130.208 12.0109C131.654 12.0109 132.863 11.5894 133.85 10.7393C134.031 10.5804 134.316 10.5873 134.476 10.7739L135.783 12.2666C135.915 12.4187 135.922 12.6467 135.783 12.7988C135.164 13.4484 134.413 13.9529 133.524 14.3053C132.523 14.7061 131.39 14.9065 130.125 14.9065C128.519 14.9065 127.101 14.5887 125.878 13.9529C124.655 13.3171 123.702 12.4394 123.028 11.3129C122.368 10.1657 122.041 8.88032 122.041 7.44287C122.041 6.02615 122.361 4.75456 123 3.6281C123.661 2.48091 124.564 1.59632 125.711 0.960528C126.865 0.324733 128.158 0.00683594 129.603 0.00683594C131.028 0.00683594 132.3 0.324733 133.412 0.960528C134.545 1.57559 135.421 2.46017 136.04 3.60046C136.679 4.72692 136.999 6.03307 136.999 7.51889ZM129.603 2.7297C128.505 2.7297 127.574 3.0545 126.809 3.71103C126.177 4.25008 125.753 4.94807 125.537 5.7981C125.475 6.04689 125.669 6.26803 125.926 6.26803H133.26C133.51 6.26803 133.711 6.04689 133.649 5.7981C133.447 4.95498 133.03 4.25699 132.398 3.70412C131.647 3.0545 130.716 2.7297 129.603 2.7297Z" fill="white"/>
<path d="M87.6 0.214235C87.7529 0.00691081 87.9127 0 88.1352 0L90.6861 0.0138216C91.0267 0.0138216 91.3951 0.331719 91.2769 0.670349L81.7821 14.2985C81.511 14.6647 81.1844 14.6302 80.9619 14.6302L78.2511 14.6164C78.0495 14.6164 77.7924 14.2916 78.0078 13.9806L87.6 0.214235Z" fill="#D9D9D9"/>
<path d="M81.5607 13.9598C81.7414 14.3952 81.6232 14.6371 81.4286 14.6371H78.259C78.0505 14.6371 77.8698 14.4989 77.8003 14.2985L71.4472 0.67726C71.336 0.33863 71.5793 0 71.906 0H74.6238C74.8323 0 75.013 0.138216 75.0964 0.33863L81.5607 13.9598Z" fill="white"/>
<path d="M89.9497 13.9598C90.1305 14.3952 90.0123 14.6371 89.8177 14.6371H86.4674C86.2728 14.6371 86.0782 14.4989 86.0087 14.2985L79.4332 0.67726C79.3151 0.33863 79.5444 0 79.892 0H82.7974C83.0129 0 83.1866 0.138216 83.2561 0.33863L89.9497 13.9598Z" fill="white"/>
<path d="M92.8971 3.18588C93.1403 3.72493 92.8345 3.86314 92.6329 3.86314H89.8804C89.6858 3.86314 89.3591 3.74566 89.2618 3.52451L87.677 0.67726C87.4615 0.2557 87.6283 0 87.9689 0H90.6867C90.9022 0 91.1941 0.117484 91.3053 0.33863L92.8971 3.18588Z" fill="white"/>
</svg>
