<svg width="83" height="22" viewBox="0 0 83 22" fill="none" xmlns="http://www.w3.org/2000/svg">
<mask id="path-1-outside-1_52_2972" maskUnits="userSpaceOnUse" x="-0.399902" y="-0.400391" width="83" height="22" fill="black">
<rect fill="white" x="-0.399902" y="-0.400391" width="83" height="22"/>
<path d="M7.39896 3.723C7.39896 3.35916 7.10401 3.0642 6.74016 3.0642H1.2589C0.895054 3.0642 0.600098 2.76924 0.600098 2.40539V1.25841C0.600098 0.894567 0.895055 0.599609 1.2589 0.599609H16.3436C16.7074 0.599609 17.0024 0.894566 17.0024 1.25841V2.40539C17.0024 2.76924 16.7074 3.0642 16.3436 3.0642H10.8623C10.4985 3.0642 10.2035 3.35916 10.2035 3.723V19.7708C10.2035 20.1347 9.90854 20.4296 9.54469 20.4296H8.05777C7.69392 20.4296 7.39896 20.1347 7.39896 19.7708V3.723Z"/>
<path d="M23.4394 20.5996C21.9474 20.5996 20.6065 20.2691 19.4167 19.6081C18.2269 18.9471 17.2921 18.0406 16.6122 16.8886C15.9512 15.7176 15.6207 14.3956 15.6207 12.9226C15.6207 11.4495 15.9512 10.1369 16.6122 8.98488C17.2921 7.81396 18.2269 6.90745 19.4167 6.26533C20.6065 5.60433 21.9474 5.27383 23.4394 5.27383C24.9313 5.27383 26.2628 5.60433 27.4337 6.26533C28.6235 6.90745 29.5489 7.81396 30.2099 8.98488C30.8898 10.1369 31.2297 11.4495 31.2297 12.9226C31.2297 14.3956 30.8898 15.7176 30.2099 16.8886C29.5489 18.0406 28.6235 18.9471 27.4337 19.6081C26.2628 20.2691 24.9313 20.5996 23.4394 20.5996ZM23.4394 18.22C24.4025 18.22 25.2618 18.0028 26.0173 17.5684C26.7916 17.1152 27.3959 16.492 27.8303 15.6988C28.2647 14.8867 28.4819 13.9613 28.4819 12.9226C28.4819 11.8838 28.2647 10.9679 27.8303 10.1747C27.3959 9.36259 26.7916 8.73936 26.0173 8.30499C25.2618 7.87062 24.4025 7.65343 23.4394 7.65343C22.4762 7.65343 21.6075 7.87062 20.8331 8.30499C20.0777 8.73936 19.4734 9.36259 19.0201 10.1747C18.5857 10.9679 18.3686 11.8838 18.3686 12.9226C18.3686 13.9613 18.5857 14.8867 19.0201 15.6988C19.4734 16.492 20.0777 17.1152 20.8331 17.5684C21.6075 18.0028 22.4762 18.22 23.4394 18.22Z"/>
<path d="M55.2128 5.41547C55.6725 5.41547 55.9908 5.87427 55.83 6.30483L50.7132 20.0014C50.6169 20.2589 50.3709 20.4296 50.096 20.4296H48.4011C48.1277 20.4296 47.8827 20.2607 47.7854 20.0052L44.2244 10.6488C44.0095 10.0842 43.2113 10.0824 42.994 10.6461L39.3844 20.0078C39.2864 20.262 39.0421 20.4296 38.7697 20.4296H37.0735C36.7981 20.4296 36.5519 20.2584 36.4559 20.0004L31.365 6.30381C31.205 5.87341 31.5233 5.41547 31.9825 5.41547H33.1518C33.4285 5.41547 33.6758 5.58844 33.7707 5.84843L37.3682 15.7066C37.5775 16.28 38.3867 16.2851 38.6031 15.7143L42.3466 5.84072C42.4437 5.58475 42.6889 5.41547 42.9626 5.41547H44.3439C44.6195 5.41547 44.866 5.58705 44.9617 5.84551L48.6342 15.7636C48.8463 16.3364 49.6561 16.3372 49.8694 15.7649L53.5662 5.84423C53.6623 5.58643 53.9084 5.41547 54.1835 5.41547H55.2128Z"/>
<path d="M70.9431 13.0075C70.9431 13.078 70.941 13.156 70.9366 13.2416C70.9196 13.5769 70.6325 13.8291 70.2968 13.8291H59.4541C59.0569 13.8291 58.746 14.1799 58.8483 14.5637C59.1118 15.5522 59.6401 16.3743 60.4332 17.0302C61.4342 17.8234 62.6712 18.22 64.1443 18.22C65.6591 18.22 66.9248 17.7892 67.9415 16.9276C68.2444 16.6709 68.7069 16.6741 68.9649 16.9759L69.6135 17.7347C69.8244 17.9814 69.8268 18.348 69.5947 18.5749C68.9873 19.1688 68.2659 19.636 67.4304 19.9764C66.4294 20.3919 65.3057 20.5996 64.0593 20.5996C62.4729 20.5996 61.0659 20.2786 59.8383 19.6364C58.6107 18.9754 57.657 18.0595 56.9771 16.8886C56.3161 15.7176 55.9856 14.3956 55.9856 12.9226C55.9856 11.4684 56.3067 10.1558 56.9488 8.98488C57.6098 7.81396 58.5069 6.90745 59.64 6.26533C60.792 5.60433 62.0857 5.27383 63.521 5.27383C64.9563 5.27383 66.2311 5.60433 67.3454 6.26533C68.4785 6.90745 69.3567 7.81396 69.98 8.98488C70.6221 10.1558 70.9431 11.4967 70.9431 13.0075ZM63.521 7.56845C62.2179 7.56845 61.1225 7.96505 60.2349 8.75825C59.5369 9.39553 59.0706 10.1913 58.8359 11.1455C58.7417 11.5285 59.0517 11.8744 59.446 11.8744H67.5948C67.9896 11.8744 68.2998 11.5276 68.2024 11.145C67.9638 10.2076 67.4893 9.42147 66.7788 8.78658C65.9101 7.97449 64.8241 7.56845 63.521 7.56845Z"/>
<path d="M76.1926 5.92645C76.1926 6.45624 77.0735 6.74563 77.4995 6.43072C77.7412 6.25208 78.0043 6.09308 78.2889 5.95372C79.0566 5.5777 79.9608 5.35765 81.0014 5.29357C81.3646 5.27121 81.66 5.56879 81.66 5.93264V7.28416C81.66 7.61562 81.3682 7.88006 81.0367 7.88006C79.5637 7.88006 78.4022 8.32388 77.5523 9.21151C76.7214 10.0803 76.3059 11.3267 76.3059 12.9509V19.7708C76.3059 20.1347 76.0109 20.4296 75.6471 20.4296H74.2451C73.8813 20.4296 73.5863 20.1347 73.5863 19.7708V6.07428C73.5863 5.71043 73.8813 5.41547 74.2451 5.41547H75.6816C75.9638 5.41547 76.1926 5.64425 76.1926 5.92645Z"/>
</mask>
<path d="M7.39896 3.723C7.39896 3.35916 7.10401 3.0642 6.74016 3.0642H1.2589C0.895054 3.0642 0.600098 2.76924 0.600098 2.40539V1.25841C0.600098 0.894567 0.895055 0.599609 1.2589 0.599609H16.3436C16.7074 0.599609 17.0024 0.894566 17.0024 1.25841V2.40539C17.0024 2.76924 16.7074 3.0642 16.3436 3.0642H10.8623C10.4985 3.0642 10.2035 3.35916 10.2035 3.723V19.7708C10.2035 20.1347 9.90854 20.4296 9.54469 20.4296H8.05777C7.69392 20.4296 7.39896 20.1347 7.39896 19.7708V3.723Z" fill="white"/>
<path d="M23.4394 20.5996C21.9474 20.5996 20.6065 20.2691 19.4167 19.6081C18.2269 18.9471 17.2921 18.0406 16.6122 16.8886C15.9512 15.7176 15.6207 14.3956 15.6207 12.9226C15.6207 11.4495 15.9512 10.1369 16.6122 8.98488C17.2921 7.81396 18.2269 6.90745 19.4167 6.26533C20.6065 5.60433 21.9474 5.27383 23.4394 5.27383C24.9313 5.27383 26.2628 5.60433 27.4337 6.26533C28.6235 6.90745 29.5489 7.81396 30.2099 8.98488C30.8898 10.1369 31.2297 11.4495 31.2297 12.9226C31.2297 14.3956 30.8898 15.7176 30.2099 16.8886C29.5489 18.0406 28.6235 18.9471 27.4337 19.6081C26.2628 20.2691 24.9313 20.5996 23.4394 20.5996ZM23.4394 18.22C24.4025 18.22 25.2618 18.0028 26.0173 17.5684C26.7916 17.1152 27.3959 16.492 27.8303 15.6988C28.2647 14.8867 28.4819 13.9613 28.4819 12.9226C28.4819 11.8838 28.2647 10.9679 27.8303 10.1747C27.3959 9.36259 26.7916 8.73936 26.0173 8.30499C25.2618 7.87062 24.4025 7.65343 23.4394 7.65343C22.4762 7.65343 21.6075 7.87062 20.8331 8.30499C20.0777 8.73936 19.4734 9.36259 19.0201 10.1747C18.5857 10.9679 18.3686 11.8838 18.3686 12.9226C18.3686 13.9613 18.5857 14.8867 19.0201 15.6988C19.4734 16.492 20.0777 17.1152 20.8331 17.5684C21.6075 18.0028 22.4762 18.22 23.4394 18.22Z" fill="white"/>
<path d="M55.2128 5.41547C55.6725 5.41547 55.9908 5.87427 55.83 6.30483L50.7132 20.0014C50.6169 20.2589 50.3709 20.4296 50.096 20.4296H48.4011C48.1277 20.4296 47.8827 20.2607 47.7854 20.0052L44.2244 10.6488C44.0095 10.0842 43.2113 10.0824 42.994 10.6461L39.3844 20.0078C39.2864 20.262 39.0421 20.4296 38.7697 20.4296H37.0735C36.7981 20.4296 36.5519 20.2584 36.4559 20.0004L31.365 6.30381C31.205 5.87341 31.5233 5.41547 31.9825 5.41547H33.1518C33.4285 5.41547 33.6758 5.58844 33.7707 5.84843L37.3682 15.7066C37.5775 16.28 38.3867 16.2851 38.6031 15.7143L42.3466 5.84072C42.4437 5.58475 42.6889 5.41547 42.9626 5.41547H44.3439C44.6195 5.41547 44.866 5.58705 44.9617 5.84551L48.6342 15.7636C48.8463 16.3364 49.6561 16.3372 49.8694 15.7649L53.5662 5.84423C53.6623 5.58643 53.9084 5.41547 54.1835 5.41547H55.2128Z" fill="white"/>
<path d="M70.9431 13.0075C70.9431 13.078 70.941 13.156 70.9366 13.2416C70.9196 13.5769 70.6325 13.8291 70.2968 13.8291H59.4541C59.0569 13.8291 58.746 14.1799 58.8483 14.5637C59.1118 15.5522 59.6401 16.3743 60.4332 17.0302C61.4342 17.8234 62.6712 18.22 64.1443 18.22C65.6591 18.22 66.9248 17.7892 67.9415 16.9276C68.2444 16.6709 68.7069 16.6741 68.9649 16.9759L69.6135 17.7347C69.8244 17.9814 69.8268 18.348 69.5947 18.5749C68.9873 19.1688 68.2659 19.636 67.4304 19.9764C66.4294 20.3919 65.3057 20.5996 64.0593 20.5996C62.4729 20.5996 61.0659 20.2786 59.8383 19.6364C58.6107 18.9754 57.657 18.0595 56.9771 16.8886C56.3161 15.7176 55.9856 14.3956 55.9856 12.9226C55.9856 11.4684 56.3067 10.1558 56.9488 8.98488C57.6098 7.81396 58.5069 6.90745 59.64 6.26533C60.792 5.60433 62.0857 5.27383 63.521 5.27383C64.9563 5.27383 66.2311 5.60433 67.3454 6.26533C68.4785 6.90745 69.3567 7.81396 69.98 8.98488C70.6221 10.1558 70.9431 11.4967 70.9431 13.0075ZM63.521 7.56845C62.2179 7.56845 61.1225 7.96505 60.2349 8.75825C59.5369 9.39553 59.0706 10.1913 58.8359 11.1455C58.7417 11.5285 59.0517 11.8744 59.446 11.8744H67.5948C67.9896 11.8744 68.2998 11.5276 68.2024 11.145C67.9638 10.2076 67.4893 9.42147 66.7788 8.78658C65.9101 7.97449 64.8241 7.56845 63.521 7.56845Z" fill="white"/>
<path d="M76.1926 5.92645C76.1926 6.45624 77.0735 6.74563 77.4995 6.43072C77.7412 6.25208 78.0043 6.09308 78.2889 5.95372C79.0566 5.5777 79.9608 5.35765 81.0014 5.29357C81.3646 5.27121 81.66 5.56879 81.66 5.93264V7.28416C81.66 7.61562 81.3682 7.88006 81.0367 7.88006C79.5637 7.88006 78.4022 8.32388 77.5523 9.21151C76.7214 10.0803 76.3059 11.3267 76.3059 12.9509V19.7708C76.3059 20.1347 76.0109 20.4296 75.6471 20.4296H74.2451C73.8813 20.4296 73.5863 20.1347 73.5863 19.7708V6.07428C73.5863 5.71043 73.8813 5.41547 74.2451 5.41547H75.6816C75.9638 5.41547 76.1926 5.64425 76.1926 5.92645Z" fill="white"/>
<path d="M7.39896 3.723C7.39896 3.35916 7.10401 3.0642 6.74016 3.0642H1.2589C0.895054 3.0642 0.600098 2.76924 0.600098 2.40539V1.25841C0.600098 0.894567 0.895055 0.599609 1.2589 0.599609H16.3436C16.7074 0.599609 17.0024 0.894566 17.0024 1.25841V2.40539C17.0024 2.76924 16.7074 3.0642 16.3436 3.0642H10.8623C10.4985 3.0642 10.2035 3.35916 10.2035 3.723V19.7708C10.2035 20.1347 9.90854 20.4296 9.54469 20.4296H8.05777C7.69392 20.4296 7.39896 20.1347 7.39896 19.7708V3.723Z" stroke="#605D5D" stroke-width="1.2" mask="url(#path-1-outside-1_52_2972)"/>
<path d="M23.4394 20.5996C21.9474 20.5996 20.6065 20.2691 19.4167 19.6081C18.2269 18.9471 17.2921 18.0406 16.6122 16.8886C15.9512 15.7176 15.6207 14.3956 15.6207 12.9226C15.6207 11.4495 15.9512 10.1369 16.6122 8.98488C17.2921 7.81396 18.2269 6.90745 19.4167 6.26533C20.6065 5.60433 21.9474 5.27383 23.4394 5.27383C24.9313 5.27383 26.2628 5.60433 27.4337 6.26533C28.6235 6.90745 29.5489 7.81396 30.2099 8.98488C30.8898 10.1369 31.2297 11.4495 31.2297 12.9226C31.2297 14.3956 30.8898 15.7176 30.2099 16.8886C29.5489 18.0406 28.6235 18.9471 27.4337 19.6081C26.2628 20.2691 24.9313 20.5996 23.4394 20.5996ZM23.4394 18.22C24.4025 18.22 25.2618 18.0028 26.0173 17.5684C26.7916 17.1152 27.3959 16.492 27.8303 15.6988C28.2647 14.8867 28.4819 13.9613 28.4819 12.9226C28.4819 11.8838 28.2647 10.9679 27.8303 10.1747C27.3959 9.36259 26.7916 8.73936 26.0173 8.30499C25.2618 7.87062 24.4025 7.65343 23.4394 7.65343C22.4762 7.65343 21.6075 7.87062 20.8331 8.30499C20.0777 8.73936 19.4734 9.36259 19.0201 10.1747C18.5857 10.9679 18.3686 11.8838 18.3686 12.9226C18.3686 13.9613 18.5857 14.8867 19.0201 15.6988C19.4734 16.492 20.0777 17.1152 20.8331 17.5684C21.6075 18.0028 22.4762 18.22 23.4394 18.22Z" stroke="#605D5D" stroke-width="1.2" mask="url(#path-1-outside-1_52_2972)"/>
<path d="M55.2128 5.41547C55.6725 5.41547 55.9908 5.87427 55.83 6.30483L50.7132 20.0014C50.6169 20.2589 50.3709 20.4296 50.096 20.4296H48.4011C48.1277 20.4296 47.8827 20.2607 47.7854 20.0052L44.2244 10.6488C44.0095 10.0842 43.2113 10.0824 42.994 10.6461L39.3844 20.0078C39.2864 20.262 39.0421 20.4296 38.7697 20.4296H37.0735C36.7981 20.4296 36.5519 20.2584 36.4559 20.0004L31.365 6.30381C31.205 5.87341 31.5233 5.41547 31.9825 5.41547H33.1518C33.4285 5.41547 33.6758 5.58844 33.7707 5.84843L37.3682 15.7066C37.5775 16.28 38.3867 16.2851 38.6031 15.7143L42.3466 5.84072C42.4437 5.58475 42.6889 5.41547 42.9626 5.41547H44.3439C44.6195 5.41547 44.866 5.58705 44.9617 5.84551L48.6342 15.7636C48.8463 16.3364 49.6561 16.3372 49.8694 15.7649L53.5662 5.84423C53.6623 5.58643 53.9084 5.41547 54.1835 5.41547H55.2128Z" stroke="#605D5D" stroke-width="1.2" mask="url(#path-1-outside-1_52_2972)"/>
<path d="M70.9431 13.0075C70.9431 13.078 70.941 13.156 70.9366 13.2416C70.9196 13.5769 70.6325 13.8291 70.2968 13.8291H59.4541C59.0569 13.8291 58.746 14.1799 58.8483 14.5637C59.1118 15.5522 59.6401 16.3743 60.4332 17.0302C61.4342 17.8234 62.6712 18.22 64.1443 18.22C65.6591 18.22 66.9248 17.7892 67.9415 16.9276C68.2444 16.6709 68.7069 16.6741 68.9649 16.9759L69.6135 17.7347C69.8244 17.9814 69.8268 18.348 69.5947 18.5749C68.9873 19.1688 68.2659 19.636 67.4304 19.9764C66.4294 20.3919 65.3057 20.5996 64.0593 20.5996C62.4729 20.5996 61.0659 20.2786 59.8383 19.6364C58.6107 18.9754 57.657 18.0595 56.9771 16.8886C56.3161 15.7176 55.9856 14.3956 55.9856 12.9226C55.9856 11.4684 56.3067 10.1558 56.9488 8.98488C57.6098 7.81396 58.5069 6.90745 59.64 6.26533C60.792 5.60433 62.0857 5.27383 63.521 5.27383C64.9563 5.27383 66.2311 5.60433 67.3454 6.26533C68.4785 6.90745 69.3567 7.81396 69.98 8.98488C70.6221 10.1558 70.9431 11.4967 70.9431 13.0075ZM63.521 7.56845C62.2179 7.56845 61.1225 7.96505 60.2349 8.75825C59.5369 9.39553 59.0706 10.1913 58.8359 11.1455C58.7417 11.5285 59.0517 11.8744 59.446 11.8744H67.5948C67.9896 11.8744 68.2998 11.5276 68.2024 11.145C67.9638 10.2076 67.4893 9.42147 66.7788 8.78658C65.9101 7.97449 64.8241 7.56845 63.521 7.56845Z" stroke="#605D5D" stroke-width="1.2" mask="url(#path-1-outside-1_52_2972)"/>
<path d="M76.1926 5.92645C76.1926 6.45624 77.0735 6.74563 77.4995 6.43072C77.7412 6.25208 78.0043 6.09308 78.2889 5.95372C79.0566 5.5777 79.9608 5.35765 81.0014 5.29357C81.3646 5.27121 81.66 5.56879 81.66 5.93264V7.28416C81.66 7.61562 81.3682 7.88006 81.0367 7.88006C79.5637 7.88006 78.4022 8.32388 77.5523 9.21151C76.7214 10.0803 76.3059 11.3267 76.3059 12.9509V19.7708C76.3059 20.1347 76.0109 20.4296 75.6471 20.4296H74.2451C73.8813 20.4296 73.5863 20.1347 73.5863 19.7708V6.07428C73.5863 5.71043 73.8813 5.41547 74.2451 5.41547H75.6816C75.9638 5.41547 76.1926 5.64425 76.1926 5.92645Z" stroke="#605D5D" stroke-width="1.2" mask="url(#path-1-outside-1_52_2972)"/>
</svg>
