<svg width="110" height="18" viewBox="0 0 110 18" fill="none" xmlns="http://www.w3.org/2000/svg">
<g clip-path="url(#clip0_68_3185)">
<path d="M50.9937 7.2475C49.3631 7.2475 48.2065 8.51045 48.2065 10.4491V17.5606H45.7173V5.04324H48.1767V6.57176C48.48 6.06515 48.9147 5.64807 49.4357 5.36374C49.9567 5.07942 50.5451 4.9382 51.1398 4.95471H52.0341V7.2475H50.9937ZM43.9973 11.3019C43.9973 7.56914 41.3143 4.77767 37.6834 4.77767C36.8255 4.78343 35.9773 4.95705 35.1874 5.28853C34.3976 5.62002 33.6817 6.10282 33.0811 6.70918C32.4804 7.31553 32.0068 8.03346 31.6875 8.82166C31.3682 9.60986 31.2095 10.4528 31.2206 11.3019C31.2206 15.0318 34.1271 17.8527 37.9189 17.8527C38.9781 17.8726 40.0266 17.64 40.976 17.1747C41.9254 16.7095 42.7479 16.0251 43.3742 15.1793L41.5677 13.8691C41.1533 14.4417 40.6049 14.9064 39.9694 15.2235C39.334 15.5405 38.6304 15.7005 37.9189 15.6898C36.9056 15.6851 35.9274 15.3211 35.1618 14.664C34.3962 14.0068 33.8937 13.0998 33.7455 12.1075H44.0032L43.9973 11.3019ZM33.7992 10.1541C34.2433 8.24488 35.7845 6.95242 37.6536 6.95242C39.5227 6.95242 41.0609 8.24488 41.4783 10.1541H33.7992ZM23.3357 4.77767C22.5039 4.77836 21.6804 4.94222 20.9129 5.25978C20.1454 5.57735 19.4491 6.04232 18.8642 6.62783V0.369141H16.375V17.5606H18.8344V15.9731C20.0258 17.1661 21.647 17.8422 23.3417 17.8527C24.2208 17.8712 25.0948 17.7158 25.9125 17.3956C26.7301 17.0753 27.4749 16.5967 28.1033 15.9878C28.7316 15.3789 29.2308 14.652 29.5716 13.8496C29.9124 13.0473 30.088 12.1856 30.088 11.3152C30.088 10.4448 29.9124 9.58315 29.5716 8.78078C29.2308 7.97842 28.7316 7.25147 28.1033 6.64257C27.4749 6.03367 26.7301 5.55508 25.9125 5.23484C25.0948 4.91461 24.2208 4.75918 23.3417 4.77767H23.3357ZM23.1569 15.6514C22.2893 15.6555 21.44 15.4044 20.7168 14.9299C19.9935 14.4555 19.429 13.779 19.0948 12.9865C18.7606 12.1939 18.6718 11.3209 18.8396 10.4783C19.0074 9.63568 19.4243 8.8614 20.0374 8.25369C20.6505 7.64599 21.4321 7.23225 22.2831 7.06498C23.1342 6.89772 24.0162 6.98445 24.8173 7.31419C25.6185 7.64393 26.3026 8.2018 26.7829 8.91703C27.2632 9.63226 27.5181 10.4726 27.5151 11.3314C27.5159 11.8979 27.4037 12.459 27.1849 12.9824C26.9661 13.5058 26.645 13.9813 26.24 14.3816C25.8351 14.7819 25.3543 15.0991 24.8252 15.315C24.2961 15.5309 23.7291 15.6412 23.1569 15.6396V15.6514ZM7.20837 15.5334C9.61108 15.5334 11.4772 13.7098 11.4772 10.9773V0.369141H14.0558V17.5606H11.507V15.9347C10.9115 16.5439 10.1974 17.0272 9.40781 17.3554C8.61822 17.6835 7.76959 17.8497 6.91325 17.8439C3.20783 17.8439 0.35498 15.1705 0.35498 11.116V0.369141H2.98127V10.9921C2.98127 13.7393 4.76989 15.5334 7.20837 15.5334Z" fill="white"/>
<path d="M58.2256 0.369141H70.4091V3.31996H61.5166V7.51012H70.1616V10.3606H61.5166V14.6216H70.4091V17.5724H58.2256V0.369141ZM104.056 17.8823C107.791 17.8823 109.896 16.1118 109.896 13.6803C109.896 11.9482 108.65 10.6557 106.041 10.095L103.284 9.53734C101.683 9.24225 101.179 8.94717 101.179 8.35701C101.179 7.59275 101.951 7.12357 103.373 7.12357C104.914 7.12357 106.056 7.53373 106.354 8.94422H109.586C109.41 6.28848 107.481 4.5357 103.57 4.5357C100.19 4.5357 97.8166 5.91668 97.8166 8.59308C97.8166 10.4432 99.1223 11.6472 101.939 12.2344L105.022 12.9396C106.238 13.1757 106.563 13.5003 106.563 13.999C106.563 14.7927 105.645 15.2914 104.16 15.2914C102.294 15.2914 101.227 14.8813 100.813 13.4708H97.5633C98.0372 16.1206 100.023 17.8823 104.056 17.8823ZM96.6242 17.5606H93.1275C90.9334 17.5606 89.7172 16.2091 89.7172 14.5036V7.74619H87.2578V4.86619H89.7291V1.25144H92.9784V4.86619H96.6242V7.74619H92.9784V13.6803C92.9784 14.356 93.4524 14.6806 94.1947 14.6806H96.6242V17.5606ZM82.6134 4.87209V6.01701C81.4693 5.05972 80.0185 4.53671 78.5204 4.5416C77.6236 4.52293 76.732 4.68166 75.8979 5.00848C75.0638 5.33531 74.304 5.82366 73.6631 6.4449C73.0221 7.06615 72.5129 7.80779 72.1653 8.62637C71.8177 9.44494 71.6386 10.324 71.6386 11.2119C71.6386 12.0999 71.8177 12.9789 72.1653 13.7975C72.5129 14.6161 73.0221 15.3577 73.6631 15.979C74.304 16.6002 75.0638 17.0885 75.8979 17.4154C76.732 17.7422 77.6236 17.9009 78.5204 17.8823C80.0187 17.8887 81.4701 17.3655 82.6134 16.4068V17.5547H85.8538V4.86619L82.6134 4.87209ZM78.7887 15.0967C78.0114 15.1055 77.2491 14.8853 76.5985 14.4642C75.9479 14.043 75.4385 13.4399 75.1351 12.7315C74.8316 12.0231 74.7477 11.2414 74.8941 10.4857C75.0405 9.73006 75.4106 9.03453 75.9573 8.48753C76.504 7.94054 77.2027 7.56679 77.9645 7.41377C78.7263 7.26076 79.5169 7.3354 80.2357 7.6282C80.9546 7.921 81.5692 8.41875 82.0016 9.05818C82.434 9.6976 82.6646 10.4498 82.6641 11.2193C82.6688 11.7265 82.5718 12.2297 82.3788 12.6995C82.1858 13.1694 81.9006 13.5968 81.5396 13.9568C81.1787 14.3169 80.7492 14.6025 80.2759 14.7971C79.8027 14.9918 79.2952 15.0916 78.7828 15.0908L78.7887 15.0967Z" fill="white"/>
</g>
<defs>
<clipPath id="clip0_68_3185">
<rect width="110" height="18" fill="white"/>
</clipPath>
</defs>
</svg>
