<svg width="114" height="20" viewBox="0 0 114 20" fill="none" xmlns="http://www.w3.org/2000/svg">
<path d="M8.41502 15.5143C8.10108 15.7454 7.71206 15.9221 7.24797 16.0444C6.79753 16.1531 6.3198 16.2075 5.81476 16.2075C4.50439 16.2075 3.48749 15.8745 2.76406 15.2085C2.05428 14.5425 1.69938 13.564 1.69938 12.2728V7.76715H0V5.32066H1.69938V2.64992H4.89341V5.32066H7.63699V7.76715H4.89341V12.232C4.89341 12.6941 5.00943 13.0543 5.24147 13.3125C5.48717 13.5572 5.82841 13.6795 6.2652 13.6795C6.77024 13.6795 7.2002 13.5436 7.55509 13.2717L8.41502 15.5143Z" fill="white"/>
<path d="M13.2587 6.52352C13.6409 5.99344 14.1527 5.59249 14.7943 5.32066C15.4495 5.04883 16.2002 4.91292 17.0465 4.91292V7.84869C16.6916 7.82151 16.4527 7.80792 16.3299 7.80792C15.4153 7.80792 14.6987 8.06616 14.18 8.58264C13.6613 9.08553 13.402 9.84666 13.402 10.866V16.0444H10.208V5.07601H13.2587V6.52352Z" fill="white"/>
<path d="M23.3286 4.91292C25.0348 4.91292 26.3452 5.32066 27.2597 6.13616C28.1742 6.93806 28.6315 8.1545 28.6315 9.78549V16.0444H25.6422V14.6785C25.0416 15.6978 23.9224 16.2075 22.2844 16.2075C21.4381 16.2075 20.7011 16.0648 20.0732 15.7794C19.4589 15.494 18.988 15.0998 18.6604 14.5969C18.3328 14.094 18.169 13.5232 18.169 12.8844C18.169 11.865 18.5512 11.0631 19.3156 10.4787C20.0936 9.89423 21.288 9.60201 22.8986 9.60201H25.4375C25.4375 8.90884 25.2259 8.37877 24.8028 8.01179C24.3796 7.63123 23.7449 7.44095 22.8986 7.44095C22.3117 7.44095 21.7316 7.53609 21.1583 7.72637C20.5987 7.90306 20.1209 8.14771 19.7251 8.46032L18.5785 6.23809C19.1791 5.81675 19.8957 5.49056 20.7284 5.2595C21.5746 5.02844 22.4414 4.91292 23.3286 4.91292ZM23.0829 14.0668C23.6289 14.0668 24.1135 13.9445 24.5366 13.6999C24.9597 13.4416 25.26 13.0679 25.4375 12.5786V11.4573H23.2467C21.9363 11.4573 21.2812 11.8854 21.2812 12.7417C21.2812 13.1494 21.4381 13.4756 21.7521 13.7203C22.0797 13.9513 22.5233 14.0668 23.0829 14.0668Z" fill="white"/>
<path d="M42.8622 0.916992V16.0444H39.8115V14.7804C39.0199 15.7318 37.8733 16.2075 36.3718 16.2075C35.3345 16.2075 34.3926 15.9765 33.5464 15.5143C32.7137 15.0522 32.0585 14.393 31.5808 13.5368C31.1031 12.6805 30.8642 11.6883 30.8642 10.5602C30.8642 9.43211 31.1031 8.43993 31.5808 7.58366C32.0585 6.72739 32.7137 6.0682 33.5464 5.60608C34.3926 5.14397 35.3345 4.91292 36.3718 4.91292C37.7777 4.91292 38.8765 5.35464 39.6682 6.23809V0.916992H42.8622ZM36.9246 13.5979C37.73 13.5979 38.3988 13.3261 38.9311 12.7824C39.4635 12.2252 39.7296 11.4844 39.7296 10.5602C39.7296 9.63599 39.4635 8.90204 38.9311 8.35838C38.3988 7.80112 37.73 7.5225 36.9246 7.5225C36.1057 7.5225 35.43 7.80112 34.8977 8.35838C34.3653 8.90204 34.0992 9.63599 34.0992 10.5602C34.0992 11.4844 34.3653 12.2252 34.8977 12.7824C35.43 13.3261 36.1057 13.5979 36.9246 13.5979Z" fill="white"/>
<path d="M56.6085 10.601C56.6085 10.6418 56.588 10.9272 56.5471 11.4573H48.2139C48.3641 12.1368 48.719 12.6737 49.2786 13.0679C49.8382 13.462 50.5344 13.6591 51.367 13.6591C51.9403 13.6591 52.4453 13.5775 52.8821 13.4144C53.3326 13.2378 53.7489 12.9659 54.1311 12.5989L55.8304 14.4338C54.7931 15.6163 53.278 16.2075 51.2851 16.2075C50.043 16.2075 48.9442 15.9697 47.9887 15.494C47.0332 15.0047 46.2961 14.3319 45.7775 13.4756C45.2588 12.6193 44.9994 11.6475 44.9994 10.5602C44.9994 9.48648 45.252 8.52148 45.757 7.66521C46.2757 6.79535 46.9786 6.12256 47.8659 5.64686C48.7667 5.15756 49.77 4.91292 50.8756 4.91292C51.9539 4.91292 52.9299 5.14397 53.8035 5.60608C54.677 6.0682 55.3595 6.73419 55.8509 7.60405C56.356 8.46032 56.6085 9.4593 56.6085 10.601ZM50.8961 7.31862C50.1727 7.31862 49.5652 7.5225 49.0739 7.93024C48.5825 8.33799 48.2822 8.89525 48.173 9.60201H53.5987C53.4895 8.90884 53.1892 8.35838 52.6978 7.95063C52.2065 7.52929 51.6059 7.31862 50.8961 7.31862Z" fill="white"/>
<path d="M65.5392 4.91339C66.5629 4.91339 67.4911 5.15124 68.3237 5.62694C69.17 6.08906 69.832 6.74825 70.3098 7.60452C70.7875 8.4472 71.0264 9.43259 71.0264 10.5607C71.0264 11.6888 70.7875 12.681 70.3098 13.5372C69.832 14.3799 69.17 15.0391 68.3237 15.5148C67.4911 15.9769 66.5629 16.208 65.5392 16.208C64.1333 16.208 63.0277 15.7663 62.2223 14.8828V20H59.0283V5.07649H62.079V6.3405C62.8707 5.38909 64.0241 4.91339 65.5392 4.91339ZM64.9864 13.5984C65.8054 13.5984 66.4742 13.3266 66.9929 12.7829C67.5252 12.2257 67.7914 11.4849 67.7914 10.5607C67.7914 9.63646 67.5252 8.90251 66.9929 8.35885C66.4742 7.8016 65.8054 7.52297 64.9864 7.52297C64.1674 7.52297 63.4918 7.8016 62.9594 8.35885C62.4407 8.90251 62.1814 9.63646 62.1814 10.5607C62.1814 11.4849 62.4407 12.2257 62.9594 12.7829C63.4918 13.3266 64.1674 13.5984 64.9864 13.5984Z" fill="white"/>
<path d="M78.406 16.208C77.2458 16.208 76.2016 15.9701 75.2734 15.4944C74.3589 15.0051 73.6423 14.3323 73.1236 13.4761C72.6049 12.6198 72.3455 11.648 72.3455 10.5607C72.3455 9.47336 72.6049 8.50156 73.1236 7.64529C73.6423 6.78902 74.3589 6.12304 75.2734 5.64733C76.2016 5.15804 77.2458 4.91339 78.406 4.91339C79.5662 4.91339 80.6036 5.15804 81.5181 5.64733C82.4326 6.12304 83.1493 6.78902 83.6679 7.64529C84.1866 8.50156 84.446 9.47336 84.446 10.5607C84.446 11.648 84.1866 12.6198 83.6679 13.4761C83.1493 14.3323 82.4326 15.0051 81.5181 15.4944C80.6036 15.9701 79.5662 16.208 78.406 16.208ZM78.406 13.5984C79.225 13.5984 79.8938 13.3266 80.4125 12.7829C80.9448 12.2257 81.211 11.4849 81.211 10.5607C81.211 9.63646 80.9448 8.90251 80.4125 8.35885C79.8938 7.8016 79.225 7.52297 78.406 7.52297C77.587 7.52297 76.9114 7.8016 76.379 8.35885C75.8467 8.90251 75.5805 9.63646 75.5805 10.5607C75.5805 11.4849 75.8467 12.2257 76.379 12.7829C76.9114 13.3266 77.587 13.5984 78.406 13.5984Z" fill="white"/>
<path d="M86.5809 5.07649H89.7749V16.0449H86.5809V5.07649Z" fill="white"/>
<path d="M99.4344 4.91339C100.799 4.91339 101.898 5.32113 102.731 6.13663C103.577 6.95212 104 8.16177 104 9.76558V16.0449H100.806V10.2549C100.806 9.38501 100.615 8.73942 100.233 8.31808C99.8507 7.88315 99.2979 7.66568 98.5745 7.66568C97.7692 7.66568 97.1276 7.91712 96.6499 8.42001C96.1722 8.90931 95.9333 9.64326 95.9333 10.6218V16.0449H92.7393V5.07649H95.79V6.36089C96.2131 5.89878 96.7386 5.5454 97.3665 5.30075C97.9944 5.04251 98.6837 4.91339 99.4344 4.91339Z" fill="white"/>
<path d="M114 15.5148C113.686 15.7459 113.297 15.9226 112.833 16.0449C112.383 16.1536 111.905 16.208 111.4 16.208C110.089 16.208 109.073 15.875 108.349 15.209C107.639 14.543 107.284 13.5644 107.284 12.2732V7.76762H105.585V5.32113H107.284V2.65039H110.478V5.32113H113.222V7.76762H110.478V12.2325C110.478 12.6946 110.595 13.0547 110.827 13.313C111.072 13.5576 111.413 13.68 111.85 13.68C112.355 13.68 112.785 13.544 113.14 13.2722L114 15.5148Z" fill="white"/>
<path d="M86.7447 3.03772C87.1132 3.37751 87.591 3.5474 88.1779 3.5474C88.7649 3.5474 89.2426 3.37751 89.6111 3.03772C89.9797 2.68434 90.1639 2.24261 90.1639 1.71254C90.1639 1.22324 89.9797 0.815495 89.6111 0.489298C89.2426 0.163099 88.7649 0 88.1779 0C87.591 0 87.1132 0.169895 86.7447 0.509685C86.3762 0.849474 86.1919 1.27081 86.1919 1.7737C86.1919 2.27659 86.3762 2.69793 86.7447 3.03772Z" fill="white"/>
</svg>
