<svg width="55" height="24" viewBox="0 0 55 24" fill="none" xmlns="http://www.w3.org/2000/svg">
<path fill-rule="evenodd" clip-rule="evenodd" d="M47.9359 20.3942C46.1727 20.3942 44.464 19.6884 43.2339 18.4454C41.826 17.0182 41.0742 14.9926 41.0742 12.568C41.0742 10.1434 41.4843 8.27126 42.3454 6.75204C43.2749 5.12542 44.7374 3.86708 46.9381 2.7622C47.0541 2.69709 47.1615 2.63775 47.2622 2.58212L47.2629 2.58172C47.4466 2.48027 47.6083 2.39092 47.7582 2.30184L47.7632 2.29912C48.4978 1.90201 48.8394 1.71741 49.4257 1.15092C49.7402 0.844004 50.0818 0.352948 50.2596 0L53.3214 2.10234C52.6242 4.12795 50.861 4.92592 49.1661 5.67786L49.1348 5.69194C47.5471 6.40795 46.0457 7.08502 45.4482 8.7163L45.5439 8.79302C46.446 7.91833 47.6078 7.48862 48.8107 7.48862C50.3006 7.48862 51.7493 8.17921 52.7882 9.3915C53.7726 10.5271 54.2784 12.0463 54.2371 13.6422C54.1689 18.2919 50.9294 20.3942 47.9359 20.3942ZM47.6762 10.6652C46.9381 10.6652 46.241 10.9567 45.7216 11.4631C45.2158 11.9235 44.9151 12.6754 44.9015 13.5041C44.8878 14.3788 45.2022 15.2228 45.7352 15.7292C46.2546 16.2816 46.9654 16.5885 47.7445 16.5885C48.5783 16.5885 49.3574 16.2356 49.8905 15.6371C50.3552 15.1001 50.5876 14.4249 50.5739 13.6576C50.5876 12.8902 50.3552 12.1997 49.8905 11.6626C49.3437 11.0334 48.5236 10.6652 47.6762 10.6652Z" fill="white"/>
<path d="M8.17384 19.7192V9.40698H3.66319V19.7192H0V5.58594H11.8233V19.7192H8.17384Z" fill="white"/>
<path d="M36.3038 19.7192V12.1078L33.1327 17.3099L29.9479 12.1078V19.7192H26.4487V5.58594H29.9889L33.119 11.0796L36.2628 5.58594H39.803V19.7192H36.3038Z" fill="white"/>
<path d="M14.8027 19.9798C16.6343 19.9644 17.6458 19.3813 17.9738 17.9848L17.9875 17.9542L12.479 5.58566H16.3746L19.7371 13.0743L19.8601 12.7367L21.842 5.57031H25.7376L21.8147 17.77C21.1176 19.9952 20.2838 21.499 19.163 22.4965C18.0422 23.4939 16.6206 23.985 14.8027 24.0003V19.9798Z" fill="white"/>
</svg>
