<svg width="132" height="20" viewBox="0 0 132 20" fill="none" xmlns="http://www.w3.org/2000/svg">
<g clip-path="url(#clip0_52_3012)">
<path d="M9.23231 16.6653L6.15619 13.334V9.99992L9.23231 13.334H12.3089L15.3851 9.99992L16.9252 8.33485L18.4617 6.667L21.5383 3.33461H18.4617L15.3851 6.667V3.33461L12.3089 0V9.99992H9.23231V0L6.15619 3.33461V6.667L3.07956 3.33461H0.00292969L3.07956 6.667L5.76642 9.57938H5.76796L6.15466 9.99992H3.07956L4.61608 11.6662L6.15466 13.3323V13.334V16.6653L6.15619 16.6669L9.23231 19.9982H12.3089L15.3851 16.6669V13.334L12.3089 16.6653H9.23231Z" fill="white"/>
<path d="M3.07649 13.335L0.00292969 16.668H3.07956L6.15466 13.335H3.07649Z" fill="white"/>
<path d="M0 19.9984H3.07919L6.15582 16.666H3.07919L0 19.9984Z" fill="white"/>
<path d="M18.4614 10H15.3848V13.3324L18.4614 10Z" fill="white"/>
<path d="M18.4625 16.668H21.538L18.4614 13.335H15.3848L18.4609 16.6673H15.3853L18.4619 20.0003H21.5385L18.4625 16.668Z" fill="white"/>
</g>
<path d="M121.529 16.732H118.477L123.128 3.26074H126.798L131.442 16.732H128.39L125.015 6.33914H124.91L121.529 16.732ZM121.338 11.4369H128.548V13.6602H121.338V11.4369Z" fill="white"/>
<path d="M99.0054 16.732V3.26074H101.854V8.81896H107.635V3.26074H110.477V16.732H107.635V11.1672H101.854V16.732H99.0054Z" fill="white"/>
<path d="M84.4146 16.732H79.6392V3.26074H84.4541C85.8091 3.26074 86.9756 3.53043 87.9535 4.06981C88.9314 4.6048 89.6834 5.3744 90.2096 6.37861C90.7403 7.38281 91.0056 8.58435 91.0056 9.98323C91.0056 11.3865 90.7403 12.5924 90.2096 13.601C89.6834 14.6096 88.927 15.3836 87.9403 15.923C86.958 16.4623 85.7828 16.732 84.4146 16.732ZM82.4873 14.2917H84.2962C85.1382 14.2917 85.8464 14.1426 86.4208 13.8444C86.9997 13.5418 87.4338 13.0748 87.7232 12.4433C88.0171 11.8075 88.164 10.9874 88.164 9.98323C88.164 8.98779 88.0171 8.17434 87.7232 7.54287C87.4338 6.91141 87.0019 6.44658 86.4274 6.14838C85.853 5.85019 85.1448 5.7011 84.3028 5.7011H82.4873V14.2917Z" fill="white"/>
<path d="M65.0484 16.732H60.2729V3.26074H65.0879C66.4429 3.26074 67.6094 3.53043 68.5873 4.06981C69.5652 4.6048 70.3172 5.3744 70.8434 6.37861C71.374 7.38281 71.6393 8.58435 71.6393 9.98323C71.6393 11.3865 71.374 12.5924 70.8434 13.601C70.3172 14.6096 69.5608 15.3836 68.5741 15.923C67.5918 16.4623 66.4166 16.732 65.0484 16.732ZM63.1211 14.2917H64.93C65.772 14.2917 66.4802 14.1426 67.0546 13.8444C67.6335 13.5418 68.0676 13.0748 68.357 12.4433C68.6508 11.8075 68.7977 10.9874 68.7977 9.98323C68.7977 8.98779 68.6508 8.17434 68.357 7.54287C68.0676 6.91141 67.6357 6.44658 67.0612 6.14838C66.4868 5.85019 65.7785 5.7011 64.9366 5.7011H63.1211V14.2917Z" fill="white"/>
<path d="M52.273 3.26074V16.732H49.4248V3.26074H52.273Z" fill="white"/>
<path d="M38.5111 7.13564C38.4585 6.60503 38.2326 6.19282 37.8336 5.89901C37.4345 5.60521 36.8929 5.4583 36.2089 5.4583C35.744 5.4583 35.3516 5.52408 35.0314 5.65564C34.7113 5.78281 34.4658 5.96041 34.2947 6.18844C34.1281 6.41647 34.0448 6.67519 34.0448 6.96461C34.036 7.2058 34.0864 7.41629 34.1961 7.59608C34.3101 7.77587 34.4658 7.93155 34.6631 8.0631C34.8604 8.19027 35.0884 8.30209 35.3472 8.39857C35.6059 8.49066 35.8822 8.56959 36.176 8.63537L37.3863 8.92479C37.9739 9.05634 38.5133 9.23175 39.0044 9.45101C39.4956 9.67027 39.9209 9.93996 40.2805 10.2601C40.6401 10.5802 40.9185 10.9573 41.1159 11.3915C41.3176 11.8256 41.4207 12.3233 41.425 12.8846C41.4207 13.709 41.2102 14.4238 40.7936 15.029C40.3814 15.6297 39.785 16.0968 39.0044 16.43C38.2282 16.7589 37.292 16.9234 36.1957 16.9234C35.1082 16.9234 34.161 16.7567 33.3541 16.4235C32.5516 16.0902 31.9245 15.5968 31.4729 14.9435C31.0256 14.2857 30.791 13.4722 30.769 12.5031H33.5251C33.5558 12.9548 33.6852 13.3319 33.9132 13.6345C34.1456 13.9327 34.4548 14.1585 34.8407 14.312C35.231 14.4611 35.6717 14.5356 36.1628 14.5356C36.6452 14.5356 37.064 14.4655 37.4192 14.3251C37.7788 14.1848 38.0572 13.9897 38.2545 13.7397C38.4519 13.4898 38.5505 13.2025 38.5505 12.878C38.5505 12.5755 38.4607 12.3211 38.2809 12.115C38.1055 11.9089 37.8467 11.7335 37.5047 11.5888C37.167 11.4441 36.7526 11.3125 36.2615 11.1941L34.7946 10.8258C33.6589 10.5495 32.7621 10.1176 32.1043 9.52994C31.4466 8.94233 31.1199 8.1508 31.1242 7.15537C31.1199 6.33972 31.3369 5.62713 31.7754 5.01759C32.2183 4.40805 32.8257 3.93226 33.5975 3.59021C34.3693 3.24817 35.2463 3.07715 36.2286 3.07715C37.2284 3.07715 38.1011 3.24817 38.8465 3.59021C39.5964 3.93226 40.1796 4.40805 40.5962 5.01759C41.0128 5.62713 41.2277 6.33315 41.2409 7.13564H38.5111Z" fill="white"/>
<defs>
<clipPath id="clip0_52_3012">
<rect width="21.5385" height="20" fill="white"/>
</clipPath>
</defs>
</svg>
