<svg width="100" height="25" viewBox="0 0 100 25" fill="none" xmlns="http://www.w3.org/2000/svg">
<path d="M9.81846 24.882C15.241 24.882 19.6369 20.4862 19.6369 15.0636C19.6369 9.64099 15.241 5.24512 9.81846 5.24512C4.39587 5.24512 0 9.64099 0 15.0636C0 20.4862 4.39587 24.882 9.81846 24.882Z" fill="white"/>
<path d="M30.1008 24.8769C27.9681 24.8769 26.269 24.2477 25.0036 22.9894C23.7382 21.7311 23.104 20.0368 23.1011 17.9064V8.16797H26.0229V17.8158C26.0229 19.1547 26.3831 20.2148 27.1035 20.9962C27.8238 21.7776 28.823 22.168 30.1008 22.1674C31.3798 22.1674 32.3843 21.777 33.1141 20.9962C33.844 20.2154 34.2092 19.1553 34.2098 17.8158V8.16797H37.1014V17.9064C37.1014 20.0783 36.4773 21.7826 35.2291 23.0196C33.9809 24.2566 32.2714 24.8757 30.1008 24.8769Z" fill="white"/>
<path d="M42.9526 5.15965C42.1937 5.15965 41.5616 4.9132 41.0563 4.42031C40.5509 3.92742 40.298 3.30123 40.2974 2.54175C40.2974 1.80893 40.5503 1.20199 41.0563 0.720947C41.5622 0.239903 42.1943 -0.000321708 42.9526 0.000270711C43.2901 -0.00467599 43.6252 0.058216 43.938 0.185218C44.2508 0.31222 44.5348 0.500746 44.7734 0.73961C45.018 0.970868 45.2119 1.25053 45.3425 1.5608C45.4732 1.87107 45.5378 2.20514 45.5323 2.54175C45.5323 3.30064 45.2793 3.92682 44.7734 4.42031C44.535 4.65934 44.2509 4.84797 43.9381 4.97498C43.6253 5.102 43.2902 5.1648 42.9526 5.15965ZM44.3451 8.16765V24.4802H41.4233V8.16765H44.3451Z" fill="white"/>
<path d="M51.8022 24.48H48.8804V8.16749H51.7418V10.4779C52.7761 8.65149 54.5007 7.73828 56.9154 7.73828C58.7418 7.73828 60.2738 8.32685 61.5113 9.50399C62.7489 10.6811 63.3677 12.3751 63.3677 14.5861V24.48H60.4761V15.4107C60.4761 13.8485 60.0958 12.6311 59.3351 11.7584C58.5744 10.8858 57.5664 10.4495 56.3111 10.4495C54.9924 10.4495 53.907 10.9163 53.0551 11.85C52.2228 12.8038 51.8081 14.0007 51.8111 15.4409L51.8022 24.48Z" fill="white"/>
<path d="M93.9564 16.2332L99.999 24.4805H96.3557L92.084 18.3632L87.8133 24.4805H84.002L90.2117 16.0199L84.6258 8.16797H88.2691L92.1791 13.889L96.1548 8.16797H99.8675L93.9564 16.2332Z" fill="white"/>
<path d="M82.9481 15.8932C82.9481 16.0982 82.9185 16.6017 82.8592 17.4039H69.7279C69.9945 18.8595 70.6098 20.0076 71.5736 20.8482C72.5375 21.6889 73.8476 22.108 75.504 22.1056C76.5392 22.0969 77.5665 21.9257 78.5485 21.5982C79.5163 21.2991 80.4303 20.8476 81.2561 20.2608L82.5171 22.5055C81.6557 23.1625 80.5894 23.7111 79.318 24.1512C78.0728 24.5875 76.763 24.811 75.4436 24.8124C73.9472 24.8124 72.6198 24.5662 71.4617 24.0739C70.3035 23.5816 69.3852 22.9155 68.7069 22.0754C68.0383 21.2488 67.5182 20.3126 67.1696 19.3082C66.8189 18.289 66.6422 17.2181 66.6471 16.1403C66.6471 13.6805 67.4172 11.6305 68.9575 9.99006C70.5156 8.37098 72.5248 7.56114 74.9851 7.56055C77.3222 7.56055 79.2286 8.30907 80.7043 9.80611C82.1996 11.302 82.9475 13.331 82.9481 15.8932ZM69.7279 14.8482H79.9072C79.8243 13.4335 79.3269 12.3008 78.4152 11.4501C77.5034 10.5994 76.3607 10.174 74.9869 10.174C73.6539 10.174 72.5058 10.6097 71.5425 11.4812C70.5793 12.3526 69.9744 13.475 69.7279 14.8482Z" fill="white"/>
</svg>
