<svg width="155" height="20" viewBox="0 0 155 20" fill="none" xmlns="http://www.w3.org/2000/svg">
<g clip-path="url(#clip0_52_3012)">
<path d="M9.23231 16.6653L6.15619 13.334V9.99992L9.23231 13.334H12.3089L15.3851 9.99992L16.9252 8.33485L18.4617 6.667L21.5383 3.33461H18.4617L15.3851 6.667V3.33461L12.3089 0V9.99992H9.23231V0L6.15619 3.33461V6.667L3.07956 3.33461H0.00292969L3.07956 6.667L5.76642 9.57938H5.76796L6.15466 9.99992H3.07956L4.61608 11.6662L6.15466 13.3323V13.334V16.6653L6.15619 16.6669L9.23231 19.9982H12.3089L15.3851 16.6669V13.334L12.3089 16.6653H9.23231Z" fill="white"/>
<path d="M3.07649 13.335L0.00292969 16.668H3.07956L6.15466 13.335H3.07649Z" fill="white"/>
<path d="M0 19.9984H3.07919L6.15582 16.666H3.07919L0 19.9984Z" fill="white"/>
<path d="M18.4614 10H15.3848V13.3324L18.4614 10Z" fill="white"/>
<path d="M18.4625 16.668H21.538L18.4614 13.335H15.3848L18.4609 16.6673H15.3853L18.4619 20.0003H21.5385L18.4625 16.668Z" fill="white"/>
</g>
<path d="M144.417 16.732H141.365L146.016 3.26074H149.686L154.33 16.732H151.278L147.904 6.33914H147.798L144.417 16.732ZM144.227 11.4369H151.436V13.6602H144.227V11.4369Z" fill="white"/>
<path d="M117.717 16.732V3.26074H120.565V8.81896H126.347V3.26074H129.189V16.732H126.347V11.1672H120.565V16.732H117.717Z" fill="white"/>
<path d="M98.4586 16.732H93.6831V3.26074H98.498C99.8531 3.26074 101.02 3.53043 101.997 4.06981C102.975 4.6048 103.727 5.3744 104.254 6.37861C104.784 7.38281 105.05 8.58435 105.05 9.98323C105.05 11.3865 104.784 12.5924 104.254 13.601C103.727 14.6096 102.971 15.3836 101.984 15.923C101.002 16.4623 99.8267 16.732 98.4586 16.732ZM96.5313 14.2917H98.3402C99.1821 14.2917 99.8903 14.1426 100.465 13.8444C101.044 13.5418 101.478 13.0748 101.767 12.4433C102.061 11.8075 102.208 10.9874 102.208 9.98323C102.208 8.98779 102.061 8.17434 101.767 7.54287C101.478 6.91141 101.046 6.44658 100.471 6.14838C99.8969 5.85019 99.1887 5.7011 98.3467 5.7011H96.5313V14.2917Z" fill="white"/>
<path d="M74.4239 16.732H69.6484V3.26074H74.4634C75.8184 3.26074 76.9848 3.53043 77.9627 4.06981C78.9406 4.6048 79.6927 5.3744 80.2189 6.37861C80.7495 7.38281 81.0148 8.58435 81.0148 9.98323C81.0148 11.3865 80.7495 12.5924 80.2189 13.601C79.6927 14.6096 78.9363 15.3836 77.9496 15.923C76.9673 16.4623 75.7921 16.732 74.4239 16.732ZM72.4966 14.2917H74.3055C75.1475 14.2917 75.8557 14.1426 76.4301 13.8444C77.009 13.5418 77.4431 13.0748 77.7325 12.4433C78.0263 11.8075 78.1732 10.9874 78.1732 9.98323C78.1732 8.98779 78.0263 8.17434 77.7325 7.54287C77.4431 6.91141 77.0112 6.44658 76.4367 6.14838C75.8622 5.85019 75.154 5.7011 74.3121 5.7011H72.4966V14.2917Z" fill="white"/>
<path d="M56.7471 3.26074V16.732H53.8989V3.26074H56.7471Z" fill="white"/>
<path d="M38.5111 7.13564C38.4585 6.60503 38.2326 6.19282 37.8336 5.89901C37.4345 5.60521 36.8929 5.4583 36.2089 5.4583C35.744 5.4583 35.3516 5.52408 35.0314 5.65564C34.7113 5.78281 34.4658 5.96041 34.2947 6.18844C34.1281 6.41647 34.0448 6.67519 34.0448 6.96461C34.036 7.2058 34.0864 7.41629 34.1961 7.59608C34.3101 7.77587 34.4658 7.93155 34.6631 8.0631C34.8604 8.19027 35.0884 8.30209 35.3472 8.39857C35.6059 8.49066 35.8822 8.56959 36.176 8.63537L37.3863 8.92479C37.9739 9.05634 38.5133 9.23175 39.0044 9.45101C39.4956 9.67027 39.9209 9.93996 40.2805 10.2601C40.6401 10.5802 40.9185 10.9573 41.1159 11.3915C41.3176 11.8256 41.4207 12.3233 41.425 12.8846C41.4207 13.709 41.2102 14.4238 40.7936 15.029C40.3814 15.6297 39.785 16.0968 39.0044 16.43C38.2282 16.7589 37.292 16.9234 36.1957 16.9234C35.1082 16.9234 34.161 16.7567 33.3541 16.4235C32.5516 16.0902 31.9245 15.5968 31.4729 14.9435C31.0256 14.2857 30.791 13.4722 30.769 12.5031H33.5251C33.5558 12.9548 33.6852 13.3319 33.9132 13.6345C34.1456 13.9327 34.4548 14.1585 34.8407 14.312C35.231 14.4611 35.6717 14.5356 36.1628 14.5356C36.6452 14.5356 37.064 14.4655 37.4192 14.3251C37.7788 14.1848 38.0572 13.9897 38.2545 13.7397C38.4519 13.4898 38.5505 13.2025 38.5505 12.878C38.5505 12.5755 38.4607 12.3211 38.2809 12.115C38.1055 11.9089 37.8467 11.7335 37.5047 11.5888C37.167 11.4441 36.7526 11.3125 36.2615 11.1941L34.7946 10.8258C33.6589 10.5495 32.7621 10.1176 32.1043 9.52994C31.4466 8.94233 31.1199 8.1508 31.1242 7.15537C31.1199 6.33972 31.3369 5.62713 31.7754 5.01759C32.2183 4.40805 32.8257 3.93226 33.5975 3.59021C34.3693 3.24817 35.2463 3.07715 36.2286 3.07715C37.2284 3.07715 38.1011 3.24817 38.8465 3.59021C39.5964 3.93226 40.1796 4.40805 40.5962 5.01759C41.0128 5.62713 41.2277 6.33315 41.2409 7.13564H38.5111Z" fill="white"/>
<defs>
<clipPath id="clip0_52_3012">
<rect width="21.5385" height="20" fill="white"/>
</clipPath>
</defs>
</svg>
