<svg width="82" height="20" viewBox="0 0 82 20" fill="none" xmlns="http://www.w3.org/2000/svg">
<path d="M6.79887 3.12339C6.79887 2.75955 6.50391 2.46459 6.14006 2.46459H0.658804C0.294957 2.46459 0 2.16963 0 1.80578V0.658806C0 0.294958 0.294957 0 0.658805 0H15.7435C16.1073 0 16.4023 0.294957 16.4023 0.658805V1.80578C16.4023 2.16963 16.1073 2.46459 15.7435 2.46459H10.2622C9.89835 2.46459 9.6034 2.75955 9.6034 3.12339V19.1712C9.6034 19.5351 9.30844 19.83 8.94459 19.83H7.45767C7.09382 19.83 6.79887 19.5351 6.79887 19.1712V3.12339Z" fill="white"/>
<path d="M22.8393 20C21.3473 20 20.0064 19.6695 18.8166 19.0085C17.6268 18.3475 16.692 17.441 16.0121 16.289C15.3511 15.118 15.0206 13.796 15.0206 12.3229C15.0206 10.8499 15.3511 9.5373 16.0121 8.38527C16.692 7.21435 17.6268 6.30784 18.8166 5.66572C20.0064 5.00472 21.3473 4.67422 22.8393 4.67422C24.3313 4.67422 25.6627 5.00472 26.8336 5.66572C28.0234 6.30784 28.9488 7.21435 29.6098 8.38527C30.2897 9.5373 30.6296 10.8499 30.6296 12.3229C30.6296 13.796 30.2897 15.118 29.6098 16.289C28.9488 17.441 28.0234 18.3475 26.8336 19.0085C25.6627 19.6695 24.3313 20 22.8393 20ZM22.8393 17.6204C23.8024 17.6204 24.6617 17.4032 25.4172 16.9688C26.1915 16.5156 26.7958 15.8924 27.2302 15.0992C27.6646 14.2871 27.8818 13.3617 27.8818 12.3229C27.8818 11.2842 27.6646 10.3683 27.2302 9.57507C26.7958 8.76298 26.1915 8.13975 25.4172 7.70538C24.6617 7.27101 23.8024 7.05382 22.8393 7.05382C21.8761 7.05382 21.0074 7.27101 20.233 7.70538C19.4776 8.13975 18.8733 8.76298 18.42 9.57507C17.9856 10.3683 17.7685 11.2842 17.7685 12.3229C17.7685 13.3617 17.9856 14.2871 18.42 15.0992C18.8733 15.8924 19.4776 16.5156 20.233 16.9688C21.0074 17.4032 21.8761 17.6204 22.8393 17.6204Z" fill="white"/>
<path d="M54.6127 4.81586C55.0724 4.81586 55.3907 5.27466 55.2299 5.70523L50.1131 19.4018C50.0169 19.6593 49.7708 19.83 49.4959 19.83H47.801C47.5276 19.83 47.2826 19.6611 47.1853 19.4056L43.6243 10.0492C43.4094 9.48456 42.6112 9.48283 42.3939 10.0465L38.7843 19.4082C38.6863 19.6624 38.442 19.83 38.1696 19.83H36.4734C36.198 19.83 35.9518 19.6588 35.8558 19.4008L30.7649 5.7042C30.6049 5.2738 30.9232 4.81586 31.3824 4.81586H32.5517C32.8284 4.81586 33.0757 4.98884 33.1706 5.24882L36.7681 15.107C36.9774 15.6804 37.7866 15.6855 38.003 15.1147L41.7465 5.24111C41.8436 4.98515 42.0888 4.81586 42.3625 4.81586H43.7438C44.0194 4.81586 44.2659 4.98744 44.3616 5.2459L48.0341 15.164C48.2462 15.7368 49.056 15.7376 49.2693 15.1653L52.9661 5.24462C53.0622 4.98682 53.3083 4.81586 53.5834 4.81586H54.6127Z" fill="white"/>
<path d="M70.343 12.4079C70.343 12.4784 70.3409 12.5564 70.3365 12.642C70.3195 12.9773 70.0324 13.2295 69.6967 13.2295H58.854C58.4568 13.2295 58.146 13.5803 58.2482 13.9641C58.5117 14.9526 59.04 15.7747 59.8331 16.4306C60.8341 17.2238 62.0711 17.6204 63.5442 17.6204C65.059 17.6204 66.3247 17.1896 67.3414 16.328C67.6443 16.0713 68.1068 16.0745 68.3648 16.3763L69.0134 17.1351C69.2244 17.3818 69.2267 17.7483 68.9946 17.9753C68.3872 18.5692 67.6658 19.0364 66.8303 19.3768C65.8293 19.7923 64.7056 20 63.4592 20C61.8728 20 60.4658 19.6789 59.2382 19.0368C58.0106 18.3758 57.0569 17.4599 56.377 16.289C55.716 15.118 55.3855 13.796 55.3855 12.3229C55.3855 10.8687 55.7066 9.55619 56.3487 8.38527C57.0097 7.21435 57.9068 6.30784 59.0399 5.66572C60.1919 5.00472 61.4856 4.67422 62.9209 4.67422C64.3562 4.67422 65.631 5.00472 66.7453 5.66572C67.8784 6.30784 68.7566 7.21435 69.3799 8.38527C70.022 9.55619 70.343 10.8971 70.343 12.4079ZM62.9209 6.96884C61.6178 6.96884 60.5224 7.36544 59.6348 8.15864C58.9368 8.79592 58.4705 9.59169 58.2358 10.5459C58.1416 10.9289 58.4516 11.2748 58.8459 11.2748H66.9947C67.3895 11.2748 67.6997 10.928 67.6023 10.5454C67.3637 9.60798 66.8892 8.82186 66.1787 8.18697C65.31 7.37488 64.224 6.96884 62.9209 6.96884Z" fill="white"/>
<path d="M75.5925 5.32684C75.5925 5.85663 76.4734 6.14602 76.8995 5.83111C77.1411 5.65247 77.4042 5.49347 77.6888 5.35411C78.4565 4.97809 79.3607 4.75804 80.4013 4.69396C80.7645 4.6716 81.0599 4.96918 81.0599 5.33303V6.68455C81.0599 7.01601 80.7681 7.28045 80.4367 7.28045C78.9636 7.28045 77.8021 7.72427 76.9522 8.6119C76.1213 9.48064 75.7058 10.7271 75.7058 12.3513V19.1712C75.7058 19.5351 75.4108 19.83 75.047 19.83H73.645C73.2812 19.83 72.9862 19.5351 72.9862 19.1712V5.47467C72.9862 5.11082 73.2812 4.81586 73.645 4.81586H75.0815C75.3637 4.81586 75.5925 5.04464 75.5925 5.32684Z" fill="white"/>
</svg>
