<svg width="125" height="22" viewBox="0 0 125 22" fill="none" xmlns="http://www.w3.org/2000/svg">
<path d="M9.22699 17.0659C8.88276 17.32 8.45621 17.5144 7.94734 17.649C7.45344 17.7686 6.9296 17.8284 6.37583 17.8284C4.93902 17.8284 3.824 17.4621 3.03076 16.7295C2.25249 15.9969 1.86336 14.9204 1.86336 13.5001V8.54396H0V5.85283H1.86336V2.91501H5.36558V5.85283H8.37389V8.54396H5.36558V13.4553C5.36558 13.9636 5.49279 14.3598 5.74723 14.6439C6.01663 14.913 6.3908 15.0475 6.86973 15.0475C7.4235 15.0475 7.89495 14.898 8.28409 14.599L9.22699 17.0659Z" fill="white"/>
<path d="M14.538 7.17597C14.9571 6.59289 15.5183 6.15184 16.2218 5.85283C16.9402 5.55381 17.7634 5.4043 18.6913 5.4043V8.63366C18.3022 8.60376 18.0402 8.58881 17.9055 8.58881C16.9028 8.58881 16.117 8.87287 15.5483 9.441C14.9795 9.99418 14.6952 10.8314 14.6952 11.9527V17.649H11.193V5.58371H14.538V7.17597Z" fill="white"/>
<path d="M25.5796 5.4043C27.4505 5.4043 28.8873 5.85283 29.89 6.74987C30.8928 7.63196 31.3942 8.97005 31.3942 10.7641V17.649H28.1165V16.1464C27.4579 17.2677 26.2307 17.8284 24.4347 17.8284C23.5067 17.8284 22.6985 17.6714 22.0101 17.3574C21.3365 17.0434 20.8202 16.6099 20.461 16.0567C20.1018 15.5035 19.9222 14.8756 19.9222 14.1729C19.9222 13.0516 20.3413 12.1695 21.1794 11.5266C22.0325 10.8837 23.3421 10.5623 25.1082 10.5623H27.892C27.892 9.79982 27.66 9.21674 27.196 8.81307C26.7321 8.39445 26.0361 8.18514 25.1082 8.18514C24.4646 8.18514 23.8285 8.28979 23.1999 8.49911C22.5863 8.69346 22.0624 8.96258 21.6284 9.30644L20.3712 6.862C21.0297 6.39853 21.8155 6.03971 22.7285 5.78555C23.6564 5.53139 24.6068 5.4043 25.5796 5.4043ZM25.3102 15.4736C25.9089 15.4736 26.4402 15.3391 26.9042 15.07C27.3681 14.7859 27.6974 14.3747 27.892 13.8365V12.6031H25.4898C24.053 12.6031 23.3346 13.074 23.3346 14.0159C23.3346 14.4644 23.5067 14.8233 23.851 15.0924C24.2102 15.3465 24.6966 15.4736 25.3102 15.4736Z" fill="white"/>
<path d="M46.9981 1.00879V17.649H43.653V16.2585C42.7849 17.3051 41.5277 17.8284 39.8814 17.8284C38.7439 17.8284 37.7112 17.5742 36.7833 17.0659C35.8703 16.5575 35.1519 15.8324 34.6281 14.8905C34.1042 13.9486 33.8423 12.8572 33.8423 11.6163C33.8423 10.3754 34.1042 9.28402 34.6281 8.34212C35.1519 7.40023 35.8703 6.67512 36.7833 6.16679C37.7112 5.65847 38.7439 5.4043 39.8814 5.4043C41.423 5.4043 42.6278 5.8902 43.4959 6.862V1.00879H46.9981ZM40.4875 14.9578C41.3706 14.9578 42.104 14.6588 42.6877 14.0608C43.2714 13.4478 43.5632 12.633 43.5632 11.6163C43.5632 10.5997 43.2714 9.79234 42.6877 9.19431C42.104 8.58133 41.3706 8.27484 40.4875 8.27484C39.5895 8.27484 38.8487 8.58133 38.265 9.19431C37.6813 9.79234 37.3894 10.5997 37.3894 11.6163C37.3894 12.633 37.6813 13.4478 38.265 14.0608C38.8487 14.6588 39.5895 14.9578 40.4875 14.9578Z" fill="white"/>
<path d="M62.0707 11.6612C62.0707 11.706 62.0482 12.02 62.0033 12.6031H52.8661C53.0308 13.3506 53.4199 13.9412 54.0336 14.3747C54.6472 14.8083 55.4105 15.0251 56.3235 15.0251C56.9521 15.0251 57.5058 14.9354 57.9848 14.756C58.4787 14.5616 58.9352 14.2626 59.3542 13.8589L61.2176 15.8773C60.0801 17.178 58.4188 17.8284 56.2337 17.8284C54.8717 17.8284 53.6669 17.5667 52.6192 17.0434C51.5715 16.5052 50.7633 15.7652 50.1946 14.8233C49.6258 13.8814 49.3415 12.8124 49.3415 11.6163C49.3415 10.4352 49.6184 9.37372 50.1721 8.43183C50.7409 7.47498 51.5117 6.73492 52.4845 6.21164C53.4723 5.67342 54.5724 5.4043 55.7847 5.4043C56.967 5.4043 58.0372 5.65847 58.995 6.16679C59.9529 6.67512 60.7012 7.4077 61.24 8.36455C61.7938 9.30644 62.0707 10.4053 62.0707 11.6612ZM55.8071 8.05058C55.0139 8.05058 54.3479 8.27484 53.8091 8.72337C53.2702 9.17189 52.941 9.78487 52.8212 10.5623H58.7705C58.6508 9.79982 58.3215 9.19431 57.7827 8.74579C57.2439 8.28232 56.5854 8.05058 55.8071 8.05058Z" fill="white"/>
<path d="M71.8633 5.40434C72.9858 5.40434 74.0035 5.66597 74.9165 6.18925C75.8444 6.69757 76.5703 7.42268 77.0941 8.36458C77.618 9.29152 77.8799 10.3755 77.8799 11.6164C77.8799 12.8573 77.618 13.9487 77.0941 14.8906C76.5703 15.8175 75.8444 16.5426 74.9165 17.0659C74.0035 17.5742 72.9858 17.8284 71.8633 17.8284C70.3217 17.8284 69.1094 17.3425 68.2263 16.3707V21.9996H64.7241V5.58374H68.0692V6.97416C68.9373 5.92761 70.2019 5.40434 71.8633 5.40434ZM71.2571 14.9579C72.1551 14.9579 72.8885 14.6588 73.4572 14.0608C74.0409 13.4478 74.3328 12.633 74.3328 11.6164C74.3328 10.5997 74.0409 9.79237 73.4572 9.19434C72.8885 8.58136 72.1551 8.27487 71.2571 8.27487C70.3591 8.27487 69.6182 8.58136 69.0345 9.19434C68.4658 9.79237 68.1814 10.5997 68.1814 11.6164C68.1814 12.633 68.4658 13.4478 69.0345 14.0608C69.6182 14.6588 70.3591 14.9579 71.2571 14.9579Z" fill="white"/>
<path d="M85.9716 17.8284C84.6994 17.8284 83.5544 17.5668 82.5367 17.0435C81.5339 16.5053 80.7482 15.7652 80.1794 14.8233C79.6107 13.8814 79.3263 12.8124 79.3263 11.6164C79.3263 10.4203 79.6107 9.35133 80.1794 8.40943C80.7482 7.46754 81.5339 6.73495 82.5367 6.21167C83.5544 5.67345 84.6994 5.40434 85.9716 5.40434C87.2437 5.40434 88.3812 5.67345 89.384 6.21167C90.3868 6.73495 91.1725 7.46754 91.7412 8.40943C92.31 9.35133 92.5944 10.4203 92.5944 11.6164C92.5944 12.8124 92.31 13.8814 91.7412 14.8233C91.1725 15.7652 90.3868 16.5053 89.384 17.0435C88.3812 17.5668 87.2437 17.8284 85.9716 17.8284ZM85.9716 14.9579C86.8696 14.9579 87.6029 14.6588 88.1717 14.0608C88.7554 13.4478 89.0472 12.633 89.0472 11.6164C89.0472 10.5997 88.7554 9.79237 88.1717 9.19434C87.6029 8.58136 86.8696 8.27487 85.9716 8.27487C85.0736 8.27487 84.3327 8.58136 83.749 9.19434C83.1653 9.79237 82.8735 10.5997 82.8735 11.6164C82.8735 12.633 83.1653 13.4478 83.749 14.0608C84.3327 14.6588 85.0736 14.9579 85.9716 14.9579Z" fill="white"/>
<path d="M94.9353 5.58374H98.4375V17.649H94.9353V5.58374Z" fill="white"/>
<path d="M109.029 5.40434C110.526 5.40434 111.731 5.85286 112.644 6.7499C113.571 7.64694 114.035 8.97756 114.035 10.7417V17.649H110.533V11.28C110.533 10.3231 110.324 9.61297 109.905 9.14949C109.486 8.67107 108.879 8.43186 108.086 8.43186C107.203 8.43186 106.5 8.70845 105.976 9.26162C105.452 9.79985 105.19 10.6072 105.19 11.6836V17.649H101.688V5.58374H105.033V6.99659C105.497 6.48826 106.073 6.09954 106.762 5.83043C107.45 5.54637 108.206 5.40434 109.029 5.40434Z" fill="white"/>
<path d="M125 17.0659C124.656 17.3201 124.229 17.5144 123.721 17.649C123.227 17.7686 122.703 17.8284 122.149 17.8284C120.712 17.8284 119.597 17.4621 118.804 16.7295C118.026 15.9969 117.637 14.9205 117.637 13.5002V8.54399H115.773V5.85286H117.637V2.91504H121.139V5.85286H124.147V8.54399H121.139V13.4553C121.139 13.9636 121.266 14.3598 121.52 14.6439C121.79 14.913 122.164 15.0476 122.643 15.0476C123.197 15.0476 123.668 14.898 124.057 14.599L125 17.0659Z" fill="white"/>
<path d="M95.1149 3.34149C95.519 3.71526 96.0429 3.90214 96.6865 3.90214C97.33 3.90214 97.8539 3.71526 98.258 3.34149C98.6621 2.95277 98.8641 2.46687 98.8641 1.88379C98.8641 1.34557 98.6621 0.897045 98.258 0.538227C97.8539 0.179409 97.33 0 96.6865 0C96.0429 0 95.519 0.186884 95.1149 0.560653C94.7108 0.934421 94.5088 1.39789 94.5088 1.95107C94.5088 2.50425 94.7108 2.96772 95.1149 3.34149Z" fill="white"/>
</svg>
