<svg width="104" height="26" viewBox="0 0 104 26" fill="none" xmlns="http://www.w3.org/2000/svg">
<path d="M10.2112 25.2769C15.8507 25.2769 20.4224 20.7052 20.4224 15.0657C20.4224 9.4262 15.8507 4.85449 10.2112 4.85449C4.57171 4.85449 0 9.4262 0 15.0657C0 20.7052 4.57171 25.2769 10.2112 25.2769Z" fill="white"/>
<path d="M31.3046 25.2718C29.0866 25.2718 27.3196 24.6175 26.0036 23.3088C24.6875 22.0002 24.028 20.2381 24.0249 18.0226V7.89453H27.0636V17.9283C27.0636 19.3207 27.4382 20.4232 28.1874 21.2359C28.9366 22.0486 29.9757 22.4546 31.3046 22.454C32.6348 22.454 33.6794 22.0479 34.4385 21.2359C35.1975 20.4239 35.5774 19.3213 35.578 17.9283V7.89453H38.5853V18.0226C38.5853 20.2812 37.9362 22.0538 36.638 23.3402C35.3399 24.6267 33.5621 25.2705 31.3046 25.2718Z" fill="white"/>
<path d="M44.6706 4.76545C43.8814 4.76545 43.224 4.50914 42.6984 3.99653C42.1729 3.48393 41.9098 2.83269 41.9092 2.04283C41.9092 1.2807 42.1723 0.649485 42.6984 0.149199C43.2246 -0.351087 43.882 -0.600921 44.6706 -0.600304C45.0217 -0.605449 45.3701 -0.540041 45.6954 -0.407959C46.0207 -0.275877 46.3162 -0.0798097 46.5642 0.168609C46.8187 0.409117 47.0203 0.699968 47.1561 1.02265C47.292 1.34532 47.3592 1.69276 47.3535 2.04283C47.3535 2.83208 47.0904 3.48331 46.5642 3.99653C46.3163 4.24512 46.0209 4.4413 45.6956 4.5734C45.3702 4.70549 45.0217 4.7708 44.6706 4.76545ZM46.1188 7.89378V24.8588H43.0801V7.89378H46.1188Z" fill="white"/>
<path d="M53.8741 24.8587H50.8354V7.89364H53.8113V10.2965C54.887 8.39701 56.6805 7.44727 59.1918 7.44727C61.0913 7.44727 62.6846 8.05938 63.9717 9.2836C65.2587 10.5078 65.9023 12.2696 65.9023 14.569V24.8587H62.895V15.4266C62.895 13.8019 62.4994 12.5358 61.7084 11.6282C60.9173 10.7207 59.8689 10.2669 58.5634 10.2669C57.1919 10.2669 56.0632 10.7524 55.1772 11.7234C54.3116 12.7154 53.8803 13.9602 53.8834 15.458L53.8741 24.8587Z" fill="white"/>
<path d="M97.7144 16.2823L103.999 24.8596H100.21L95.7672 18.4976L91.3256 24.8596H87.3618L93.8199 16.0605L88.0106 7.89453H91.7997L95.8661 13.8444L100.001 7.89453H103.862L97.7144 16.2823Z" fill="white"/>
<path d="M86.2661 15.9287C86.2661 16.1418 86.2353 16.6655 86.1737 17.4998H72.5172C72.7945 19.0136 73.4343 20.2076 74.4367 21.0819C75.4391 21.9561 76.8017 22.392 78.5243 22.3896C79.6009 22.3805 80.6693 22.2024 81.6906 21.8619C82.6971 21.5507 83.6477 21.0812 84.5065 20.471L85.8179 22.8055C84.9221 23.4887 83.8131 24.0592 82.4909 24.517C81.1959 24.9708 79.8337 25.2032 78.4615 25.2046C76.9052 25.2046 75.5248 24.9486 74.3203 24.4366C73.1158 23.9246 72.1608 23.2318 71.4553 22.3581C70.76 21.4985 70.219 20.5248 69.8565 19.4803C69.4918 18.4203 69.3081 17.3065 69.3131 16.1856C69.3131 13.6275 70.114 11.4954 71.7159 9.78939C73.3363 8.10554 75.4259 7.26331 77.9846 7.2627C80.4152 7.2627 82.3979 8.04116 83.9326 9.59808C85.4877 11.1538 86.2655 13.264 86.2661 15.9287ZM72.5172 14.8418H83.1036C83.0174 13.3706 82.5001 12.1925 81.5519 11.3078C80.6037 10.4231 79.4152 9.98069 77.9865 9.98069C76.6002 9.98069 75.4062 10.4338 74.4044 11.3402C73.4026 12.2465 72.7735 13.4137 72.5172 14.8418Z" fill="white"/>
</svg>
