<svg width="96" height="28" viewBox="0 0 96 28" fill="none" xmlns="http://www.w3.org/2000/svg">
<path d="M11.7932 4.66247H13.8852L15.8377 4.66257L14.3358 13.1098L12.4121 13.1097L10.9772 21.3376H6.93037L5.87078 26H3.0036L4.06321 21.3376H2.02059H0L1.52916 13.1097H3.40114L4.86055 4.66247H8.92603L9.91216 0H12.7793L11.7932 4.66247Z" fill="white"/>
<path d="M79.1338 27.2356L84.6913 19.095L85.6306 17.973L91.2403 8.58008H95.7541L83.3867 27.2356H79.1338ZM83.5694 21.6259L81.482 8.58008H85.5523L86.9874 20.4778L83.5694 21.6259Z" fill="white"/>
<path d="M73.5774 21.8856L74.1775 19.3808L74.308 19.459C73.9427 20.3114 73.36 20.9723 72.5598 21.442C71.7597 21.9116 70.8117 22.1465 69.7159 22.1465C68.1678 22.1465 66.9414 21.6768 66.0369 20.7375C65.1324 19.7982 64.6802 18.4589 64.6802 16.7194C64.6802 15.5714 64.8628 14.4929 65.2281 13.4841C65.5934 12.4752 66.1065 11.5881 66.7675 10.8227C67.4285 10.04 68.1938 9.43117 69.0636 8.99631C69.9333 8.54405 70.8726 8.31793 71.8815 8.31793C72.7686 8.31793 73.5339 8.48317 74.1775 8.81367C74.8211 9.14416 75.3082 9.59641 75.6386 10.1704C75.9865 10.7444 76.117 11.3967 76.03 12.1273H75.7691L77.8303 3.09961H81.7441L77.4129 21.8856H73.5774ZM71.3335 19.1459C71.7858 19.1459 72.2032 19.059 72.5859 18.885C72.986 18.7111 73.3339 18.4763 73.6296 18.1805C73.9427 17.8848 74.2123 17.5457 74.4384 17.163C74.6646 16.7629 74.8298 16.3454 74.9342 15.9106C75.0559 15.4583 75.1168 15.0061 75.1168 14.5538C75.1168 13.6145 74.8733 12.884 74.3862 12.3621C73.9166 11.8403 73.2991 11.5794 72.5337 11.5794C71.7858 11.5794 71.1248 11.8055 70.5508 12.2578C69.9942 12.6926 69.5506 13.2579 69.2201 13.9537C68.907 14.6495 68.7505 15.3887 68.7505 16.1715C68.7505 17.1108 68.9853 17.8414 69.4549 18.3632C69.942 18.885 70.5682 19.1459 71.3335 19.1459Z" fill="white"/>
<path d="M58.5068 21.885C58.4894 21.5893 58.4981 21.2327 58.5329 20.8153C58.5851 20.3978 58.672 19.902 58.7938 19.328H58.7416L60.1506 13.0661C60.2549 12.6312 60.2288 12.2746 60.0723 11.9963C59.9331 11.7006 59.707 11.4832 59.3939 11.344C59.0808 11.2049 58.7068 11.1353 58.272 11.1353C57.5762 11.1353 57.0109 11.2744 56.576 11.5527C56.1585 11.8137 55.8976 12.1181 55.7933 12.4659H52.1143C52.5144 11.2309 53.2798 10.2308 54.4104 9.46541C55.541 8.70006 56.9326 8.31738 58.5851 8.31738C59.8549 8.31738 60.9333 8.52611 61.8204 8.94358C62.7249 9.34365 63.3598 9.96115 63.7251 10.7961C64.1078 11.6136 64.1513 12.6486 63.8556 13.901L62.5771 19.4846C62.5075 19.8325 62.4466 20.2586 62.3944 20.7631C62.3422 21.2501 62.3336 21.6241 62.3683 21.885H58.5068ZM54.2539 22.1459C53.071 22.1459 52.123 21.8415 51.4099 21.2327C50.7141 20.6239 50.3662 19.8412 50.3662 18.8845C50.3662 17.8408 50.6358 16.9798 51.1751 16.3014C51.7317 15.623 52.497 15.0925 53.4711 14.7098C54.4626 14.3271 55.6193 14.0662 56.9413 13.9271L60.6463 13.5357L60.1245 15.8057L56.8369 16.2231C56.089 16.3101 55.4802 16.5188 55.0105 16.8493C54.5409 17.1624 54.306 17.606 54.306 18.18C54.306 18.5453 54.4539 18.8236 54.7496 19.0149C55.0453 19.1889 55.4454 19.2758 55.9498 19.2758C56.8195 19.2758 57.5588 19.041 58.1676 18.5714C58.7764 18.0843 59.1417 17.5625 59.2634 17.0059L59.133 19.2237C58.6112 20.076 57.9589 20.7805 57.1761 21.3371C56.4108 21.8763 55.4367 22.1459 54.2539 22.1459Z" fill="white"/>
<path d="M40.7412 21.885L43.82 8.5783H47.6555L46.9249 11.7093H47.0032L44.6549 21.885H40.7412ZM46.3509 14.5272L46.7162 11.344C47.2206 10.3699 47.8468 9.62196 48.5948 9.10013C49.3427 8.5783 50.1429 8.31738 50.9952 8.31738C51.2735 8.31738 51.5257 8.34347 51.7519 8.39566C51.9954 8.43045 52.1867 8.47393 52.3259 8.52612L51.4909 12.1528C51.2822 12.0833 51.0213 12.0311 50.7082 11.9963C50.4125 11.9441 50.1255 11.918 49.8472 11.918C48.7861 11.918 47.986 12.1355 47.4467 12.5703C46.9075 13.0052 46.5422 13.6575 46.3509 14.5272Z" fill="white"/>
<path d="M31.7548 21.8855L35.3815 6.17842H29.25L29.9545 3.09961H46.2356L45.5311 6.17842H39.3996L35.7729 21.8855H31.7548Z" fill="white"/>
</svg>
