<svg width="111" height="21" viewBox="0 0 111 21" fill="none" xmlns="http://www.w3.org/2000/svg">
<path d="M8.37783 0C3.63863 0 0 3.50624 0 8.16586C0 12.8024 3.63863 16.3779 8.37783 16.3779C13.117 16.3779 16.7557 12.8024 16.7557 8.16586C16.7557 3.52931 13.117 0 8.37783 0ZM8.42275 2.76809C11.2977 2.76809 13.6786 5.12096 13.6786 8.16586C13.6786 11.2108 11.2977 13.6098 8.42275 13.6098C5.52533 13.6098 3.07711 11.2108 3.07711 8.16586C3.07711 5.12096 5.50287 2.76809 8.42275 2.76809Z" fill="white"/>
<path d="M26.3597 3.80612C25.0121 3.80612 23.892 4.23427 23.056 5.02245C22.8066 5.25765 22.3168 5.09098 22.3168 4.74319V4.24702C22.3168 4.05448 22.1648 3.89839 21.9773 3.89839H19.7364C19.5489 3.89839 19.3969 4.05448 19.3969 4.24702V20.3659C19.3969 20.5584 19.5489 20.7145 19.7364 20.7145H21.9773C22.1648 20.7145 22.3168 20.5584 22.3168 20.3659V15.3922C22.3168 15.0466 22.7972 14.8813 23.0448 15.1154C23.894 15.9183 25.027 16.3548 26.4046 16.3548C29.8187 16.3548 32.0423 13.8404 32.0423 10.1266C32.0423 6.34354 29.7513 3.80612 26.3597 3.80612ZM25.7084 13.7712C23.7094 13.7712 22.3168 12.2488 22.3168 10.0343C22.3168 7.86598 23.7094 6.32047 25.7084 6.32047C27.6849 6.32047 29.0775 7.86598 29.0775 10.0343C29.0775 12.2257 27.6849 13.7712 25.7084 13.7712Z" fill="white"/>
<path d="M39.5815 3.80612C35.9878 3.80612 33.4722 6.34354 33.4722 10.1035C33.4722 13.8174 35.9204 16.3548 39.6489 16.3548C41.6334 16.3548 43.3004 15.6619 44.4821 14.4676C44.6095 14.3388 44.6064 14.1296 44.4826 13.997L43.3734 12.809C43.2405 12.6667 43.02 12.6669 42.8757 12.797C42.0553 13.5371 41.0123 13.9327 39.896 13.9327C38.2886 13.9327 37.0593 13.0395 36.5725 11.5381C36.5038 11.3263 36.6659 11.1185 36.8832 11.1185H45.014C45.1926 11.1185 45.3413 10.9754 45.3491 10.7921C45.5327 6.50589 43.7005 3.80612 39.5815 3.80612ZM36.787 9.11162C36.5792 9.11162 36.4191 8.92078 36.4684 8.71347C36.8463 7.12294 38.0041 6.13593 39.604 6.13593C41.3 6.13593 42.4495 7.13832 42.6521 8.75061C42.6767 8.94671 42.521 9.11162 42.3285 9.11162H36.787Z" fill="white"/>
<path d="M55.0973 3.78305C53.6566 3.80006 52.4601 4.2183 51.5888 5.09324C51.3363 5.34677 50.7848 5.1776 50.7848 4.81494V4.24702C50.7848 4.05448 50.6328 3.89839 50.4454 3.89839H48.2044C48.0169 3.89839 47.8649 4.05448 47.8649 4.24702V15.8908C47.8649 16.0834 48.0169 16.2395 48.2044 16.2395H50.4454C50.6328 16.2395 50.7848 16.0834 50.7848 15.8908V10.1727C50.7848 8.14279 51.9528 6.64341 53.9293 6.62034C55.5914 6.62034 56.6021 7.68144 56.6021 9.4115V15.8908C56.6021 16.0834 56.7541 16.2395 56.9416 16.2395H59.205C59.3925 16.2395 59.5445 16.0834 59.5445 15.8908V8.53494C59.5445 5.60538 57.8599 3.78305 55.0973 3.78305Z" fill="white"/>
<path d="M69.4725 0.0922698H63.2759C63.0884 0.0922698 62.9364 0.248355 62.9364 0.440895V15.8908C62.9364 16.0834 63.0884 16.2395 63.2759 16.2395H69.3602C74.2117 16.2395 77.6706 12.8716 77.6706 8.16586C77.6706 3.43704 74.2341 0.0922698 69.4725 0.0922698ZM69.5398 13.5175H66.2856C66.0981 13.5175 65.9461 13.3614 65.9461 13.1689V3.16285C65.9461 2.97031 66.0981 2.81422 66.2856 2.81422H69.4275C72.3699 2.81422 74.5935 5.02869 74.5935 8.18893C74.5935 11.3261 72.4373 13.5175 69.5398 13.5175Z" fill="white"/>
<path d="M91.4609 16.0255C91.5137 16.1551 91.6372 16.2395 91.774 16.2395H94.2657C94.5099 16.2395 94.6742 15.9825 94.5772 15.7523L88.0655 0.302408C88.0117 0.174843 87.8893 0.0922698 87.7539 0.0922698H85.0767C84.9419 0.0922698 84.8199 0.174131 84.7658 0.300873L78.1681 15.7508C78.0697 15.9812 78.234 16.2395 78.479 16.2395H80.8556C80.9924 16.2395 81.1159 16.1551 81.1687 16.0255L82.3868 13.0394C82.4396 12.9098 82.5631 12.8255 82.6999 12.8255H89.9298C90.0666 12.8255 90.19 12.9098 90.2429 13.0394L91.4609 16.0255ZM84.0637 10.1727C83.8209 10.1727 83.6566 9.91843 83.751 9.68862L86.0219 4.15872C86.139 3.87363 86.5328 3.8748 86.6483 4.16058L88.8826 9.69048C88.9754 9.92005 88.8111 10.1727 88.5691 10.1727H84.0637Z" fill="white"/>
<path d="M106.474 16.0927C106.538 16.1847 106.641 16.2395 106.751 16.2395H109.532C109.808 16.2395 109.969 15.9186 109.808 15.6879L99.0408 0.237994C98.9771 0.146533 98.8743 0.0922698 98.7648 0.0922698H96.0703C95.7946 0.0922698 95.6339 0.41188 95.7935 0.642722L106.474 16.0927Z" fill="white"/>
<path d="M95.4378 15.6882C95.2774 15.919 95.438 16.2395 95.7141 16.2395H98.4045C98.5151 16.2395 98.6187 16.1842 98.6823 16.0913L109.233 0.667202C109.391 0.436195 109.231 0.118164 108.956 0.118164H106.439C106.329 0.118164 106.226 0.172552 106.163 0.264189L95.4378 15.6882Z" fill="white" fill-opacity="0.8"/>
<path d="M110.798 2.56719C111.04 3.02122 110.849 3.13763 110.649 3.13763H108.309C108.115 3.13763 107.824 3.07862 107.694 2.85241L106.288 0.686651C106.074 0.331581 106.132 0.116211 106.471 0.116211H108.884C109.098 0.116211 109.275 0.215165 109.386 0.401431L110.798 2.56719Z" fill="white"/>
<path d="M106.474 16.1166C106.537 16.2087 106.64 16.2634 106.75 16.2634H109.531C109.807 16.2634 109.968 15.9426 109.807 15.7119L99.0401 0.261935C98.9763 0.170474 98.8736 0.116211 98.764 0.116211H96.0695C95.7939 0.116211 95.6332 0.435821 95.7928 0.666664L106.474 16.1166Z" fill="white"/>
</svg>
