<svg width="77" height="30" viewBox="0 0 77 30" fill="none" xmlns="http://www.w3.org/2000/svg">
<g clip-path="url(#clip0_67_3142)">
<path d="M62.8771 16.8524C62.8771 19.2273 64.8113 20.7093 66.8593 20.7093C68.9832 20.7093 70.8415 19.2273 70.7842 17.0424C70.8415 14.7815 68.9259 13.2996 66.7266 13.2996C64.6785 13.3186 62.953 14.6675 62.8771 16.8524ZM41.8674 24.5852H36.9752V7.01074H41.9243L46.3613 13.8316L50.7415 7.01074H55.6906V24.6042H50.7984V15.1425L46.3613 21.6403L41.8674 15.1425V24.5852ZM25.143 22.4003L17.5014 7.01074H22.9055L27.608 16.3585L27.7977 15.9025L30.5661 7.01074H36.0271L30.4902 22.2102C28.7458 27.3021 25.8635 29.943 20.7249 30V24.9082C23.3037 24.9082 24.7069 24.2052 25.162 22.4572V22.4003H25.143ZM5.0813 24.5852H-0.000488281V7.01074H16.5153V24.6042H11.3766V11.7226H5.0813V24.5852ZM67.1249 25.4971C61.9101 25.4971 57.5488 21.3743 57.5488 15.7125C57.5488 10.0507 59.9949 6.0418 65.7216 3.47688C66.6127 3.0209 68.0348 2.50792 69.1915 1.48195C69.6464 1.10196 70.1587 0.455985 70.4047 0L74.6524 2.64091C73.6852 5.22483 71.2392 6.1748 68.8693 7.14378C66.6127 7.97974 64.4889 8.89167 63.6546 10.9436L63.7873 11.0006C65.0009 9.8987 66.6888 9.3857 68.357 9.3857C72.3392 9.3857 76.0746 12.5396 75.9418 17.1185C75.809 22.8562 71.2964 25.4971 67.1249 25.4971Z" fill="white"/>
</g>
<defs>
<clipPath id="clip0_67_3142">
<rect width="76.1538" height="30" fill="white"/>
</clipPath>
</defs>
</svg>
