<svg width="64" height="20" viewBox="0 0 64 20" fill="none" xmlns="http://www.w3.org/2000/svg">
<g clip-path="url(#clip0_52_2682)">
<path d="M20.7351 12.2081C20.6586 12.1553 20.5586 12.167 20.4997 12.2375C19.7113 13.1534 18.8464 13.3941 17.952 13.3941C15.9103 13.3941 14.6924 12.0026 14.6924 10.3C14.6924 8.59736 16.0574 7.2059 17.7284 7.2059C19.117 7.2059 20.1408 8.02201 20.5821 9.19621C20.6115 9.27841 20.5527 9.37235 20.4585 9.37235H17.3048C17.2048 9.37235 17.1283 9.44865 17.1283 9.5485V11.0515C17.1283 11.1513 17.2048 11.2276 17.3048 11.2276H20.6409H23.1063C23.224 11.2276 23.3181 11.1454 23.3358 11.028C23.3769 10.7756 23.3946 10.5466 23.3946 10.3C23.3946 7.2705 20.8528 4.82812 17.752 4.82812C14.6512 4.82812 12.1094 7.2705 12.1094 10.3C12.1094 13.3295 14.6512 15.7719 17.752 15.7719C19.776 15.7719 21.3588 14.944 22.4179 13.6054C22.4649 13.5467 22.4532 13.4645 22.3943 13.4176L20.7351 12.2081Z" fill="white"/>
<path d="M28.1367 11.8678V0.48375C28.1367 0.383942 28.0603 0.307617 27.9603 0.307617H25.489C25.389 0.307617 25.3125 0.383942 25.3125 0.48375V11.5919C25.3125 14.3278 26.2304 15.5548 29.0017 15.5548H29.3194C29.4489 15.5548 29.5548 15.4492 29.5548 15.32V13.3414C29.5548 13.2416 29.4783 13.1653 29.3783 13.1653H29.337C28.6192 13.1653 28.1367 12.8483 28.1367 11.8678Z" fill="white"/>
<path d="M34.021 11.8678V0.48375C34.021 0.383942 33.9445 0.307617 33.8445 0.307617H31.3733C31.2732 0.307617 31.1968 0.383942 31.1968 0.48375V11.5919C31.1968 14.3278 32.1146 15.5548 34.8859 15.5548H35.2037C35.3331 15.5548 35.439 15.4492 35.439 15.32V13.3414C35.439 13.2416 35.3625 13.1653 35.2625 13.1653H35.2213C34.5035 13.1653 34.021 12.8483 34.021 11.8678Z" fill="white"/>
<path d="M1.74195 19.6005V17.4693C1.74195 17.3695 1.81844 17.2932 1.91846 17.2932H2.89518C3.51298 17.2932 4.07195 16.706 4.35437 16.1189C4.35437 16.1131 4.36026 16.1072 4.36026 16.1013L4.47205 15.7608C4.51912 15.6258 4.51324 15.479 4.4544 15.3498L0.0415079 5.21044C-0.0114469 5.09304 0.0768105 4.96387 0.206255 4.96387H2.7422C2.83634 4.96387 2.91872 5.01669 2.95402 5.10479L5.9842 11.8037C6.0254 11.8976 6.1607 11.8976 6.2019 11.8037L9.02615 5.11654C9.06145 5.02844 9.1497 4.97561 9.24385 4.97561H11.8092C11.9386 4.97561 12.021 5.10479 11.974 5.22219L6.8197 17.1816C6.1666 18.7668 4.67211 19.7884 2.90107 19.7884H1.92435C1.82432 19.7766 1.74195 19.7003 1.74195 19.6005Z" fill="white"/>
<path d="M59.8565 5.05194C59.886 5.00494 59.9505 4.96973 60.0095 4.96973H62.416H62.4865C62.5395 4.96973 62.663 5.02844 62.628 5.07539L55.179 15.3733C55.132 15.4379 55.0555 15.479 54.973 15.479H52.7075C52.584 15.479 52.443 15.3381 52.5135 15.2324L59.8565 5.05194Z" fill="#FCD000"/>
<path d="M48.3831 4.97559H50.9075C51.0015 4.97559 51.0895 5.03429 51.125 5.12239L55.1555 15.2441C55.2025 15.3615 55.1145 15.4848 54.9905 15.4848H52.59C52.496 15.4848 52.4075 15.4261 52.3725 15.3381L48.2243 5.21629C48.1713 5.09889 48.2537 4.97559 48.3831 4.97559Z" fill="white"/>
<path d="M54.1729 4.97559H56.6969C56.7909 4.97559 56.8794 5.03429 56.9144 5.12239L60.9449 15.2441C60.9919 15.3615 60.9039 15.4848 60.7804 15.4848H58.3794C58.2854 15.4848 58.1974 15.4261 58.1619 15.3381L54.0139 5.21629C53.9669 5.09889 54.0489 4.97559 54.1729 4.97559Z" fill="white"/>
<path d="M63.6635 7.32404L62.74 5.11649C62.7045 5.02844 62.616 4.96973 62.522 4.96973H60.004C59.8745 4.96973 59.792 5.09889 59.839 5.21629L60.7865 7.42384C60.8215 7.51189 60.91 7.56474 61.004 7.56474H63.499C63.6285 7.57064 63.7105 7.44144 63.6635 7.32404Z" fill="white"/>
<path d="M43.1878 9.04395H41.1344C40.9931 9.04395 40.8755 9.16139 40.8755 9.30229V11.1869C40.8755 11.3278 40.9931 11.4452 41.1344 11.4452H43.1878C43.329 11.4452 43.4467 11.3278 43.4467 11.1869V9.30229C43.4467 9.16139 43.329 9.04395 43.1878 9.04395Z" fill="#FCD000"/>
<path d="M39.1102 9.12588C39.2279 9.12588 39.3279 9.05543 39.3809 8.94973C39.8575 7.91058 40.9283 7.16493 42.1463 7.16493C43.3701 7.16493 44.441 7.88123 44.9117 8.94388C44.9587 9.04958 45.0646 9.12003 45.1823 9.12003H47.4653C47.5888 9.12003 47.6712 9.02023 47.6359 8.89693C47.0063 6.53673 44.8175 4.76953 42.1521 4.76953C39.4868 4.76953 37.2921 6.53088 36.6684 8.89693C36.639 9.02023 36.7155 9.12003 36.839 9.12003H39.1102V9.12588Z" fill="white"/>
<path d="M45.1999 11.3926C45.0822 11.3926 44.9763 11.4631 44.9293 11.5687C44.4527 12.6314 43.3818 13.3477 42.1639 13.3477C40.9459 13.3477 39.875 12.602 39.3984 11.5629C39.3514 11.4572 39.2455 11.3867 39.1278 11.3867H36.8566C36.7331 11.3867 36.6507 11.4865 36.686 11.6098C37.3156 13.97 39.5043 15.7372 42.1697 15.7372C44.8351 15.7372 47.0298 13.9759 47.6535 11.6098C47.6829 11.4865 47.6064 11.3867 47.4829 11.3867H45.1999V11.3926Z" fill="white"/>
</g>
<defs>
<clipPath id="clip0_52_2682">
<rect width="64" height="20" fill="white"/>
</clipPath>
</defs>
</svg>
