<svg width="163" height="26" viewBox="0 0 163 26" fill="none" xmlns="http://www.w3.org/2000/svg">
<g clip-path="url(#clip0_52_2664)">
<path d="M29.3773 11.6972L23.3488 1.27601C23.1183 0.887255 22.7901 0.565111 22.3966 0.341349C22.0032 0.117587 21.558 -6.38096e-05 21.105 2.59634e-08H9.04674C8.59199 9.24209e-05 8.14526 0.119464 7.75143 0.346127C7.35759 0.572791 7.0305 0.898767 6.80301 1.29132L0.774507 11.7087C0.54949 12.1021 0.431152 12.5471 0.431152 13C0.431152 13.4529 0.54949 13.8979 0.774507 14.2913L6.80301 24.7087C7.0295 25.1021 7.35637 25.4288 7.75043 25.6556C8.14449 25.8824 8.59173 26.0012 9.04674 26H21.1037C21.5585 25.9999 22.0052 25.8805 22.3991 25.6539C22.7929 25.4272 23.12 25.1012 23.3475 24.7087L29.376 14.2913C29.6014 13.896 29.72 13.4491 29.7202 12.9944C29.7204 12.5397 29.6022 12.0927 29.3773 11.6972ZM15.0752 21.9372V20.1508C16.4952 20.1508 17.8832 19.731 19.0638 18.9446C20.2444 18.1581 21.1646 17.0403 21.7079 15.7325C22.2513 14.4247 22.3935 12.9857 22.1165 11.5973C21.8395 10.209 21.1557 8.9337 20.1517 7.93275C19.1477 6.93181 17.8685 6.25016 16.4758 5.974C15.0832 5.69784 13.6397 5.83957 12.3279 6.38128C11.0161 6.92299 9.89484 7.84034 9.10599 9.01732C8.31713 10.1943 7.89608 11.5781 7.89608 12.9936C7.89208 14.5545 8.40649 16.0728 9.35905 17.3116L10.6543 16.0535C10.0252 15.1558 9.68985 14.0862 9.69439 12.9911C9.69439 11.9278 10.0106 10.8885 10.6032 10.0044C11.1957 9.12036 12.0379 8.43133 13.0232 8.02444C14.0085 7.61756 15.0927 7.5111 16.1388 7.71853C17.1848 7.92596 18.1456 8.43795 18.8998 9.18978C19.6539 9.9416 20.1675 10.8995 20.3755 11.9423C20.5836 12.9851 20.4768 14.066 20.0687 15.0483C19.6605 16.0306 18.9694 16.8702 18.0826 17.4609C17.1958 18.0516 16.1533 18.3669 15.0868 18.3669V16.5805C15.7974 16.5785 16.4915 16.3665 17.0814 15.9715C17.6713 15.5764 18.1306 15.0159 18.4011 14.3608C18.6717 13.7056 18.7414 12.9853 18.6015 12.2907C18.4617 11.5961 18.1184 10.9583 17.6152 10.4581C17.112 9.95784 16.4713 9.61748 15.7742 9.48C15.077 9.34252 14.3547 9.4141 13.6983 9.68568C13.0419 9.95727 12.481 10.4167 12.0864 11.0059C11.6918 11.5951 11.4812 12.2877 11.4812 12.9962C11.479 13.6236 11.6447 14.2403 11.9612 14.7826L13.3013 13.4798C13.2565 13.3242 13.2341 13.1631 13.2347 13.0013C13.2347 12.6381 13.3427 12.2831 13.5451 11.9811C13.7475 11.6792 14.0351 11.4438 14.3717 11.3049C14.7082 11.1659 15.0786 11.1295 15.4359 11.2004C15.7931 11.2712 16.1213 11.4461 16.3789 11.7029C16.6365 11.9597 16.8119 12.2869 16.883 12.6431C16.954 12.9992 16.9176 13.3684 16.7782 13.704C16.6388 14.0395 16.4027 14.3262 16.0998 14.528C15.7969 14.7298 15.4408 14.8375 15.0765 14.8375C14.8979 14.836 14.7207 14.8058 14.5518 14.7481L9.91838 19.255C9.87511 19.298 9.82651 19.3353 9.77375 19.366C9.76223 19.3775 9.74047 19.3775 9.72895 19.3877C9.69422 19.4108 9.65683 19.4297 9.61759 19.4439C9.59583 19.4553 9.5728 19.4553 9.55104 19.4655L9.44992 19.4987C9.42832 19.4982 9.40687 19.5025 9.38721 19.5115C9.35393 19.5115 9.32065 19.523 9.29761 19.523C9.26433 19.523 9.23105 19.5115 9.19649 19.5115C9.16998 19.5124 9.14352 19.5085 9.11842 19.5L9.0173 19.4668C8.99554 19.4553 8.97251 19.4553 8.95075 19.4451C8.91477 19.4308 8.88079 19.4119 8.84963 19.389C8.82945 19.3805 8.81051 19.3693 8.79331 19.3558C8.76109 19.3327 8.7311 19.3066 8.70372 19.278C8.6922 19.2665 8.67044 19.2563 8.65892 19.2333C7.21518 17.7544 6.32906 15.8231 6.15087 13.7671C5.97269 11.711 6.51342 9.65684 7.68133 7.95297C8.84924 6.2491 10.5724 5.00046 12.5586 4.41886C14.5447 3.83726 16.6715 3.95851 18.5782 4.76206C20.4849 5.5656 22.054 7.00195 23.0195 8.82745C23.9849 10.653 24.2872 12.7552 23.8751 14.7776C23.4629 16.8 22.3617 18.6179 20.7583 19.9231C19.1548 21.2283 17.1479 21.9404 15.0778 21.9385L15.0752 21.9372ZM36.6345 4.61916H42.1498C47.4858 4.56302 51.4165 8.00314 51.3384 12.9668C51.4165 17.831 47.4871 21.4931 42.1498 21.414H36.6345V4.61916ZM42.1165 18.321C45.5109 18.321 47.7879 16.2066 47.7879 12.9783C47.7879 9.71682 45.5659 7.73645 42.1165 7.73645H40.0686V18.3273H42.1165V18.321ZM63.9765 21.4255H60.8061V20.2018C60.3021 20.704 59.7005 21.0982 59.0383 21.3604C58.376 21.6226 57.6671 21.7472 56.9548 21.7266C54.2759 21.7266 52.5889 20.1686 52.5889 17.965C52.5889 15.6949 54.4308 14.3028 57.3669 14.3028H60.5373V13.7465C60.564 13.4384 60.5206 13.1282 60.4105 12.8391C60.3004 12.55 60.1263 12.2894 59.9013 12.0765C59.6762 11.8637 59.406 11.7042 59.1106 11.6098C58.8152 11.5154 58.5023 11.4886 58.1951 11.5313C57.5412 11.5488 56.8999 11.7143 56.3197 12.0151C55.7394 12.316 55.2353 12.7444 54.8455 13.268L53.0535 11.1536C53.7114 10.3255 54.5525 9.66046 55.5111 9.21042C56.4696 8.76038 57.5197 8.53759 58.579 8.55948C59.3073 8.49042 60.0418 8.5826 60.7302 8.82943C61.4185 9.07626 62.0437 9.47164 62.5609 9.98732C63.0782 10.503 63.4748 11.1262 63.7224 11.8125C63.97 12.4987 64.0624 13.231 63.9932 13.957V21.4255H63.9765ZM60.5207 16.5613H57.8252C56.6975 16.5613 56.0614 16.9952 56.0614 17.8297C56.0614 18.6642 56.7756 19.1989 57.8699 19.1989C58.2108 19.2181 58.552 19.1679 58.8728 19.0514C59.1936 18.935 59.4872 18.7546 59.7358 18.5213C59.9844 18.288 60.1828 18.0067 60.3188 17.6946C60.4549 17.3824 60.5257 17.0459 60.5271 16.7055L60.5207 16.5613ZM73.8781 21.7266C73.1756 21.749 72.4761 21.6249 71.8244 21.3623C71.1727 21.0997 70.5831 20.7045 70.0933 20.2018V26H66.6375V8.82872H69.8079V10.4071C70.2831 9.79009 70.9023 9.29814 71.6116 8.97412C72.321 8.65009 73.0991 8.50381 73.8781 8.548C74.72 8.55589 75.5514 8.73462 76.3216 9.07329C77.0919 9.41196 77.785 9.90347 78.3585 10.5179C78.932 11.1323 79.374 11.8567 79.6576 12.6469C79.9411 13.4372 80.0603 14.2767 80.0077 15.1144C80.0612 15.9545 79.943 16.7967 79.6604 17.5899C79.3777 18.3832 78.9365 19.111 78.3634 19.7292C77.7903 20.3474 77.0972 20.8432 76.3263 21.1866C75.5553 21.5299 74.7224 21.7136 73.8781 21.7266ZM73.2382 11.6538C72.7923 11.6455 72.3498 11.7317 71.9398 11.9065C71.5299 12.0814 71.1618 12.341 70.86 12.6682C70.5581 12.9955 70.3294 13.3828 70.1888 13.8047C70.0483 14.2266 69.9992 14.6734 70.0447 15.1156C69.999 15.5589 70.0479 16.0069 70.1881 16.43C70.3283 16.8532 70.5567 17.242 70.8582 17.571C71.1598 17.8999 71.5277 18.1616 71.9379 18.3388C72.3481 18.516 72.7912 18.6047 73.2382 18.5991C73.6855 18.6009 74.1284 18.511 74.5395 18.3351C74.9505 18.1591 75.3209 17.9008 75.6277 17.5762C75.9344 17.2516 76.171 16.8676 76.3227 16.4481C76.4745 16.0285 76.5381 15.5824 76.5097 15.1373C76.5439 14.6902 76.4846 14.2409 76.3355 13.8179C76.1864 13.3948 75.9508 13.0073 75.6436 12.6798C75.3364 12.3523 74.9643 12.092 74.5509 11.9154C74.1375 11.7387 73.6918 11.6497 73.242 11.6538H73.2382ZM89.2962 21.7266C88.5937 21.749 87.8942 21.6249 87.2425 21.3623C86.5908 21.0997 86.0012 20.7045 85.5115 20.2018V26H82.0556V8.82872H85.2363V10.4071C85.7104 9.79156 86.328 9.30052 87.0354 8.97656C87.7429 8.6526 88.5189 8.5055 89.2962 8.548C90.1381 8.55589 90.9695 8.73462 91.7398 9.07329C92.51 9.41196 93.2031 9.90347 93.7766 10.5179C94.3501 11.1323 94.7922 11.8567 95.0757 12.6469C95.3593 13.4372 95.4784 14.2767 95.4259 15.1144C95.4793 15.9545 95.3612 16.7967 95.0785 17.5899C94.7958 18.3832 94.3546 19.111 93.7815 19.7292C93.2084 20.3474 92.5154 20.8432 91.7444 21.1866C90.9734 21.5299 90.1405 21.7136 89.2962 21.7266ZM88.6563 11.6538C88.2104 11.6455 87.7679 11.7317 87.358 11.9065C86.948 12.0814 86.5799 12.341 86.2781 12.6682C85.9762 12.9955 85.7475 13.3828 85.607 13.8047C85.4664 14.2266 85.4173 14.6734 85.4628 15.1156C85.4171 15.5589 85.466 16.0069 85.6062 16.43C85.7464 16.8532 85.9748 17.242 86.2764 17.571C86.5779 17.8999 86.9459 18.1616 87.356 18.3388C87.7662 18.516 88.2093 18.6047 88.6563 18.5991C89.1036 18.6009 89.5466 18.511 89.9576 18.3351C90.3686 18.1591 90.739 17.9008 91.0458 17.5762C91.3526 17.2516 91.5891 16.8676 91.7409 16.4481C91.8926 16.0285 91.9562 15.5824 91.9278 15.1373C91.963 14.69 91.9044 14.2403 91.7557 13.8168C91.607 13.3933 91.3714 13.0054 91.064 12.6777C90.7566 12.35 90.3841 12.0897 89.9702 11.9134C89.5563 11.7371 89.1102 11.6487 88.6601 11.6538H88.6563ZM107.964 21.4255L103.598 15.4933H101.076V21.4255H97.6197V4.61916H103.95C107.478 4.61916 110.024 6.81135 110.024 10.0397C110.042 11.036 109.772 12.0165 109.248 12.8649C108.724 13.7133 107.966 14.3939 107.066 14.826L111.844 21.4153H107.964V21.4255ZM101.065 12.4666H103.949C104.282 12.5019 104.619 12.4648 104.936 12.3578C105.254 12.2509 105.544 12.0766 105.787 11.847C106.031 11.6174 106.221 11.338 106.346 11.028C106.47 10.7179 106.526 10.3847 106.509 10.0511C106.519 9.72027 106.459 9.39095 106.332 9.08513C106.205 8.7793 106.014 8.50401 105.772 8.2776C105.53 8.0512 105.242 7.87888 104.927 7.77214C104.613 7.66541 104.279 7.6267 103.949 7.65862H101.069L101.065 12.4666ZM123.426 21.4255H120.255V20.2018C119.751 20.704 119.15 21.0982 118.488 21.3604C117.825 21.6226 117.116 21.7472 116.404 21.7266C113.725 21.7266 112.038 20.1686 112.038 17.965C112.038 15.6949 113.88 14.3028 116.816 14.3028H119.987V13.7465C120.013 13.4381 119.97 13.1277 119.86 12.8384C119.749 12.5491 119.575 12.2883 119.35 12.0754C119.124 11.8625 118.854 11.7031 118.558 11.6088C118.262 11.5146 117.949 11.4881 117.642 11.5313C116.988 11.5488 116.347 11.7143 115.766 12.0151C115.186 12.316 114.682 12.7444 114.292 13.268L112.5 11.1536C113.157 10.3272 113.997 9.66316 114.953 9.21341C115.91 8.76365 116.958 8.54029 118.015 8.56076C118.744 8.49169 119.478 8.58387 120.167 8.8307C120.855 9.07753 121.48 9.47292 121.997 9.9886C122.515 10.5043 122.911 11.1275 123.159 11.8137C123.406 12.5 123.499 13.2323 123.43 13.9583V21.4268L123.426 21.4255ZM119.97 16.5613H117.268C116.14 16.5613 115.504 16.9952 115.504 17.8297C115.504 18.6642 116.218 19.1989 117.313 19.1989C117.654 19.2181 117.995 19.1679 118.316 19.0514C118.636 18.935 118.93 18.7546 119.179 18.5213C119.427 18.288 119.626 18.0067 119.762 17.6946C119.898 17.3824 119.969 17.0459 119.97 16.7055V16.5613ZM138.744 2.32617V21.414H135.574V19.856C135.099 20.4721 134.481 20.9635 133.773 21.2875C133.065 21.6115 132.288 21.7583 131.51 21.7152C130.666 21.7065 129.833 21.5265 129.062 21.1861C128.29 20.8457 127.596 20.3521 127.023 19.7354C126.449 19.1187 126.008 18.3919 125.725 17.5993C125.443 16.8068 125.325 15.9651 125.38 15.1258C125.325 14.2865 125.443 13.4449 125.725 12.6523C126.008 11.8598 126.449 11.133 127.023 10.5163C127.596 9.89955 128.29 9.40593 129.062 9.06554C129.833 8.72515 130.666 8.54514 131.51 8.53651C132.212 8.5029 132.913 8.61967 133.566 8.87896C134.219 9.13825 134.808 9.53404 135.295 10.0397V2.32617H138.744ZM132.158 11.6538C131.71 11.652 131.267 11.7419 130.856 11.9179C130.445 12.0939 130.075 12.3522 129.768 12.6768C129.461 13.0014 129.225 13.3853 129.073 13.8049C128.921 14.2244 128.858 14.6706 128.886 15.1156C128.851 15.5633 128.909 16.0133 129.058 16.437C129.207 16.8608 129.443 17.2489 129.751 17.5767C130.059 17.9045 130.432 18.1647 130.846 18.3407C131.261 18.5168 131.707 18.6048 132.158 18.5991C132.603 18.6074 133.046 18.5213 133.456 18.3464C133.866 18.1715 134.234 17.9119 134.536 17.5847C134.838 17.2575 135.066 16.8701 135.207 16.4482C135.347 16.0264 135.396 15.5795 135.351 15.1373C135.395 14.6944 135.345 14.2472 135.204 13.8248C135.063 13.4025 134.834 13.0144 134.533 12.6858C134.232 12.3573 133.865 12.0956 133.456 11.9178C133.046 11.74 132.604 11.65 132.158 11.6538ZM152.118 21.4255H148.948V20.2018C148.444 20.704 147.842 21.0982 147.18 21.3604C146.518 21.6226 145.809 21.7472 145.096 21.7266C142.417 21.7266 140.731 20.1686 140.731 17.965C140.731 15.6949 142.572 14.3028 145.509 14.3028H148.679V13.7465C148.706 13.4381 148.662 13.1277 148.552 12.8384C148.442 12.5491 148.267 12.2883 148.042 12.0754C147.817 11.8625 147.546 11.7031 147.25 11.6088C146.955 11.5146 146.641 11.4881 146.334 11.5313C145.68 11.5488 145.039 11.7143 144.459 12.0151C143.878 12.316 143.374 12.7444 142.984 13.268L141.193 11.1536C141.849 10.3272 142.689 9.66316 143.646 9.21341C144.602 8.76365 145.65 8.54029 146.708 8.56076C147.436 8.49169 148.171 8.58387 148.859 8.8307C149.547 9.07753 150.172 9.47292 150.69 9.9886C151.207 10.5043 151.604 11.1275 151.851 11.8137C152.099 12.5 152.191 13.2323 152.122 13.9583V21.4268L152.118 21.4255ZM148.679 16.5613H145.978C144.851 16.5613 144.215 16.9952 144.215 17.8297C144.215 18.6642 144.929 19.1989 146.023 19.1989C146.364 19.2181 146.705 19.1679 147.026 19.0514C147.347 18.935 147.64 18.7546 147.889 18.5213C148.138 18.288 148.336 18.0067 148.472 17.6946C148.608 17.3824 148.679 17.0459 148.68 16.7055L148.679 16.5613ZM162.557 11.8541H161.642C161.192 11.802 160.737 11.8501 160.308 11.9952C159.879 12.1402 159.488 12.3785 159.164 12.6928C158.839 13.0071 158.588 13.3895 158.43 13.8122C158.271 14.235 158.209 14.6877 158.248 15.1373V21.4255H154.792V8.82617H157.962V10.3293C158.375 9.80663 158.903 9.38533 159.505 9.09777C160.107 8.81021 160.767 8.66404 161.435 8.67049C161.817 8.66042 162.198 8.71302 162.562 8.82617V11.8541H162.557Z" fill="white"/>
</g>
<defs>
<clipPath id="clip0_52_2664">
<rect width="163" height="26" fill="white"/>
</clipPath>
</defs>
</svg>
