<svg width="169" height="15" viewBox="0 0 169 15" fill="none" xmlns="http://www.w3.org/2000/svg">
<path d="M18.7883 3.81625H11.1556V13.796H7.63278V3.81625H0V0.293945H18.7883V3.81625V3.81625Z" fill="white"/>
<path d="M38.7423 9.54022C38.7423 11.8882 36.8342 13.7966 34.4853 13.7966H24.0148C21.6664 13.7966 19.7578 11.8888 19.7578 9.54022V4.55033C19.7578 2.20232 21.6659 0.293945 24.0148 0.293945H34.4853C36.8337 0.293945 38.7423 2.20174 38.7423 4.55033V9.54022V9.54022ZM35.2195 10.2737V3.81625H23.2806V10.2737H35.2195Z" fill="white"/>
<path d="M60.1352 13.7966H52.4778L45.4076 10.1274C44.4287 9.61398 43.6951 8.6352 43.5482 7.48549V13.7966H40.0254V0.293945H43.5482V6.5073C43.6951 5.35759 44.4287 4.37881 45.4076 3.86542L52.3068 0.293945H59.9642L46.8514 6.9961L60.1352 13.7966Z" fill="white"/>
<path d="M77.8487 13.7966H63.1212C60.7723 13.7966 58.8643 11.8888 58.8643 9.54022V4.55033C58.8643 2.20232 60.7723 0.293945 63.1212 0.293945H77.8487V3.81625H62.387V5.28383H77.8487V8.80613H62.387V10.2737H77.8487V13.7966Z" fill="white"/>
<path d="M98.5469 0.293281V10.5669C98.5469 12.5239 96.9813 14.0892 95.0241 14.0892C94.0452 14.0892 93.1646 13.6982 92.5288 13.0619L82.9388 3.5223V13.7959H79.416V3.5223C79.416 1.56534 81.0062 0 82.9388 0C83.9177 0 84.7737 0.415628 85.4341 1.05195L95.0241 10.5675V0.293281H98.5469Z" fill="white"/>
<path d="M123.599 13.7959H120.076V3.5223L114.914 12.3524C114.302 13.3797 113.152 14.0892 111.856 14.0892C110.56 14.0892 109.434 13.3797 108.823 12.3524L103.636 3.5223V13.7959H100.113V3.5223C100.113 1.56534 101.703 0 103.636 0C105.006 0 106.107 0.782669 106.768 1.88321L111.856 10.5669L116.969 1.88321C117.605 0.782669 118.731 0 120.076 0C122.033 0 123.599 1.56534 123.599 3.5223V13.7959V13.7959Z" fill="white"/>
<path d="M148.313 13.7959H143.836L141.928 11.2032H130.552L128.644 13.7959H124.167L133.17 1.73686C133.903 0.782669 134.955 0 136.252 0C137.525 0 138.601 0.782669 139.31 1.73686L148.313 13.7959ZM139.359 7.68035L136.228 3.37537L133.096 7.68035H139.359Z" fill="white"/>
<path d="M168.012 0.293281V10.5669C168.012 12.5239 166.447 14.0892 164.489 14.0892C163.511 14.0892 162.63 13.6982 161.994 13.0619L152.404 3.5223V13.7959H148.881V3.5223C148.881 1.56534 150.471 0 152.404 0C153.383 0 154.239 0.415628 154.899 1.05195L164.489 10.5675V0.293281H168.012Z" fill="white"/>
</svg>
