<svg width="97" height="30" viewBox="0 0 97 30" fill="none" xmlns="http://www.w3.org/2000/svg">
<g clip-path="url(#clip0_52_2682)">
<path d="M31.4013 18.1676C31.2855 18.0884 31.134 18.106 31.0449 18.2117C29.8509 19.5855 28.541 19.9466 27.1866 19.9466C24.0946 19.9466 22.2501 17.8594 22.2501 15.3055C22.2501 12.7515 24.3174 10.6643 26.848 10.6643C28.9509 10.6643 30.5014 11.8885 31.1697 13.6498C31.2142 13.7731 31.1251 13.914 30.9825 13.914H26.2064C26.055 13.914 25.9391 14.0285 25.9391 14.1782V16.4327C25.9391 16.5824 26.055 16.6969 26.2064 16.6969H31.2588H34.9923C35.1706 16.6969 35.3132 16.5736 35.3399 16.3975C35.4022 16.0188 35.4289 15.6753 35.4289 15.3055C35.4289 10.7612 31.5796 7.09766 26.8837 7.09766C22.1877 7.09766 18.3384 10.7612 18.3384 15.3055C18.3384 19.8497 22.1877 23.5133 26.8837 23.5133C29.9489 23.5133 32.3459 22.2715 33.9498 20.2636C34.0211 20.1755 34.0033 20.0522 33.9141 19.9818L31.4013 18.1676Z" fill="white"/>
<path d="M42.6106 17.6567V0.580606C42.6106 0.430893 42.4948 0.316406 42.3433 0.316406H38.6008C38.4493 0.316406 38.3335 0.430893 38.3335 0.580606V17.2428C38.3335 21.3467 39.7236 23.1873 43.9205 23.1873H44.4016C44.5977 23.1873 44.7581 23.0288 44.7581 22.835V19.8672C44.7581 19.7175 44.6423 19.6029 44.4908 19.6029H44.4284C43.3413 19.6029 42.6106 19.1274 42.6106 17.6567Z" fill="white"/>
<path d="M51.5222 17.6567V0.580606C51.5222 0.430893 51.4064 0.316406 51.2549 0.316406H47.5124C47.3609 0.316406 47.2451 0.430893 47.2451 0.580606V17.2428C47.2451 21.3467 48.6351 23.1873 52.832 23.1873H53.3133C53.5093 23.1873 53.6697 23.0288 53.6697 22.835V19.8672C53.6697 19.7175 53.5538 19.6029 53.4023 19.6029H53.34C52.2529 19.6029 51.5222 19.1274 51.5222 17.6567Z" fill="white"/>
<path d="M2.6384 29.2568V26.0599C2.6384 25.9102 2.75424 25.7957 2.90572 25.7957H4.38489C5.3205 25.7957 6.16701 24.915 6.59473 24.0344C6.59473 24.0256 6.60364 24.0167 6.60364 24.008L6.77294 23.4972C6.84423 23.2946 6.83531 23.0744 6.74621 22.8807L0.0632196 7.67161C-0.0169762 7.49551 0.116683 7.30176 0.312717 7.30176H4.15321C4.29578 7.30176 4.42053 7.38099 4.474 7.51314L9.06297 17.5615C9.12536 17.7024 9.33027 17.7024 9.39266 17.5615L13.6698 7.53076C13.7232 7.39861 13.8569 7.31937 13.9995 7.31937H17.8846C18.0805 7.31937 18.2053 7.51314 18.1341 7.68924L10.3283 25.6284C9.3392 28.0062 7.0759 29.5385 4.3938 29.5385H2.91463C2.76315 29.5209 2.6384 29.4065 2.6384 29.2568Z" fill="white"/>
<path d="M90.648 7.43386C90.6927 7.36336 90.7903 7.31055 90.8797 7.31055H94.5242H94.6309C94.7112 7.31055 94.8982 7.39861 94.8452 7.46904L83.5643 22.9159C83.4931 23.0128 83.3773 23.0744 83.2523 23.0744H79.8214C79.6344 23.0744 79.4208 22.8631 79.5276 22.7045L90.648 7.43386Z" fill="white" fill-opacity="0.8"/>
<path d="M73.2725 7.31934H77.0955C77.2378 7.31934 77.3711 7.40739 77.4249 7.53954L83.5287 22.7222C83.5999 22.8983 83.4667 23.0832 83.2789 23.0832H79.6435C79.5011 23.0832 79.3671 22.9952 79.3141 22.8631L73.032 7.68039C72.9518 7.50429 73.0765 7.31934 73.2725 7.31934Z" fill="white"/>
<path d="M82.0404 7.31934H85.8628C86.0052 7.31934 86.1392 7.40739 86.1922 7.53954L92.2961 22.7222C92.3673 22.8983 92.234 23.0832 92.047 23.0832H88.4108C88.2685 23.0832 88.1352 22.9952 88.0815 22.8631L81.7996 7.68039C81.7284 7.50429 81.8526 7.31934 82.0404 7.31934Z" fill="white"/>
<path d="M96.4132 10.842L95.0146 7.53069C94.9608 7.39861 94.8268 7.31055 94.6845 7.31055H90.8711C90.675 7.31055 90.5501 7.50429 90.6213 7.68039L92.0562 10.9917C92.1092 11.1238 92.2432 11.2031 92.3856 11.2031H96.1641C96.3602 11.2119 96.4844 11.0181 96.4132 10.842Z" fill="white"/>
<path d="M65.4042 13.4209H62.2944C62.0805 13.4209 61.9023 13.5971 61.9023 13.8084V16.6353C61.9023 16.8467 62.0805 17.0228 62.2944 17.0228H65.4042C65.6181 17.0228 65.7963 16.8467 65.7963 16.6353V13.8084C65.7963 13.5971 65.6181 13.4209 65.4042 13.4209Z" fill="white" fill-opacity="0.8"/>
<path d="M59.2294 13.5443C59.4077 13.5443 59.5591 13.4386 59.6393 13.2801C60.3611 11.7213 61.9828 10.6029 63.8274 10.6029C65.6807 10.6029 67.3025 11.6773 68.0153 13.2713C68.0866 13.4298 68.247 13.5355 68.4252 13.5355H71.8826C72.0697 13.5355 72.1944 13.3858 72.1409 13.2009C71.1875 9.66056 67.8728 7.00977 63.8362 7.00977C59.7997 7.00977 56.476 9.65178 55.5315 13.2009C55.487 13.3858 55.6028 13.5355 55.7899 13.5355H59.2294V13.5443Z" fill="white"/>
<path d="M68.4516 16.9444C68.2733 16.9444 68.113 17.0501 68.0417 17.2085C67.3199 18.8026 65.6982 19.877 63.8537 19.877C62.0091 19.877 60.3874 18.7585 59.6657 17.1998C59.5944 17.0412 59.434 16.9355 59.2558 16.9355H55.8163C55.6292 16.9355 55.5044 17.0852 55.5579 17.2702C56.5113 20.8105 59.826 23.4613 63.8626 23.4613C67.8991 23.4613 71.2228 20.8193 72.1674 17.2702C72.2119 17.0852 72.096 16.9355 71.9089 16.9355H68.4516V16.9444Z" fill="white"/>
</g>
<defs>
<clipPath id="clip0_52_2682">
<rect width="96.9231" height="30.2885" fill="white" transform="translate(0 -0.144531)"/>
</clipPath>
</defs>
</svg>
