<svg width="165" height="20" viewBox="0 0 165 20" fill="none" xmlns="http://www.w3.org/2000/svg">
<path d="M56.3642 0C55.8761 0 55.4972 0.0718552 55.2286 0.210191C54.9554 0.352261 54.6986 0.580939 54.4536 0.90005L43.5561 15.254L32.7424 0.90005C32.4983 0.580939 32.2278 0.352261 31.9264 0.210191C31.6276 0.0718552 31.2242 0 30.7206 0C30.064 0 29.5157 0.141979 29.0768 0.422386C28.636 0.702701 28.4165 1.14357 28.4165 1.743V19.5794H32.2916V6.96662L41.6181 19.1846C42.0498 19.7288 42.6763 20 43.4987 20C44.3238 20 44.9504 19.7288 45.382 19.1846L54.7359 6.96662V19.5794H58.6683V1.743C58.6683 1.14357 58.447 0.702701 58.0081 0.422386C57.5673 0.141979 57.019 0 56.3642 0Z" fill="white"/>
<path d="M67.0083 19.5799H71.2786V0.422852H67.0083V19.5799Z" fill="white"/>
<path d="M94.6219 13.0909C95.9315 13.0909 97.0635 13.0079 98.0207 12.8382C98.9751 12.6686 99.7656 12.3752 100.393 11.9528C101.021 11.5323 101.485 10.9624 101.784 10.2393C102.082 9.51807 102.232 8.60691 102.232 7.50204V6.17951C102.232 5.03967 102.093 4.09345 101.81 3.34458C101.531 2.5957 101.087 2.00548 100.478 1.57562C99.8694 1.14404 99.0871 0.845237 98.1318 0.675572C97.1783 0.507729 96.0253 0.422852 94.6766 0.422852H79.6772V4.01959H94.397C95.0882 4.01959 95.6692 4.04728 96.1382 4.10265C96.6063 4.15793 96.9697 4.27049 97.2338 4.44015C97.497 4.608 97.6837 4.85152 97.7957 5.17063C97.9068 5.48783 97.9642 5.90102 97.9642 6.40646V7.44485C97.9642 7.96868 97.9068 8.39298 97.7957 8.71018C97.6837 9.02929 97.4916 9.27099 97.2183 9.44066C96.9479 9.6085 96.5827 9.72097 96.1228 9.77816C95.6638 9.83353 95.0882 9.86122 94.397 9.86122H79.6772V19.5799H83.9175V12.6132L95.1255 19.5799H102.487L91.2496 13.0909H94.6219Z" fill="white"/>
<path d="M115.561 15.8299C115.156 15.745 114.843 15.5919 114.618 15.3651C114.395 15.142 114.24 14.8412 114.157 14.4669C114.071 14.0924 114.03 13.6147 114.03 13.0337V11.6871H130.35V8.29883H109.79V13.006C109.79 14.2233 109.905 15.2489 110.139 16.0808C110.374 16.9145 110.77 17.5896 111.333 18.1042C111.896 18.6207 112.643 18.9932 113.582 19.2294C114.519 19.4617 115.686 19.5798 117.092 19.5798H130.461V15.9553H117.092C116.474 15.9553 115.965 15.913 115.561 15.8299Z" fill="white"/>
<path d="M130.429 0.422852H117.094C115.689 0.422852 114.519 0.539057 113.582 0.773381C112.643 1.00761 111.897 1.38201 111.334 1.89665C110.773 2.41311 110.377 3.09003 110.14 3.9348C110.134 3.95147 110.134 3.9736 110.129 3.992H130.429V0.422852Z" fill="white"/>
<path d="M5.77142 15.8299C5.36752 15.745 5.05578 15.5919 4.83074 15.3651C4.60571 15.142 4.45262 14.8412 4.36774 14.4669C4.28104 14.0924 4.24052 13.6147 4.24052 13.0337V11.6871H20.5607V8.29883H0V13.006C0 14.2233 0.116209 15.2489 0.350443 16.0808C0.584676 16.9145 0.981283 17.5896 1.54383 18.1042C2.10637 18.6207 2.85342 18.9932 3.79227 19.2294C4.72929 19.4617 5.89691 19.5798 7.3024 19.5798H20.6732V15.9553H7.3024C6.68449 15.9553 6.17358 15.913 5.77142 15.8299Z" fill="white"/>
<path d="M20.6401 0.422852H7.30243C5.89685 0.422852 4.72932 0.539057 3.7923 0.773381C2.85345 1.00761 2.1064 1.38201 1.54386 1.89665C0.981313 2.41311 0.584699 3.09003 0.350466 3.9348C0.34491 3.95147 0.344911 3.9736 0.339355 3.992H20.6401V0.422852Z" fill="white"/>
<path d="M164.761 19.5799L154.002 9.63619L164.423 0.422852H158.609L151.095 7.05934L143.608 0.422852H137.456L147.85 9.66387L136.84 19.5799H142.795L150.852 12.4288L158.553 19.5799H164.761Z" fill="white"/>
</svg>
