<svg width="146" height="20" viewBox="0 0 146 20" fill="none" xmlns="http://www.w3.org/2000/svg">
<path d="M15.1387 0.552757L22.0438 0.552756L22.0438 10.0855C22.0597 11.8655 21.5429 13.6096 20.5599 15.0936C19.5708 16.5977 18.2076 17.8186 16.604 18.6365C14.9497 19.4942 13.1105 19.9339 11.2471 19.9171C9.25951 19.9475 7.29249 19.511 5.50426 18.6427C3.87246 17.8612 2.48309 16.6519 1.48403 15.1435C0.509922 13.656 -0.00607343 11.9154 5.5655e-05 10.1374L5.39792e-05 0.55276L7.05672 0.552759L7.05672 10.0606C7.05672 11.4207 7.44069 12.419 8.20862 13.0555C8.97655 13.692 10.0005 14.0102 11.2803 14.0102C12.2755 14.0285 13.2426 13.6798 13.9972 13.0306C14.7651 12.3748 15.1491 11.3847 15.1491 10.0606L15.1387 0.552757Z" fill="white"/>
<path d="M37.7513 0.552757L45.2459 0.552756L38.4632 10.0606L45.2459 19.4148L37.7513 19.4148L34.0009 14.2904L30.2525 19.4148L22.7559 19.4148L29.5655 10.0606L22.7559 0.55276L30.2525 0.552758L34.0009 5.70205L37.7513 0.552757Z" fill="white"/>
<path d="M63.2816 13.9355L63.2816 0.552757L67.2914 0.552756L67.2914 19.4148L63.2816 19.4148L50.5401 6.0113L50.5401 19.419L46.5303 19.419L46.5303 0.55276L50.5401 0.552759L63.2816 13.9355ZM50.5401 19.4148L46.5303 19.4148L46.5303 0.55276L50.5401 19.4148Z" fill="white"/>
<path d="M85.8238 11.3598L73.8648 11.3598L73.8648 16.0255L87.8163 15.9487L87.8163 19.4148L69.855 19.4148L69.855 0.55276L87.8163 0.552757L87.8391 4.01883L73.8648 4.01883L73.8648 7.91868L85.8238 7.91867L85.8238 11.3598Z" fill="white"/>
<path d="M112.967 13.9853L119.231 0.552755L123.502 0.552754L114.7 19.4148L110.429 19.4148L106.371 6.89961L102.457 19.4148L98.1853 19.4148L89.0967 0.55276L93.5341 0.552759L99.8934 14.0102L104.19 0.552757L108.65 0.552756L112.967 13.9853Z" fill="white"/>
<path d="M135.58 8.45407C137.233 8.4347 138.887 8.52832 140.528 8.73426C141.752 8.88174 142.914 9.35238 143.896 10.0979C144.822 10.8201 145.285 11.9208 145.285 13.4C145.285 15.9985 144.233 17.7481 142.13 18.6489C140.027 19.5496 137.661 20 135.034 20C133.499 19.9922 131.969 19.826 130.468 19.504C128.923 19.1897 127.481 18.4981 126.269 17.4908C125.051 16.4793 124.442 15.0472 124.44 13.1945L128.618 13.1198C128.618 14.1893 129.006 14.9836 129.781 15.5024C130.54 16.0154 131.41 16.3424 132.319 16.4572C133.303 16.5809 134.293 16.6406 135.285 16.6357C136.897 16.6357 138.28 16.3935 139.436 15.9092C140.591 15.4249 141.177 14.6224 141.192 13.5017L141.192 13.483C141.192 12.9413 140.87 12.5324 140.231 12.2605C139.554 11.9799 138.836 11.8123 138.105 11.7645C137.331 11.705 136.39 11.6662 135.283 11.6482L134.76 11.6482C132.944 11.672 131.129 11.5784 129.326 11.3681C128.064 11.2242 126.866 10.7351 125.864 9.95465C124.922 9.1964 124.451 8.01061 124.451 6.39726C124.451 3.7683 125.547 2.04357 127.738 1.22306C131.501 -0.106079 135.561 -0.357675 139.459 0.496634C140.959 0.816062 142.355 1.50926 143.516 2.51194C144.695 3.51647 145.285 4.9451 145.285 6.79782L141.134 6.79782C141.134 5.71027 140.548 4.89045 139.378 4.33837C138.207 3.78629 136.786 3.47635 135.115 3.40855C133.277 3.40855 131.723 3.6417 130.451 4.10799C129.179 4.57428 128.543 5.3097 128.542 6.31424C128.542 7.19701 129.146 7.77469 130.356 8.04727C131.772 8.34191 133.216 8.4811 134.662 8.46237L135.58 8.45407Z" fill="white"/>
</svg>
