<svg width="71" height="21" viewBox="0 0 71 21" fill="none" xmlns="http://www.w3.org/2000/svg">
<path d="M29.803 6.28246C30.0621 6.28246 30.2701 6.36882 30.4271 6.54154C30.592 6.70641 30.6744 6.9223 30.6744 7.18923V13.7957C30.6744 14.0704 30.592 14.2942 30.4271 14.4669C30.2701 14.6318 30.0621 14.7142 29.803 14.7142C29.5204 14.7142 29.2927 14.6122 29.12 14.408L25.1749 9.35605V13.7957C25.1749 14.0704 25.0964 14.2942 24.9394 14.4669C24.7903 14.6318 24.5861 14.7142 24.3271 14.7142C24.068 14.7142 23.8599 14.6318 23.7029 14.4669C23.5459 14.2942 23.4674 14.0704 23.4674 13.7957V7.18923C23.4674 6.9223 23.5459 6.70641 23.7029 6.54154C23.8678 6.36882 24.0798 6.28246 24.3388 6.28246C24.6293 6.28246 24.8531 6.38452 25.0101 6.58864L28.9551 11.6053V7.18923C28.9551 6.9223 29.0336 6.70641 29.1906 6.54154C29.3476 6.36882 29.5518 6.28246 29.803 6.28246ZM35.3726 8.72013C36.2205 8.72013 36.8485 8.92818 37.2568 9.34427C37.665 9.75251 37.8691 10.3806 37.8691 11.2285V13.8899C37.8691 14.149 37.7945 14.3531 37.6454 14.5022C37.4962 14.6436 37.2882 14.7142 37.0212 14.7142C36.77 14.7142 36.5659 14.6396 36.4089 14.4905C36.2597 14.3334 36.1851 14.1333 36.1851 13.8899V13.8074C36.0674 14.0979 35.8711 14.3256 35.5963 14.4905C35.3215 14.6553 34.9997 14.7378 34.6307 14.7378C34.2381 14.7378 33.8809 14.6593 33.559 14.5022C33.245 14.3452 32.9938 14.1254 32.8054 13.8428C32.6248 13.5601 32.5345 13.2461 32.5345 12.9007C32.5345 12.4767 32.6405 12.1431 32.8525 11.8997C33.0723 11.6563 33.4216 11.4797 33.9005 11.3698C34.3794 11.2599 35.035 11.2049 35.8672 11.2049H36.1734V10.9929C36.1734 10.6632 36.0988 10.4238 35.9496 10.2746C35.8083 10.1254 35.5688 10.0508 35.2313 10.0508C34.8937 10.0508 34.4069 10.1686 33.771 10.4041C33.5904 10.4905 33.4374 10.5337 33.3117 10.5337C33.139 10.5337 33.0016 10.4748 32.8996 10.357C32.7975 10.2314 32.7465 10.0705 32.7465 9.8742C32.7465 9.71718 32.7818 9.58765 32.8525 9.48559C32.9231 9.38353 33.037 9.28932 33.194 9.20296C33.4688 9.05379 33.8024 8.93603 34.195 8.84967C34.5953 8.76331 34.9879 8.72013 35.3726 8.72013ZM35.0193 13.513C35.3647 13.513 35.6434 13.3992 35.8554 13.1715C36.0674 12.936 36.1734 12.6338 36.1734 12.2648V12.0646H35.9732C35.3372 12.0646 34.8897 12.1156 34.6307 12.2177C34.3794 12.3197 34.2538 12.5042 34.2538 12.7711C34.2538 12.991 34.3245 13.1715 34.4658 13.3128C34.615 13.4463 34.7995 13.513 35.0193 13.513ZM40.6824 14.7142C40.4234 14.7142 40.2075 14.6436 40.0347 14.5022C39.8699 14.3609 39.7874 14.1529 39.7874 13.8781V9.5798C39.7874 9.30502 39.8738 9.09697 40.0465 8.95566C40.2192 8.81434 40.4312 8.74369 40.6824 8.74369C40.9337 8.74369 41.1417 8.81434 41.3066 8.95566C41.4793 9.09697 41.5656 9.30502 41.5656 9.5798V13.8781C41.5656 14.1529 41.4793 14.3609 41.3066 14.5022C41.1417 14.6436 40.9337 14.7142 40.6824 14.7142ZM40.6824 7.80159C40.3684 7.80159 40.1211 7.72308 39.9405 7.56607C39.76 7.4012 39.6697 7.18138 39.6697 6.9066C39.6697 6.63182 39.76 6.41593 39.9405 6.25891C40.1211 6.10189 40.3684 6.02339 40.6824 6.02339C40.9886 6.02339 41.232 6.10582 41.4126 6.27069C41.601 6.4277 41.6952 6.63967 41.6952 6.9066C41.6952 7.18138 41.6049 7.4012 41.4243 7.56607C41.2438 7.72308 40.9965 7.80159 40.6824 7.80159ZM46.9662 8.74369C47.2017 8.72798 47.3862 8.78294 47.5197 8.90855C47.661 9.02631 47.7317 9.20688 47.7317 9.45026C47.7317 9.70933 47.6689 9.90168 47.5433 10.0273C47.4176 10.1529 47.1939 10.2314 46.872 10.2628L46.5187 10.2981C46.0869 10.3452 45.7729 10.4866 45.5766 10.7221C45.3882 10.9576 45.294 11.2599 45.294 11.6289V13.8781C45.294 14.1529 45.2076 14.3609 45.0349 14.5022C44.8701 14.6436 44.662 14.7142 44.4108 14.7142C44.1517 14.7142 43.9358 14.6436 43.7631 14.5022C43.5982 14.3609 43.5158 14.1529 43.5158 13.8781V9.55624C43.5158 9.29717 43.6022 9.09697 43.7749 8.95566C43.9476 8.81434 44.1556 8.74369 44.399 8.74369C44.6345 8.74369 44.8308 8.81434 44.9878 8.95566C45.1448 9.08912 45.2233 9.27754 45.2233 9.52091V9.83887C45.3647 9.50129 45.5766 9.24221 45.8593 9.06164C46.1497 8.88107 46.4638 8.77901 46.8014 8.75546L46.9662 8.74369ZM51.4337 8.72013C52.2816 8.72013 52.9097 8.92818 53.3179 9.34427C53.7262 9.75251 53.9303 10.3806 53.9303 11.2285V13.8899C53.9303 14.149 53.8557 14.3531 53.7065 14.5022C53.5574 14.6436 53.3493 14.7142 53.0824 14.7142C52.8312 14.7142 52.627 14.6396 52.47 14.4905C52.3209 14.3334 52.2463 14.1333 52.2463 13.8899V13.8074C52.1285 14.0979 51.9322 14.3256 51.6575 14.4905C51.3827 14.6553 51.0608 14.7378 50.6918 14.7378C50.2993 14.7378 49.9421 14.6593 49.6202 14.5022C49.3062 14.3452 49.0549 14.1254 48.8665 13.8428C48.6859 13.5601 48.5957 13.2461 48.5957 12.9007C48.5957 12.4767 48.7016 12.1431 48.9136 11.8997C49.1334 11.6563 49.4828 11.4797 49.9617 11.3698C50.4406 11.2599 51.0961 11.2049 51.9283 11.2049H52.2345V10.9929C52.2345 10.6632 52.1599 10.4238 52.0108 10.2746C51.8694 10.1254 51.63 10.0508 51.2924 10.0508C50.9548 10.0508 50.4681 10.1686 49.8322 10.4041C49.6516 10.4905 49.4985 10.5337 49.3729 10.5337C49.2002 10.5337 49.0628 10.4748 48.9607 10.357C48.8587 10.2314 48.8076 10.0705 48.8076 9.8742C48.8076 9.71718 48.843 9.58765 48.9136 9.48559C48.9843 9.38353 49.0981 9.28932 49.2551 9.20296C49.5299 9.05379 49.8636 8.93603 50.2561 8.84967C50.6565 8.76331 51.049 8.72013 51.4337 8.72013ZM51.0804 13.513C51.4259 13.513 51.7046 13.3992 51.9165 13.1715C52.1285 12.936 52.2345 12.6338 52.2345 12.2648V12.0646H52.0343C51.3984 12.0646 50.9509 12.1156 50.6918 12.2177C50.4406 12.3197 50.315 12.5042 50.315 12.7711C50.315 12.991 50.3856 13.1715 50.527 13.3128C50.6761 13.4463 50.8606 13.513 51.0804 13.513ZM56.8496 14.6436C56.5748 14.6436 56.3628 14.569 56.2137 14.4198C56.0645 14.2706 55.9899 14.0587 55.9899 13.7839V7.20101C55.9899 6.92623 56.0645 6.71426 56.2137 6.56509C56.3628 6.41593 56.5748 6.34134 56.8496 6.34134H61.0183C61.5993 6.34134 61.8898 6.57687 61.8898 7.04791C61.8898 7.52681 61.5993 7.76626 61.0183 7.76626H57.7799V9.70933H60.7828C61.3638 9.70933 61.6543 9.94878 61.6543 10.4277C61.6543 10.8987 61.3638 11.1343 60.7828 11.1343H57.7799V13.2186H61.0183C61.5993 13.2186 61.8898 13.4581 61.8898 13.937C61.8898 14.408 61.5993 14.6436 61.0183 14.6436H56.8496ZM70.12 13.3246C70.2692 13.4973 70.3438 13.6779 70.3438 13.8663C70.3438 14.094 70.2535 14.2942 70.0729 14.4669C69.9002 14.6318 69.7 14.7142 69.4724 14.7142C69.2368 14.7142 69.0366 14.6161 68.8718 14.4198L66.6578 11.7113L64.4204 14.4198C64.2477 14.6161 64.0475 14.7142 63.8198 14.7142C63.6 14.7142 63.3998 14.6318 63.2192 14.4669C63.0465 14.2942 62.9601 14.094 62.9601 13.8663C62.9601 13.6701 63.0308 13.4895 63.1721 13.3246L65.5862 10.4512L63.2545 7.66028C63.1054 7.48756 63.0308 7.30699 63.0308 7.11857C63.0308 6.8909 63.1171 6.69463 63.2899 6.52976C63.4704 6.35705 63.6706 6.27069 63.8904 6.27069C64.126 6.27069 64.3301 6.37275 64.5028 6.57687L66.6578 9.1794L68.7893 6.57687C68.9621 6.37275 69.1662 6.27069 69.4017 6.27069C69.6215 6.27069 69.8178 6.35705 69.9905 6.52976C70.1711 6.69463 70.2614 6.8909 70.2614 7.11857C70.2614 7.31484 70.1907 7.49541 70.0494 7.66028L67.7177 10.4512L70.12 13.3246Z" fill="white"/>
<mask id="path-2-outside-1_52_2990" maskUnits="userSpaceOnUse" x="-0.757324" y="-0.756836" width="18" height="22" fill="black">
<rect fill="white" x="-0.757324" y="-0.756836" width="18" height="22"/>
<path d="M15.8394 9.68487C15.9922 9.68487 16.1395 9.74476 16.2495 9.85089C16.3594 9.957 16.4237 10.1015 16.4292 10.2542C16.4283 12.1722 15.7471 14.028 14.5063 15.4905C13.2656 16.953 11.5459 17.9281 9.65381 18.2415L10.6489 19.2366C10.7312 19.3192 10.7874 19.424 10.8101 19.5384C10.8327 19.6527 10.8206 19.7715 10.7759 19.8792C10.7312 19.9867 10.6558 20.0792 10.5591 20.1439C10.4623 20.2085 10.3483 20.2433 10.2319 20.2435C10.1546 20.2436 10.0778 20.2282 10.0063 20.1985C9.93488 20.1689 9.8695 20.1254 9.81494 20.0706L7.91943 18.1751C7.83683 18.0927 7.78116 17.9868 7.7583 17.8724C7.73553 17.7581 7.74692 17.6392 7.7915 17.5316C7.83611 17.424 7.91143 17.3316 8.0083 17.2669C8.1053 17.2021 8.2198 17.1682 8.33643 17.1683C10.1694 17.1662 11.927 16.4371 13.2231 15.1409C14.5192 13.8448 15.2475 12.0872 15.2495 10.2542C15.255 10.1015 15.3202 9.95702 15.4302 9.85089C15.5401 9.74484 15.6866 9.68497 15.8394 9.68487ZM10.5806 6.98175C10.7547 6.98099 10.9223 7.0491 11.0464 7.1712C11.1049 7.23094 11.1513 7.30129 11.1841 7.37823C11.2182 7.45991 11.2357 7.54753 11.2349 7.63605V12.8734C11.2357 12.9714 11.2139 13.0682 11.1714 13.1566C11.1288 13.2424 11.0685 13.3183 10.9946 13.3792C10.9458 13.4271 10.8877 13.4644 10.8237 13.4886C10.7513 13.5152 10.6744 13.5288 10.5972 13.5276H10.5161C10.4333 13.5222 10.353 13.4956 10.2827 13.4515C10.2102 13.4025 10.1469 13.3411 10.0962 13.2698L6.76611 9.39093V12.8734C6.76665 12.9619 6.74878 13.0496 6.71436 13.1312C6.68162 13.2093 6.63351 13.2802 6.57178 13.3382C6.51011 13.3965 6.43815 13.443 6.35986 13.4759C6.19432 13.544 6.00783 13.544 5.84229 13.4759C5.76409 13.4428 5.69222 13.3964 5.63037 13.3382C5.56887 13.2799 5.5199 13.2092 5.48682 13.1312C5.45271 13.0496 5.43526 12.9618 5.43604 12.8734V7.65753C5.43537 7.57615 5.45096 7.49527 5.47998 7.41925C5.5084 7.34741 5.54884 7.28074 5.6001 7.22296C5.6549 7.15076 5.72523 7.09084 5.80518 7.04816C5.8967 7.00155 5.99843 6.97861 6.10107 6.98175C6.19932 6.98151 6.29671 7.00376 6.38525 7.0462C6.47812 7.09092 6.56117 7.15461 6.62842 7.23273L9.90576 11.0677V7.63605C9.9051 7.54721 9.92309 7.45925 9.95947 7.37823C9.99352 7.3002 10.043 7.22954 10.105 7.1712C10.1673 7.11241 10.2405 7.06597 10.3198 7.03351C10.4026 6.99937 10.4911 6.98148 10.5806 6.98175ZM6.43408 0.243468C6.51422 0.246074 6.59295 0.265031 6.66553 0.299132C6.73825 0.333376 6.80375 0.382395 6.85693 0.442686L8.75244 2.33819C8.83368 2.42068 8.88851 2.52536 8.91064 2.63898C8.93279 2.75276 8.9209 2.87081 8.87646 2.97784C8.83197 3.08479 8.75678 3.17599 8.66064 3.24054C8.56443 3.30511 8.45126 3.34046 8.33545 3.34112C6.50261 3.34323 4.74573 4.07243 3.44971 5.36847C2.15353 6.66459 1.42436 8.42217 1.42236 10.2552C1.42225 10.4113 1.35987 10.5608 1.24951 10.6712C1.13901 10.7818 0.988844 10.8441 0.83252 10.8441C0.676232 10.844 0.526121 10.7817 0.415527 10.6712C0.305164 10.5608 0.242979 10.4113 0.242676 10.2552C0.243484 8.33732 0.924827 6.4814 2.16553 5.01886C3.40628 3.55634 5.12597 2.58133 7.01807 2.26788L6.02295 1.27276C5.96295 1.21932 5.91426 1.15418 5.88037 1.08136C5.84645 1.00852 5.82793 0.929277 5.82568 0.848936C5.82345 0.768612 5.83787 0.688253 5.86768 0.613585C5.89748 0.539038 5.9426 0.47099 5.99951 0.414366C6.05631 0.357889 6.12419 0.313882 6.19873 0.284483C6.27349 0.25501 6.35376 0.240868 6.43408 0.243468Z"/>
</mask>
<path d="M15.8394 9.68487C15.9922 9.68487 16.1395 9.74476 16.2495 9.85089C16.3594 9.957 16.4237 10.1015 16.4292 10.2542C16.4283 12.1722 15.7471 14.028 14.5063 15.4905C13.2656 16.953 11.5459 17.9281 9.65381 18.2415L10.6489 19.2366C10.7312 19.3192 10.7874 19.424 10.8101 19.5384C10.8327 19.6527 10.8206 19.7715 10.7759 19.8792C10.7312 19.9867 10.6558 20.0792 10.5591 20.1439C10.4623 20.2085 10.3483 20.2433 10.2319 20.2435C10.1546 20.2436 10.0778 20.2282 10.0063 20.1985C9.93488 20.1689 9.8695 20.1254 9.81494 20.0706L7.91943 18.1751C7.83683 18.0927 7.78116 17.9868 7.7583 17.8724C7.73553 17.7581 7.74692 17.6392 7.7915 17.5316C7.83611 17.424 7.91143 17.3316 8.0083 17.2669C8.1053 17.2021 8.2198 17.1682 8.33643 17.1683C10.1694 17.1662 11.927 16.4371 13.2231 15.1409C14.5192 13.8448 15.2475 12.0872 15.2495 10.2542C15.255 10.1015 15.3202 9.95702 15.4302 9.85089C15.5401 9.74484 15.6866 9.68497 15.8394 9.68487ZM10.5806 6.98175C10.7547 6.98099 10.9223 7.0491 11.0464 7.1712C11.1049 7.23094 11.1513 7.30129 11.1841 7.37823C11.2182 7.45991 11.2357 7.54753 11.2349 7.63605V12.8734C11.2357 12.9714 11.2139 13.0682 11.1714 13.1566C11.1288 13.2424 11.0685 13.3183 10.9946 13.3792C10.9458 13.4271 10.8877 13.4644 10.8237 13.4886C10.7513 13.5152 10.6744 13.5288 10.5972 13.5276H10.5161C10.4333 13.5222 10.353 13.4956 10.2827 13.4515C10.2102 13.4025 10.1469 13.3411 10.0962 13.2698L6.76611 9.39093V12.8734C6.76665 12.9619 6.74878 13.0496 6.71436 13.1312C6.68162 13.2093 6.63351 13.2802 6.57178 13.3382C6.51011 13.3965 6.43815 13.443 6.35986 13.4759C6.19432 13.544 6.00783 13.544 5.84229 13.4759C5.76409 13.4428 5.69222 13.3964 5.63037 13.3382C5.56887 13.2799 5.5199 13.2092 5.48682 13.1312C5.45271 13.0496 5.43526 12.9618 5.43604 12.8734V7.65753C5.43537 7.57615 5.45096 7.49527 5.47998 7.41925C5.5084 7.34741 5.54884 7.28074 5.6001 7.22296C5.6549 7.15076 5.72523 7.09084 5.80518 7.04816C5.8967 7.00155 5.99843 6.97861 6.10107 6.98175C6.19932 6.98151 6.29671 7.00376 6.38525 7.0462C6.47812 7.09092 6.56117 7.15461 6.62842 7.23273L9.90576 11.0677V7.63605C9.9051 7.54721 9.92309 7.45925 9.95947 7.37823C9.99352 7.3002 10.043 7.22954 10.105 7.1712C10.1673 7.11241 10.2405 7.06597 10.3198 7.03351C10.4026 6.99937 10.4911 6.98148 10.5806 6.98175ZM6.43408 0.243468C6.51422 0.246074 6.59295 0.265031 6.66553 0.299132C6.73825 0.333376 6.80375 0.382395 6.85693 0.442686L8.75244 2.33819C8.83368 2.42068 8.88851 2.52536 8.91064 2.63898C8.93279 2.75276 8.9209 2.87081 8.87646 2.97784C8.83197 3.08479 8.75678 3.17599 8.66064 3.24054C8.56443 3.30511 8.45126 3.34046 8.33545 3.34112C6.50261 3.34323 4.74573 4.07243 3.44971 5.36847C2.15353 6.66459 1.42436 8.42217 1.42236 10.2552C1.42225 10.4113 1.35987 10.5608 1.24951 10.6712C1.13901 10.7818 0.988844 10.8441 0.83252 10.8441C0.676232 10.844 0.526121 10.7817 0.415527 10.6712C0.305164 10.5608 0.242979 10.4113 0.242676 10.2552C0.243484 8.33732 0.924827 6.4814 2.16553 5.01886C3.40628 3.55634 5.12597 2.58133 7.01807 2.26788L6.02295 1.27276C5.96295 1.21932 5.91426 1.15418 5.88037 1.08136C5.84645 1.00852 5.82793 0.929277 5.82568 0.848936C5.82345 0.768612 5.83787 0.688253 5.86768 0.613585C5.89748 0.539038 5.9426 0.47099 5.99951 0.414366C6.05631 0.357889 6.12419 0.313882 6.19873 0.284483C6.27349 0.25501 6.35376 0.240868 6.43408 0.243468Z" fill="white"/>
<path d="M15.8394 9.68487V9.44211L15.8392 9.44211L15.8394 9.68487ZM16.2495 9.85089L16.4181 9.67626L16.4181 9.6762L16.2495 9.85089ZM16.4292 10.2542L16.6721 10.2543L16.6718 10.2455L16.4292 10.2542ZM14.5063 15.4905L14.6915 15.6476L14.6915 15.6476L14.5063 15.4905ZM9.65381 18.2415L9.61413 18.002L9.14818 18.0792L9.48215 18.4132L9.65381 18.2415ZM10.6489 19.2366L10.8209 19.0653L10.8206 19.065L10.6489 19.2366ZM10.8101 19.5384L11.0482 19.4913L11.0482 19.4913L10.8101 19.5384ZM10.7759 19.8792L11.0001 19.9723L11.0001 19.9722L10.7759 19.8792ZM10.5591 20.1439L10.6939 20.3457L10.694 20.3456L10.5591 20.1439ZM10.2319 20.2435L10.2322 20.4862H10.2323L10.2319 20.2435ZM10.0063 20.1985L9.91332 20.4228L9.91339 20.4228L10.0063 20.1985ZM9.81494 20.0706L9.98703 19.8994L9.9866 19.899L9.81494 20.0706ZM7.91943 18.1751L8.09109 18.0034L8.09089 18.0033L7.91943 18.1751ZM7.7583 17.8724L7.52022 17.9198L7.52025 17.9199L7.7583 17.8724ZM7.7915 17.5316L7.56725 17.4386L7.56721 17.4387L7.7915 17.5316ZM8.0083 17.2669L8.14312 17.4688L8.14317 17.4688L8.0083 17.2669ZM8.33643 17.1683L8.33623 17.411L8.3367 17.411L8.33643 17.1683ZM13.2231 15.1409L13.3948 15.3126L13.3948 15.3126L13.2231 15.1409ZM15.2495 10.2542L15.0068 10.2455L15.0067 10.2539L15.2495 10.2542ZM15.4302 9.85089L15.2616 9.67616L15.2616 9.6762L15.4302 9.85089ZM10.5806 6.98175L10.5798 7.22452L10.5816 7.22451L10.5806 6.98175ZM11.0464 7.1712L11.2199 7.00132L11.2166 6.99816L11.0464 7.1712ZM11.1841 7.37823L11.4081 7.28457L11.4075 7.28317L11.1841 7.37823ZM11.2349 7.63605L10.9921 7.63385V7.63605H11.2349ZM11.2349 12.8734H10.9921L10.9921 12.8755L11.2349 12.8734ZM11.1714 13.1566L11.3889 13.2644L11.3901 13.2618L11.1714 13.1566ZM10.9946 13.3792L10.8402 13.1919L10.8321 13.1986L10.8246 13.2059L10.9946 13.3792ZM10.8237 13.4886L10.9073 13.7165L10.9096 13.7157L10.8237 13.4886ZM10.5972 13.5276L10.6009 13.2849H10.5972V13.5276ZM10.5161 13.5276L10.5003 13.7699L10.5082 13.7704H10.5161V13.5276ZM10.2827 13.4515L10.1468 13.6528L10.1536 13.6571L10.2827 13.4515ZM10.0962 13.2698L10.294 13.1291L10.2876 13.1201L10.2804 13.1117L10.0962 13.2698ZM6.76611 9.39093L6.95031 9.2328L6.52335 8.73547V9.39093H6.76611ZM6.76611 12.8734H6.52335L6.52336 12.8748L6.76611 12.8734ZM6.71436 13.1312L6.49069 13.0368L6.49044 13.0374L6.71436 13.1312ZM6.57178 13.3382L6.40549 13.1613L6.40493 13.1619L6.57178 13.3382ZM6.35986 13.4759L6.45223 13.7004L6.45387 13.6997L6.35986 13.4759ZM5.84229 13.4759L5.74775 13.6995L5.74992 13.7004L5.84229 13.4759ZM5.63037 13.3382L5.46333 13.5144L5.46398 13.515L5.63037 13.3382ZM5.48682 13.1312L5.26283 13.2248L5.2633 13.2259L5.48682 13.1312ZM5.43604 12.8734L5.6788 12.8755V12.8734H5.43604ZM5.43604 7.65753H5.67881L5.67879 7.65555L5.43604 7.65753ZM5.47998 7.41925L5.25423 7.32993L5.25319 7.33266L5.47998 7.41925ZM5.6001 7.22296L5.78169 7.38407L5.78785 7.37713L5.79346 7.36973L5.6001 7.22296ZM5.80518 7.04815L5.69499 6.83179L5.69084 6.834L5.80518 7.04815ZM6.10107 6.98175L6.09365 7.22453L6.10166 7.22451L6.10107 6.98175ZM6.38525 7.0462L6.49058 6.82748L6.49019 6.82729L6.38525 7.0462ZM6.62842 7.23273L6.81297 7.07501L6.8124 7.07435L6.62842 7.23273ZM9.90576 11.0677L9.72121 11.2254L10.1485 11.7254V11.0677H9.90576ZM9.90576 7.63605H10.1485L10.1485 7.63425L9.90576 7.63605ZM9.95947 7.37823L10.1809 7.4777L10.182 7.47533L9.95947 7.37823ZM10.105 7.1712L10.2714 7.34794L10.2716 7.34777L10.105 7.1712ZM10.3198 7.03351L10.4118 7.25818L10.4124 7.25792L10.3198 7.03351ZM6.43408 0.243468L6.44197 0.000833586L6.44194 0.000832319L6.43408 0.243468ZM6.66553 0.299132L6.76895 0.0795033L6.76877 0.0794157L6.66553 0.299132ZM6.85693 0.442686L6.67488 0.603282L6.67991 0.608976L6.68527 0.614345L6.85693 0.442686ZM8.75244 2.33819L8.92541 2.16785L8.9241 2.16654L8.75244 2.33819ZM8.91064 2.63898L9.14893 2.59259L9.14893 2.59256L8.91064 2.63898ZM8.87646 2.97784L9.1006 3.0711L9.10067 3.07093L8.87646 2.97784ZM8.66064 3.24054L8.79593 3.44211L8.79597 3.44208L8.66064 3.24054ZM8.33545 3.34112L8.33573 3.58389L8.33684 3.58388L8.33545 3.34112ZM3.44971 5.36847L3.62136 5.54013L3.62137 5.54013L3.44971 5.36847ZM1.42236 10.2552L1.1796 10.2549L1.1796 10.255L1.42236 10.2552ZM1.24951 10.6712L1.07783 10.4996L1.07782 10.4996L1.24951 10.6712ZM0.83252 10.8441L0.832424 11.0868H0.83252V10.8441ZM0.415527 10.6712L0.243858 10.8429L0.243979 10.843L0.415527 10.6712ZM0.242676 10.2552L-8.71271e-05 10.2551L-8.60095e-05 10.2557L0.242676 10.2552ZM2.16553 5.01886L1.98041 4.86181L1.9804 4.86181L2.16553 5.01886ZM7.01807 2.26788L7.05774 2.50738L7.52369 2.43019L7.18973 2.09622L7.01807 2.26788ZM6.02295 1.27276L6.19489 1.10082L6.18442 1.09149L6.02295 1.27276ZM5.88037 1.08136L6.10047 0.978936L6.10044 0.978863L5.88037 1.08136ZM5.82568 0.848936L5.58301 0.855685L5.58302 0.855718L5.82568 0.848936ZM5.86768 0.613585L5.64226 0.523471L5.64221 0.523598L5.86768 0.613585ZM5.99951 0.414366L5.82834 0.242218L5.82828 0.242277L5.99951 0.414366ZM6.19873 0.284483L6.1097 0.0586363L6.10967 0.0586486L6.19873 0.284483ZM15.8394 9.68487V9.92764C15.9289 9.92764 16.0159 9.96282 16.0809 10.0256L16.2495 9.85089L16.4181 9.6762C16.2632 9.52669 16.0555 9.44211 15.8394 9.44211V9.68487ZM16.2495 9.85089L16.0809 10.0255C16.1455 10.0879 16.1834 10.1729 16.1866 10.2629L16.4292 10.2542L16.6718 10.2455C16.6641 10.0301 16.5733 9.8261 16.4181 9.67626L16.2495 9.85089ZM16.4292 10.2542L16.1864 10.2541C16.1856 12.1146 15.5248 13.9148 14.3212 15.3335L14.5063 15.4905L14.6915 15.6476C15.9695 14.1411 16.6711 12.2298 16.672 10.2543L16.4292 10.2542ZM14.5063 15.4905L14.3212 15.3335C13.1177 16.7521 11.4495 17.698 9.61413 18.002L9.65381 18.2415L9.69348 18.481C11.6423 18.1582 13.4135 17.1539 14.6915 15.6476L14.5063 15.4905ZM9.65381 18.2415L9.48215 18.4132L10.4773 19.4083L10.6489 19.2366L10.8206 19.065L9.82547 18.0699L9.65381 18.2415ZM10.6489 19.2366L10.477 19.408C10.5257 19.4569 10.5587 19.5187 10.5719 19.5855L10.8101 19.5384L11.0482 19.4913C11.0162 19.3294 10.9366 19.1814 10.8209 19.0653L10.6489 19.2366ZM10.8101 19.5384L10.5719 19.5855C10.5851 19.6523 10.5781 19.7224 10.5516 19.7862L10.7759 19.8792L11.0001 19.9722C11.063 19.8207 11.0802 19.6532 11.0482 19.4913L10.8101 19.5384ZM10.7759 19.8792L10.5517 19.7861C10.5252 19.8499 10.4806 19.9043 10.4241 19.9421L10.5591 20.1439L10.694 20.3456C10.8311 20.254 10.9373 20.1235 11.0001 19.9723L10.7759 19.8792ZM10.5591 20.1439L10.4242 19.942C10.3671 19.9802 10.2999 20.0006 10.2316 20.0007L10.2319 20.2435L10.2323 20.4862C10.3967 20.486 10.5574 20.4369 10.6939 20.3457L10.5591 20.1439ZM10.2319 20.2435L10.2316 20.0007C10.1866 20.0008 10.1415 19.9918 10.0993 19.9743L10.0063 20.1985L9.91339 20.4228C10.0141 20.4645 10.1225 20.4864 10.2322 20.4862L10.2319 20.2435ZM10.0063 20.1985L10.0994 19.9743C10.0569 19.9567 10.0185 19.931 9.98703 19.8994L9.81494 20.0706L9.64285 20.2418C9.72049 20.3199 9.8129 20.3811 9.91332 20.4228L10.0063 20.1985ZM9.81494 20.0706L9.9866 19.899L8.09109 18.0034L7.91943 18.1751L7.74777 18.3468L9.64328 20.2423L9.81494 20.0706ZM7.91943 18.1751L8.09089 18.0033C8.04328 17.9557 8.01008 17.8935 7.99636 17.8248L7.7583 17.8724L7.52025 17.9199C7.55224 18.0801 7.63038 18.2296 7.74797 18.347L7.91943 18.1751ZM7.7583 17.8724L7.99638 17.8249C7.98291 17.7573 7.98975 17.6874 8.0158 17.6244L7.7915 17.5316L7.56721 17.4387C7.50409 17.5911 7.48814 17.7588 7.52022 17.9198L7.7583 17.8724ZM7.7915 17.5316L8.01576 17.6245C8.04221 17.5607 8.08667 17.5065 8.14312 17.4688L8.0083 17.2669L7.87348 17.065C7.7362 17.1567 7.63002 17.2872 7.56725 17.4386L7.7915 17.5316ZM8.0083 17.2669L8.14317 17.4688C8.19931 17.4312 8.26661 17.411 8.33623 17.411L8.33643 17.1683L8.33662 16.9255C8.173 16.9254 8.01129 16.9729 7.87343 17.0651L8.0083 17.2669ZM8.33643 17.1683L8.3367 17.411C10.234 17.4089 12.0532 16.6542 13.3948 15.3126L13.2231 15.1409L13.0515 14.9693C11.8008 16.2199 10.1049 16.9235 8.33615 16.9255L8.33643 17.1683ZM13.2231 15.1409L13.3948 15.3126C14.7364 13.971 15.4902 12.1517 15.4923 10.2545L15.2495 10.2542L15.0067 10.2539C15.0048 12.0227 14.302 13.7187 13.0515 14.9693L13.2231 15.1409ZM15.2495 10.2542L15.4921 10.2629C15.4953 10.1738 15.5334 10.0886 15.5988 10.0256L15.4302 9.85089L15.2616 9.6762C15.107 9.8254 15.0146 10.0291 15.0069 10.2455L15.2495 10.2542ZM15.4302 9.85089L15.5987 10.0256C15.664 9.96266 15.7503 9.92769 15.8395 9.92764L15.8394 9.68487L15.8392 9.44211C15.6229 9.44224 15.4163 9.52701 15.2616 9.67616L15.4302 9.85089ZM10.5806 6.98175L10.5816 7.22451C10.6918 7.22403 10.7978 7.26715 10.8761 7.34425L11.0464 7.1712L11.2166 6.99816C11.0468 6.83105 10.8176 6.73795 10.5795 6.73899L10.5806 6.98175ZM11.0464 7.1712L10.8729 7.34105C10.9097 7.37859 10.9395 7.42339 10.9607 7.4733L11.1841 7.37823L11.4075 7.28317C11.3632 7.17919 11.3001 7.08329 11.2198 7.00135L11.0464 7.1712ZM11.1841 7.37823L10.9601 7.47189C10.9818 7.52366 10.9926 7.5787 10.9921 7.63385L11.2349 7.63605L11.4776 7.63824C11.4787 7.51636 11.4547 7.39616 11.4081 7.28458L11.1841 7.37823ZM11.2349 7.63605H10.9921V12.8734H11.2349H11.4776V7.63605H11.2349ZM11.2349 12.8734L10.9921 12.8755C10.9926 12.936 10.9792 12.9961 10.9526 13.0513L11.1714 13.1566L11.3901 13.2618C11.4486 13.1403 11.4788 13.0068 11.4776 12.8712L11.2349 12.8734ZM11.1714 13.1566L10.9539 13.0488C10.9266 13.1038 10.8878 13.1526 10.8402 13.1919L10.9946 13.3792L11.1491 13.5665C11.2493 13.4839 11.3311 13.381 11.3889 13.2643L11.1714 13.1566ZM10.9946 13.3792L10.8246 13.2059C10.7996 13.2305 10.7701 13.2493 10.7379 13.2615L10.8237 13.4886L10.9096 13.7157C11.0053 13.6795 11.092 13.6237 11.1647 13.5525L10.9946 13.3792ZM10.8237 13.4886L10.7401 13.2607C10.6944 13.2774 10.647 13.2856 10.6009 13.2849L10.5972 13.5276L10.5934 13.7704C10.7017 13.772 10.8082 13.7529 10.9073 13.7165L10.8237 13.4886ZM10.5972 13.5276V13.2849H10.5161V13.5276V13.7704H10.5972V13.5276ZM10.5161 13.5276L10.532 13.2854C10.4906 13.2827 10.449 13.2692 10.4118 13.2459L10.2827 13.4515L10.1536 13.6571C10.2569 13.7219 10.376 13.7618 10.5003 13.7699L10.5161 13.5276ZM10.2827 13.4515L10.4185 13.2503C10.3698 13.2173 10.3275 13.1763 10.294 13.1291L10.0962 13.2698L9.89837 13.4106C9.96619 13.5059 10.0506 13.5877 10.1469 13.6527L10.2827 13.4515ZM10.0962 13.2698L10.2804 13.1117L6.95031 9.2328L6.76611 9.39093L6.58192 9.54906L9.912 13.428L10.0962 13.2698ZM6.76611 9.39093H6.52335V12.8734H6.76611H7.00888V9.39093H6.76611ZM6.76611 12.8734L6.52336 12.8748C6.52369 12.9297 6.51261 12.9848 6.49069 13.0368L6.71436 13.1312L6.93802 13.2255C6.98495 13.1143 7.00961 12.9941 7.00887 12.8719L6.76611 12.8734ZM6.71436 13.1312L6.49044 13.0374C6.47022 13.0856 6.4412 13.1277 6.40549 13.1613L6.57178 13.3382L6.73807 13.5151C6.82581 13.4326 6.89301 13.333 6.93827 13.225L6.71436 13.1312ZM6.57178 13.3382L6.40493 13.1619C6.36501 13.1996 6.31787 13.2302 6.26586 13.2521L6.35986 13.4759L6.45387 13.6997C6.55843 13.6558 6.65522 13.5935 6.73862 13.5145L6.57178 13.3382ZM6.35986 13.4759L6.2675 13.2514C6.16112 13.2952 6.04103 13.2952 5.93465 13.2514L5.84229 13.4759L5.74992 13.7004C5.97463 13.7928 6.22751 13.7928 6.45223 13.7004L6.35986 13.4759ZM5.84229 13.4759L5.93682 13.2523C5.88454 13.2302 5.83713 13.1994 5.79677 13.1614L5.63037 13.3382L5.46398 13.515C5.5473 13.5934 5.64365 13.6555 5.74775 13.6995L5.84229 13.4759ZM5.63037 13.3382L5.79741 13.162C5.76018 13.1267 5.73041 13.0838 5.71033 13.0364L5.48682 13.1312L5.2633 13.2259C5.30938 13.3346 5.37755 13.433 5.46333 13.5144L5.63037 13.3382ZM5.48682 13.1312L5.7108 13.0375C5.68919 12.9859 5.67831 12.9306 5.67879 12.8755L5.43604 12.8734L5.19328 12.8712C5.19222 12.993 5.21622 13.1133 5.26284 13.2248L5.48682 13.1312ZM5.43604 12.8734H5.6788V7.65753H5.43604H5.19327V12.8734H5.43604ZM5.43604 7.65753L5.67879 7.65555C5.67839 7.60642 5.68781 7.55551 5.70678 7.50584L5.47998 7.41925L5.25319 7.33266C5.2141 7.43504 5.19235 7.54589 5.19328 7.65951L5.43604 7.65753ZM5.47998 7.41925L5.70572 7.50856C5.7241 7.46209 5.74989 7.41992 5.78169 7.38407L5.6001 7.22296L5.41851 7.06184C5.34779 7.14155 5.29271 7.23272 5.25424 7.32994L5.47998 7.41925ZM5.6001 7.22296L5.79346 7.36973C5.82706 7.32547 5.87042 7.28851 5.91951 7.26231L5.80518 7.04815L5.69084 6.834C5.58004 6.89316 5.48273 6.97606 5.40673 7.07618L5.6001 7.22296ZM5.80518 7.04815L5.91534 7.26448C5.97074 7.23627 6.03206 7.22251 6.09365 7.2244L6.10107 6.98175L6.1085 6.7391C5.96481 6.7347 5.82266 6.76682 5.69501 6.83183L5.80518 7.04815ZM6.10107 6.98175L6.10166 7.22451C6.16301 7.22436 6.22436 7.23829 6.28032 7.26511L6.38525 7.0462L6.49019 6.82729C6.36905 6.76923 6.23563 6.73866 6.10049 6.73899L6.10107 6.98175ZM6.38525 7.0462L6.27993 7.26493C6.34274 7.29517 6.399 7.33833 6.44443 7.3911L6.62842 7.23273L6.8124 7.07435C6.72335 6.97089 6.6135 6.88667 6.49058 6.82748L6.38525 7.0462ZM6.62842 7.23273L6.44387 7.39044L9.72121 11.2254L9.90576 11.0677L10.0903 10.91L6.81297 7.07501L6.62842 7.23273ZM9.90576 11.0677H10.1485V7.63605H9.90576H9.663V11.0677H9.90576ZM9.90576 7.63605L10.1485 7.63425C10.1481 7.57933 10.1592 7.526 10.1809 7.4777L9.95947 7.37823L9.73802 7.27877C9.68694 7.39249 9.6621 7.51509 9.66301 7.63785L9.90576 7.63605ZM9.95947 7.37823L10.182 7.47533C10.2031 7.42699 10.2336 7.38351 10.2714 7.34794L10.105 7.1712L9.93856 6.99446C9.85242 7.07557 9.78398 7.17342 9.73697 7.28114L9.95947 7.37823ZM10.105 7.1712L10.2716 7.34777C10.3113 7.31028 10.359 7.27979 10.4118 7.25818L10.3198 7.03351L10.2279 6.80883C10.122 6.85214 10.0233 6.91454 9.93838 6.99463L10.105 7.1712ZM10.3198 7.03351L10.4124 7.25792C10.4664 7.23565 10.5232 7.22434 10.5798 7.22451L10.5806 6.98175L10.5813 6.73899C10.4589 6.73862 10.3387 6.76308 10.2272 6.8091L10.3198 7.03351ZM6.43408 0.243468L6.42619 0.486101C6.47325 0.487632 6.51955 0.498765 6.56229 0.518847L6.66553 0.299132L6.76877 0.0794157C6.66636 0.0312964 6.55519 0.00451601 6.44197 0.000833586L6.43408 0.243468ZM6.66553 0.299132L6.5621 0.51876C6.6051 0.539007 6.64378 0.56802 6.67488 0.603282L6.85693 0.442686L7.03898 0.282091C6.96372 0.196771 6.8714 0.127746 6.76895 0.0795034L6.66553 0.299132ZM6.85693 0.442686L6.68527 0.614345L8.58078 2.50985L8.75244 2.33819L8.9241 2.16654L7.02859 0.271027L6.85693 0.442686ZM8.75244 2.33819L8.57948 2.50854C8.62693 2.55672 8.65927 2.61818 8.67236 2.68539L8.91064 2.63898L9.14893 2.59256C9.11776 2.43254 9.04043 2.28464 8.92541 2.16785L8.75244 2.33819ZM8.91064 2.63898L8.67235 2.68536C8.68539 2.75233 8.67837 2.82186 8.65226 2.88476L8.87646 2.97784L9.10067 3.07093C9.16344 2.91975 9.18019 2.75319 9.14893 2.59259L8.91064 2.63898ZM8.87646 2.97784L8.65233 2.88458C8.62632 2.94709 8.58222 3.00079 8.52532 3.03899L8.66064 3.24054L8.79597 3.44208C8.93134 3.35119 9.03761 3.22248 9.1006 3.0711L8.87646 2.97784ZM8.66064 3.24054L8.52536 3.03896C8.46812 3.07738 8.40139 3.09798 8.33405 3.09837L8.33545 3.34112L8.33684 3.58388C8.50113 3.58294 8.66074 3.53284 8.79593 3.44211L8.66064 3.24054ZM8.33545 3.34112L8.33517 3.09836C6.43802 3.10054 4.61951 3.85533 3.27805 5.19681L3.44971 5.36847L3.62137 5.54013C4.87195 4.28953 6.56721 3.58592 8.33573 3.58389L8.33545 3.34112ZM3.44971 5.36847L3.27805 5.19681C1.93642 6.53839 1.18167 8.35761 1.1796 10.2549L1.42236 10.2552L1.66513 10.2555C1.66705 8.48673 2.37065 6.79079 3.62136 5.54013L3.44971 5.36847ZM1.42236 10.2552L1.1796 10.255C1.17953 10.3464 1.14301 10.4344 1.07783 10.4996L1.24951 10.6712L1.4212 10.8428C1.57672 10.6873 1.66496 10.4762 1.66513 10.2554L1.42236 10.2552ZM1.24951 10.6712L1.07782 10.4996C1.01278 10.5646 0.924359 10.6013 0.83252 10.6013V10.8441V11.0868C1.05333 11.0868 1.26523 10.9989 1.42121 10.8428L1.24951 10.6712ZM0.83252 10.8441L0.832615 10.6013C0.740821 10.6013 0.652314 10.5646 0.587075 10.4994L0.415527 10.6712L0.243979 10.843C0.399928 10.9987 0.611643 11.0867 0.832424 11.0868L0.83252 10.8441ZM0.415527 10.6712L0.587196 10.4996C0.522185 10.4345 0.485616 10.3465 0.485438 10.2547L0.242676 10.2552L-8.60095e-05 10.2557C0.00034225 10.476 0.0881437 10.6871 0.243858 10.8429L0.415527 10.6712ZM0.242676 10.2552L0.485438 10.2553C0.486222 8.39489 1.14715 6.59459 2.35065 5.1759L2.16553 5.01886L1.9804 4.86181C0.7025 6.36821 0.000745729 8.27975 -8.64565e-05 10.2551L0.242676 10.2552ZM2.16553 5.01886L2.35065 5.17591C3.55422 3.75722 5.22237 2.81143 7.05774 2.50738L7.01807 2.26788L6.97839 2.02838C5.02956 2.35123 3.25834 3.35547 1.98041 4.86181L2.16553 5.01886ZM7.01807 2.26788L7.18973 2.09622L6.19461 1.10111L6.02295 1.27276L5.85129 1.44442L6.84641 2.43954L7.01807 2.26788ZM6.02295 1.27276L6.18442 1.09149C6.14881 1.05977 6.12021 1.02136 6.10047 0.978936L5.88037 1.08136L5.66027 1.18378C5.7083 1.287 5.77709 1.37887 5.86148 1.45404L6.02295 1.27276ZM5.88037 1.08136L6.10044 0.978863C6.08067 0.936415 6.06968 0.889782 6.06835 0.842155L5.82568 0.848936L5.58302 0.855718C5.58618 0.968773 5.61223 1.08063 5.66031 1.18385L5.88037 1.08136ZM5.82568 0.848936L6.06835 0.842188C6.06705 0.795229 6.0755 0.74777 6.09314 0.703571L5.86768 0.613585L5.64221 0.523598C5.60025 0.628736 5.57985 0.741995 5.58301 0.855685L5.82568 0.848936ZM5.86768 0.613585L6.09309 0.703699C6.11052 0.660113 6.13712 0.619907 6.17074 0.586455L5.99951 0.414366L5.82828 0.242277C5.74809 0.322073 5.68444 0.417964 5.64226 0.523471L5.86768 0.613585ZM5.99951 0.414366L6.17068 0.586514C6.20359 0.553793 6.24337 0.527836 6.28779 0.510318L6.19873 0.284483L6.10967 0.0586486C6.005 0.0999274 5.90904 0.161984 5.82834 0.242218L5.99951 0.414366ZM6.19873 0.284483L6.28776 0.51033C6.33216 0.492828 6.37948 0.48459 6.42623 0.486103L6.43408 0.243468L6.44194 0.000832319C6.32803 -0.00285429 6.21483 0.0171921 6.1097 0.0586363L6.19873 0.284483Z" fill="white" mask="url(#path-2-outside-1_52_2990)"/>
</svg>
